<svg viewBox="0 0 28 33" xmlns="http://www.w3.org/2000/svg"><g fill="none" stroke="#000" stroke-width="3"><path d="m38.064 16.405h-6.241a7.021 7.021 0 0 1 .537 2.095.954.954 0 0 1 -.138 1.725 1.024 1.024 0 0 1 -.834-.035.964.964 0 0 1 -.544-.861.951.951 0 0 1 .36-.741 5.931 5.931 0 0 0 -.651-2.182h-8.373a5.916 5.916 0 0 0 -.651 2.183.951.951 0 0 1 .359.74.965.965 0 0 1 -.545.861 1.023 1.023 0 0 1 -.833.035.954.954 0 0 1 -.136-1.726 7.022 7.022 0 0 1 .537-2.093h-6.246l-.8 24.776a1.577 1.577 0 0 0 1.6 1.551h21.8a1.577 1.577 0 0 0 1.6-1.551z" transform="translate(-12.365 -11.232)"/><path d="m33.453 12.291a.421.421 0 0 0 .425-.392v-.039c.022-3.084 2.273-5.593 5.022-5.593s5 2.511 5.021 5.6v.034a.427.427 0 0 0 .85 0v-.036c-.026-3.544-2.661-6.425-5.871-6.425-3.226 0-5.862 2.885-5.873 6.459a.421.421 0 0 0 .425.392z" transform="translate(-24.899 -3.94)"/></g></svg>