<svg viewBox="0 0 53.531 53.531" xmlns="http://www.w3.org/2000/svg"><g><path d="m53.531 45.394a8.133 8.133 0 0 1 -8.137 8.137h-37.257a8.133 8.133 0 0 1 -8.137-8.137v-37.257a8.133 8.133 0 0 1 8.137-8.137h37.257a8.133 8.133 0 0 1 8.137 8.137z" fill="#3a5a98" opacity=".9"/><path d="m81.722 49.684.856-6.709h-6.638v-4.282c0-1.927.535-3.283 3.319-3.283h3.533v-5.96a51.688 51.688 0 0 0 -5.175-.25c-5.139 0-8.636 3.14-8.636 8.886v4.961h-5.781v6.709h5.781v17.237h6.919v-17.309z" fill="#ffeed7" transform="translate(-40.646 -18.779)"/></g></svg>