<svg viewBox="0 0 53.531 53.531" xmlns="http://www.w3.org/2000/svg"><g><path d="m53.531 45.394a8.133 8.133 0 0 1 -8.137 8.137h-37.257a8.133 8.133 0 0 1 -8.137-8.137v-37.257a8.133 8.133 0 0 1 8.137-8.137h37.257a8.133 8.133 0 0 1 8.137 8.137z" fill="#326699" opacity=".8"/><path d="m36.4 33.2h23.122a3.99 3.99 0 0 1 4 4v23.122a3.99 3.99 0 0 1 -4 4h-23.122a3.99 3.99 0 0 1 -4-4v-23.122a4.013 4.013 0 0 1 4-4zm18.7 3.462a1.394 1.394 0 0 0 -1.392 1.392v3.355a1.394 1.394 0 0 0 1.392 1.391h3.53a1.394 1.394 0 0 0 1.392-1.392v-3.355a1.394 1.394 0 0 0 -1.392-1.392zm4.925 9.707h-2.751a9.671 9.671 0 1 1 -18.557 0h-2.855v13.168a1.264 1.264 0 0 0 1.249 1.249h21.662a1.264 1.264 0 0 0 1.249-1.249zm-12.025-3.712a6.069 6.069 0 1 0 6.245 6.067 6.147 6.147 0 0 0 -6.245-6.067z" fill="#ffeed7" transform="translate(-20.837 -21.352)"/></g></svg>