<svg viewBox="0 0 28.786 32.982" xmlns="http://www.w3.org/2000/svg"><path d="m291.45 265.438a2.268 2.268 0 0 1 .67.205 5.716 5.716 0 0 0 .891.486 4.666 4.666 0 0 1 1.247.846 8.417 8.417 0 0 0 .667.653 9.926 9.926 0 0 1 1.9 3.466 2.343 2.343 0 0 0 .44 1.2 13.966 13.966 0 0 1 -.023 3.678 5.639 5.639 0 0 0 -.568 1.528 7.425 7.425 0 0 1 -.5 1.227 5.479 5.479 0 0 0 -.34.713 7.126 7.126 0 0 1 -1.857 2.023l-.842.621v.615a1.058 1.058 0 0 0 .441 1.054 5.521 5.521 0 0 0 1.158.779 3.172 3.172 0 0 1 .813.508 1.138 1.138 0 0 0 .535.305 7.1 7.1 0 0 1 1.805.973 1.526 1.526 0 0 0 .457.271 4.614 4.614 0 0 1 .835.508 4.942 4.942 0 0 0 .847.508c.056 0 .134.1.178.214a.833.833 0 0 0 .311.382 7.383 7.383 0 0 1 1.594 2.592 5.571 5.571 0 0 0 .5 1.132c.2.27.265.583.347 1.668.1 1.309.092 1.331-.155 1.531s-.762.208-12.411.158c-6.674-.03-12.286-.054-12.454-.066-.492-.025-.747-.329-.744-.888.008-1.241.432-3.049.712-3.059.056 0 .09-.089.091-.2a7.885 7.885 0 0 1 1.132-2.24 6.507 6.507 0 0 1 1.687-1.655 8.358 8.358 0 0 1 .9-.531 12.811 12.811 0 0 0 1.178-.675 13.354 13.354 0 0 1 1.29-.7 1.824 1.824 0 0 0 .449-.232 10.091 10.091 0 0 1 1.066-.642c1.279-.719 1.515-.986 1.52-1.768 0-.559-.008-.593-.464-.9a10.592 10.592 0 0 1 -1.911-1.879 8.566 8.566 0 0 1 -1.1-2.589 1.094 1.094 0 0 0 -.231-.549c-.356-.293-.6-2.709-.378-3.915a6.218 6.218 0 0 1 .354-1.217 4.086 4.086 0 0 0 .285-.837 8.815 8.815 0 0 1 2.1-3.464 5.819 5.819 0 0 1 1.965-1.318 2.263 2.263 0 0 0 .606-.343 5.894 5.894 0 0 1 1.958-.312c.234.018.714.077 1.049.135z" fill="none" stroke="#000" stroke-width="3" transform="translate(-275.685 -263.806)"/></svg>