<svg viewBox="0 0 53.531 53.531" xmlns="http://www.w3.org/2000/svg"><g><path d="m53.531 45.394a8.133 8.133 0 0 1 -8.137 8.137h-37.257a8.133 8.133 0 0 1 -8.137-8.137v-37.257a8.133 8.133 0 0 1 8.137-8.137h37.257a8.133 8.133 0 0 1 8.137 8.137z" fill="#ca2128" opacity=".7"/><path d="m49.658 18.4h-2.32l-1.57 6.031-1.641-6.031h-2.427c.5 1.427 1 2.855 1.463 4.282a31.346 31.346 0 0 1 1.392 4.853v6.245h2.32v-6.21zm6.174 11.67v-4a4.68 4.68 0 0 0 -.642-2.712 3.089 3.089 0 0 0 -4.853 0 4.529 4.529 0 0 0 -.642 2.712v4.033a4.68 4.68 0 0 0 .642 2.712 3.089 3.089 0 0 0 4.853 0 4.808 4.808 0 0 0 .642-2.745zm-2.07.393c0 1.071-.321 1.606-1 1.606s-1-.535-1-1.606v-4.819c0-1.071.321-1.606 1-1.606s1 .535 1 1.606zm9.738 3.318v-11.455h-2.07v8.774c-.464.642-.892.964-1.32.964-.285 0-.428-.178-.5-.5a3.532 3.532 0 0 1 -.036-.821v-8.417h-2.07v9.064a6.182 6.182 0 0 0 .178 1.713 1.293 1.293 0 0 0 1.32.856 3.292 3.292 0 0 0 2.355-1.427v1.249z" fill="#ffeed7" transform="translate(-26.818 -11.834)"/><path d="m60.346 79.148a35.528 35.528 0 0 1 -.607 8.03 4.324 4.324 0 0 1 -3.676 3.355 116.615 116.615 0 0 1 -12.74.467 116.615 116.615 0 0 1 -12.74-.464 4.324 4.324 0 0 1 -3.676-3.355 35.528 35.528 0 0 1 -.607-8.03 35.528 35.528 0 0 1 .607-8.03 4.324 4.324 0 0 1 3.676-3.355 116.615 116.615 0 0 1 12.74-.464 116.615 116.615 0 0 1 12.74.464 4.324 4.324 0 0 1 3.676 3.355 35.528 35.528 0 0 1 .607 8.027z" fill="#ffeed7" transform="translate(-16.914 -43.283)"/><path d="m40.637 80.641v-2.141h-7.137v2.141h2.427v13.1h2.284v-13.1zm4.176 13.059v-1.246a3.351 3.351 0 0 1 -2.355 1.392 1.265 1.265 0 0 1 -1.32-.856 6.067 6.067 0 0 1 -.178-1.677v-8.923h2.07v8.351a3.133 3.133 0 0 0 .036.785c.036.321.214.464.464.464q.642 0 1.285-.964v-8.636h2.07v11.348h-2.07zm7.815-3.212c0 1.035-.285 1.535-.892 1.535a1.641 1.641 0 0 1 -1.035-.5v-6.956a1.564 1.564 0 0 1 1.035-.5c.607 0 .892.535.892 1.535zm2.034-.178v-4.53a8.537 8.537 0 0 0 -.214-2.284 1.629 1.629 0 0 0 -1.642-1.285 2.8 2.8 0 0 0 -2.106 1.214v-4.925h-2.07v15.238h2.07v-1.106a2.751 2.751 0 0 0 2.106 1.249 1.629 1.629 0 0 0 1.642-1.281 8.72 8.72 0 0 0 .214-2.288zm5.71-3.6h-2.072v-1.037c0-1.035.357-1.57 1.035-1.57s1.035.535 1.035 1.57zm2.07 3.39v-.285h-2.105c0 .821-.036 1.285-.036 1.392a.9.9 0 0 1 -.928.821c-.714 0-1.035-.535-1.035-1.57v-2h4.1v-2.358a4.479 4.479 0 0 0 -.642-2.677 2.838 2.838 0 0 0 -2.427-1.178 2.948 2.948 0 0 0 -2.462 1.178 4.479 4.479 0 0 0 -.642 2.677v3.961a4.479 4.479 0 0 0 .642 2.677 2.969 2.969 0 0 0 2.5 1.178 2.866 2.866 0 0 0 2.5-1.213 2.93 2.93 0 0 0 .464-1.249 10.428 10.428 0 0 0 .071-1.354z" fill="#ca2128" opacity=".7" transform="translate(-21.545 -50.486)"/></g></svg>