<?xml version="1.0" encoding="utf-8"?>
<!-- Generator: Adobe Illustrator 22.1.0, SVG Export Plug-In . SVG Version: 6.00 Build 0)  -->
<svg version="1.1" id="Layer_1" xmlns="http://www.w3.org/2000/svg" xmlns:xlink="http://www.w3.org/1999/xlink" x="0px" y="0px"
	 viewBox="0 0 485.5 278.8" style="enable-background:new 0 0 485.5 278.8;" xml:space="preserve">
<style type="text/css">
	.st0{opacity:3.000000e-02;}
</style>
<g transform="translate(-5205.7 -1439.2)" class="st0">
	<path d="M5530.7,1707.7c-0.2-0.2-4-0.5-8.4-0.5c-7.6-0.1-20.2-1.8-25.9-3.5c-3.4-1-4.3-1.1-16.7-1.2c-9.2-0.1-10.3-0.3-10.5-1.5
		c-0.2-1.2,0.2-1.3,4.9-1c3.9,0.3,4.8,0.2,3.8-0.4c-1.1-0.6-1.2-1-0.5-1.9c0.8-0.9,0.1-1-4.1-0.7c-4.5,0.4-4.9,0.3-4.6-1
		c0.3-1.2,1.5-1.4,9.6-1.6c5.1-0.1,9.4-0.4,9.5-0.5c0.1-0.1-1.4-0.5-3.4-0.7c-10.2-1.3-13.9-2.1-13.5-2.8c0.3-0.5,2-0.6,4.2-0.3
		c2.4,0.3,4.6,0.1,6.2-0.6c2.4-1.1,2.3-1.1-3.4-1.1c-3.2,0-6.4-0.2-7-0.5c-1.9-0.7-1.4-2.6,0.7-2.6c1,0,1.9-0.3,1.9-0.6
		c0-0.4-1.7-0.5-3.7-0.3c-2.4,0.2-3.9,0-4.3-0.5c-0.8-1.3-0.5-1.5,6.3-2c3.4-0.3,6.4-0.8,6.6-1.1c0.4-0.7-11.2-0.1-14.6,0.8
		c-2.4,0.6-5.2-0.3-4.5-1.5c0.2-0.3,2-0.5,4-0.4c2,0.1,3,0.1,2.3-0.1c-0.7-0.2-1.3-0.7-1.3-1.2s-0.3-0.6-0.6-0.4
		c-0.9,0.6-12.4-1-14.1-1.9c-1.1-0.6-3.2-0.5-7.4,0.1c-4.9,0.8-6.4,1.3-9.1,3.6c-1.8,1.5-3.9,4.1-4.7,5.7c-0.8,1.6-2.3,3.2-3.3,3.6
		c-1,0.4-2,1.1-2.3,1.6c-0.3,0.5-1.3,0.7-2.4,0.4c-1.3-0.3-3.8,0.5-8.2,2.6c-3.5,1.7-6.6,3-7,2.9c-0.4-0.1-1.8,0.4-3.2,1.1
		c-1.4,0.7-2.9,1.2-3.4,1c-0.5-0.2-1.7,0.4-2.7,1.3c-1.8,1.6-4,1.8-18.8,1.2c-1.3-0.1-4.1,0.5-6.3,1.2c-3.1,1-4.2,1.1-5.1,0.4
		c-0.7-0.6-1.2-0.6-1.3-0.1c-0.2,0.5-1.3,0.5-3.3,0c-2.2-0.6-5-0.5-10,0.3c-4.8,0.7-8.6,0.8-12.2,0.4c-2.9-0.3-7.2-0.4-9.8-0.2
		c-2.5,0.2-6.4,0.6-8.8,0.7c-2.3,0.2-5.4,0.7-6.8,1.1s-3,0.5-3.4,0.1s-3-0.7-5.7-0.7c-5.1-0.1-12.2-2-12.2-3.2
		c0-0.4,3.8-0.7,8.5-0.7c4.7,0,8.4-0.1,8.2-0.3c-0.7-0.6-16.7-1-16.7-0.5c0,2.1-23.6,2.8-27.3,0.8c-1.3-0.7-1.9-0.7-2.7,0
		c-1.1,0.9-2.6,0.4-2.6-0.8c0-0.4,1.5-1.5,3.2-2.4l3.2-1.7l-4.9-0.4c-4-0.3-5-0.6-5.2-1.8c-0.2-0.9,0.3-1.5,1.3-1.8
		c0.9-0.2,1.6-0.7,1.6-1.1s0.6-0.7,1.4-0.7s1.9-0.5,2.4-1.1c0.8-0.9,0.7-1.1-0.2-1.1c-0.7,0-1.4,0.3-1.7,0.8
		c-0.3,0.4-0.8,0.6-1.2,0.3s-1.2-0.1-1.7,0.3c-0.5,0.4-2.8,1.1-5.1,1.7c-2.3,0.5-4.8,1.1-5.6,1.3c-1.2,0.3-1.4,0.1-1-1.2
		c0.4-1.4,0.2-1.5-1.4-0.9c-1.5,0.6-2,0.4-2.6-0.9c-1.4-2.6,0.5-3.5,10-4.9c5-0.7,4.9-1.4-0.2-0.9c-3.5,0.3-4.4,0.2-4.4-0.7
		c0-0.6-0.4-0.9-0.9-0.6c-0.5,0.3-0.7,0.1-0.5-0.5c0.2-0.6,2.5-1.4,6-1.9c5.1-0.8,13.6-3.2,13.6-3.8c0-0.4-4.6,0.5-8.2,1.7
		c-4,1.3-5.4,1.3-3.7,0.1c1.1-0.8,0.3-0.9-4.4-0.7c-3.7,0.2-6,0.6-6.6,1.3c-1,1.3-3.4,1.4-4.1,0.3c-0.3-0.5-1-0.5-1.9,0
		c-1,0.6-2,0.5-3.2-0.1l-1.7-0.9l1.9-0.7c1-0.4,3.6-0.8,5.7-0.9c15.7-1,38.4-4.8,38.4-6.4c0-0.7,6.8-1.6,7.8-1
		c1.2,0.6-0.4,2.5-2.1,2.5c-1,0-2.6,0.3-3.7,0.7s-3.1,0.8-4.6,0.9c-2.5,0.2-3.2,1.4-0.8,1.4c0.6,0,1.1,0.3,1.1,0.8
		c0,0.4-1.3,0.8-2.9,0.8c-1.6,0-3.9,0.5-5.1,1.1l-2.3,1l2.3,0c1.3,0,3.8-0.3,5.7-0.7c2.8-0.7,3.6-0.6,4.3,0.4c1.2,1.6,2.4,1.5,7-0.7
		c4.5-2.2,6.2-2.4,6.2-0.8c0,0.7-1.3,1.4-3.2,1.8c-3.2,0.7-3.2,0.7,2,0.8c6.7,0.1,6.5,1.4-0.6,3.7c-5.6,1.8-7.6,3-3.8,2.2
		c1.3-0.2,4.8-0.6,7.8-0.9c4.4-0.3,5.5-0.2,5.5,0.6c0,0.8,1.2,1,4.6,1c2.5,0,4.6-0.1,4.6-0.2c0-0.4-7.4-3.7-8.4-3.7
		c-1.9,0-1.5-9.1,0.6-13.5c1-2,2.2-3.8,2.9-4.1c0.8-0.3,0.9-0.7,0.4-1.4c-0.4-0.5-0.5-1.2-0.3-1.4c0.3-0.3,0.1-0.5-0.4-0.5
		c-1.1,0-1.2-2-0.1-2.7c0.4-0.3,1.3,0,2,0.5c1,0.8,1.3,0.8,2.1-0.1c0.6-0.8,2.9-1.2,8.3-1.3c7.7-0.2,12.6-1.5,20.3-5.5
		c1.8-0.9,4.5-1.7,5.9-1.8c1.6,0,3.3-0.8,4.5-1.8c1-1,2.3-1.8,2.9-1.8c2.2,0,5.7-1.7,6-3c0.2-0.8,1.4-1.6,2.9-2l2.5-0.6l-2.5-2.1
		c-3.7-3.1-2.9-8.3,2.1-13.7c1.1-1.2,2.9-3.4,4.1-4.9s2.6-3.2,3.3-3.9c0.7-0.7,1-1.6,0.7-2c-1.3-2.1,4.4-12.7,7.8-14.5
		c2-1.1,2.2-2,0.5-3.8c-1-1.1-1.1-1.9-0.3-5c0.5-2,1.2-5,1.5-6.5c0.3-1.6,1.2-3.5,1.8-4.2s1.6-2.3,2-3.5c0.7-2,1-2.1,3.3-1.6
		c1.4,0.3,3.8,0.6,5.5,0.7c1.7,0.1,3.8,0.4,4.8,0.7c2.5,0.8,2.1-0.5-1.3-3.7c-2.7-2.7-3.5-4.3-4.4-9.6c-0.2-1-0.9-2.8-1.6-4
		c-1.2-2-1.2-2.3,0-4.8c0.7-1.5,2.1-3,3.1-3.4c1-0.4,2.2-1.7,2.7-3c0.5-1.3,1.6-2.5,2.5-2.8c1.2-0.4,1.4-0.9,1-2.5
		c-1.2-5-1.4-6.8-1.4-9.9c0.1-1.8,0.7-4.4,1.5-5.7c1.3-2.2,1.6-8.1,0.3-6c-0.9,1.4-3.9,0.1-4.4-1.9c-0.3-1,0-3.2,0.5-4.8
		c1.1-3.4,0.6-4.6-1.8-4.6c-1,0-2.4-0.7-3.2-1.6c-1.2-1.3-1.3-1.9-0.5-3.9c0.8-2.1,0.7-2.8-0.8-5.5c-1.3-2.3-2.1-3-3.3-2.9
		c-2.8,0.4-3-2.2-0.3-4.6c3.2-2.9,8.1-2.8,5.2,0c-1.4,1.4,0,1.1,3.4-0.9c2.4-1.4,5.4-2,12.5-2.8c7.8-0.8,9.3-1.2,9-2.2
		c-2.1-7.8-3-16.5-1.8-17.3c0.5-0.3,4.6-0.7,9-0.7c4.4-0.1,8.7-0.2,9.5-0.2c1.5-0.1,3,0,11.4,1.2c4,0.5,7.4,1.9,9.9,4.1
		c0.8,0.7,3.6,2.7,6.2,4.5l4.6,3.1l8.7-0.1c11.1-0.1,17.7,1.8,24.1,7.2c1.4,1.2,3.2,2.1,4,2.1s1.7,0.3,1.9,0.7
		c0.2,0.4-0.9,4.9-2.6,10s-3.1,9.7-3.1,10.2s-0.7,1.6-1.5,2.3c-2.2,2-2.7,5.8-1.1,9.8c1.5,4.1,1.2,7.2-1.7,13.6
		c-1.5,3.4-1.8,4.6-1,5.5c0.5,0.6,0.8,2.7,0.8,4.8s0.3,6.8,0.8,10.7c0.9,6.7,1.1,7,2.5,6.2c1.3-0.7,1.5-0.6,1,0.5
		c-0.3,0.7-0.5,1.4-0.5,1.6s-0.5,0.3-1.1,0.3s-1.2,0.4-1.4,1c-0.4,1.2,0.3,6.1,1,7.1c1.6,2,5.2,9.6,6.3,13.3
		c1.8,5.8,2.9,14.6,1.9,15.2c-0.9,0.6-0.2,2.7,2,5.7c4.9,6.8,6.8,15.1,4.7,21.3c-0.8,2.3-1.1,4.8-0.8,7.1l0.4,3.6l8.2,0
		c5.5,0,8.6-0.3,9.4-1c0.8-0.7,1.2-2.6,1.3-6.3c0.1-2.9,0.2-6.1,0.2-7s-0.2-2.8-0.5-4.2c-0.5-2.2-0.4-2.5,1-2.5
		c1.2,0,1.7-0.7,2.1-2.8c0.3-1.7,0.2-3.3-0.3-4.2c-0.5-0.8-0.7-1.9-0.4-2.5c0.2-0.6-0.1-2.1-0.7-3.3c-3.9-7.4-5.4-14.3-3.5-15.8
		c3.2-2.5,3.2-3-0.1-9.9c-1.7-3.6-2.9-7.1-2.7-7.8c0.3-0.7-0.6-3-1.8-5.3c-1.3-2.2-2.3-4.8-2.3-5.7s-0.4-2.3-0.8-3.1s-1-3.1-1.3-5.1
		c-0.5-4.2-0.3-22.4,0.4-24.8c0.5-1.9,0.5-3.5,0.1-16.8c-0.3-9.7-0.4-10-2.8-13.5c-2.4-3.5-3.3-8.1-1.7-8.1c0.4,0,0.1-0.6-0.6-1.4
		s-1.9-2.5-2.5-3.8c-0.6-1.3-1.3-2.4-1.6-2.4c-1,0-0.6-2.8,0.6-3.8c1-0.8,1.5-0.6,3.3,1c1.3,1.3,3,2,4.3,2l2.2,0l-2.2-1.1
		c-1.2-0.6-2.7-1.1-3.2-1.1s-1.1-0.7-1.1-1.5c0-1.6,1.8-2.1,2.7-0.7c0.6,1,2.8,0.6,3.9-0.7c0.5-0.6,2.7-1.2,5.5-1.4
		c2.6-0.2,4.7-0.6,4.7-1c0-0.4,1.1-0.7,2.5-0.7s2.8-0.3,3.2-0.7s1.6-0.9,2.6-1.1c1-0.2,2.8-0.8,3.9-1.3c1.5-0.7,2.4-0.7,3.6-0.1
		c0.9,0.5,2.2,0.8,3.1,0.8s2.3,0.9,3.3,1.9s2.6,1.9,3.5,1.9c1.1,0,1.8,0.6,2.1,1.8c0.4,1.7,0.6,1.8,4,1c2-0.4,3.7-1,3.9-1.2
		c2.4-3,11.8-3.7,16.4-1.3c1.3,0.7,2.6,1.2,3.1,1.2c0.4,0,1.6,0.6,2.6,1.2c1.4,0.9,1.5,1.4,0.8,1.9c-1.3,0.8,1.4,1.9,6.6,2.6
		c4,0.5,9.4-0.9,9.4-2.5c0-0.4,1.8-1.6,4-2.7s5.5-2.8,7.3-3.9c4.5-2.7,6.5-2.1,8,2.5c1.1,3.2,1.1,3.7,0.1,4.8
		c-0.7,0.8-1.9,1.1-3,0.9c-1.4-0.3-2.5,0.3-4.6,2.5c-2.4,2.5-2.7,3.2-2.3,5.6c0.3,1.5,0.5,3.3,0.4,3.9c0,0.6-0.2,5.1-0.4,9.9
		s0,11.6,0.4,15.2c0.9,7.7,0.4,12.2-1.5,12.2c-1.9,0-3.1,1.5-3.1,3.8c0,1.4-0.2,1.6-0.7,0.9c-0.5-0.8-0.8-0.8-1.2-0.1
		c-0.3,0.5-0.2,1.2,0.3,1.5c0.7,0.4,0.6,0.8-0.3,1.5c-1,0.8-1.2,0.8-1.2,0c0-1.4-1.2,0-1.9,2.2c-0.4,1.2-0.3,1.6,0.3,1.3
		c0.6-0.3,0.8,0.5,0.9,2.4c0,2.1,0.2,2.6,0.7,1.8c0.6-0.9,0.8-0.9,1.2,0.4c0.3,0.8,1,2.8,1.6,4.4c1,2.7,1,3.2-0.8,6.8
		c-1.1,2.2-2.6,5-3.4,6.2c-4.1,6.2-4.9,10.8-2.7,15.4c1.4,2.8,1.4,2.8,9.5,1.3c2.2-0.4,5-0.6,7.4-0.4c1.3,0.1,1.9,0.7,2.2,2.4
		c0.2,1.2,0.9,2.7,1.5,3.1c1.1,1,1.5,5.6,0.4,4.9c-0.4-0.2-0.8-0.2-1,0.2c-0.4,0.9-6.9,4.5-9.2,5c-1.2,0.3-2.1,1.1-2.2,1.8
		c-0.1,0.7-0.2,2.5-0.2,4c-0.1,1.5-0.4,3.1-0.7,3.7c-0.3,0.6-0.1,1.3,0.7,1.9c0.7,0.5,1.3,1.8,1.4,2.8c0.1,1.2,1.7,3.3,4.3,5.7
		c2.3,2.1,4.4,4,4.6,4.2s1,0.7,1.8,1c0.9,0.3,1.2,1,0.9,1.8c-0.4,1-0.3,1.1,0.6,0.4c0.8-0.7,1.4-0.2,2.6,2c1.8,3.2,4.4,6.1,7,7.8
		c0.9,0.6,2.2,1.6,2.7,2.1c0.5,0.5,1.2,1,1.5,1c1.1,0,10.3,9.9,10.4,11.2c0,0.8-0.2,2.6-0.5,4.2c-0.5,2.7-0.5,2.8,2,3.3
		c1.4,0.3,3,0.9,3.5,1.3c0.5,0.4,1.6,0.6,2.4,0.4c0.8-0.2,4-0.1,7,0.2c5.3,0.6,5.8,0.5,10.4-1.7c2.7-1.3,5.3-2.1,5.9-1.9
		c0.7,0.3,0.9,0,0.6-0.7c-0.3-0.8,0.2-1.1,1.9-1.1c2.2,0,2.3,0.1,2.1,2.8c-0.3,3.5-2.1,4.8-6.7,4.8c-2.5,0-4,0.4-5,1.4
		c-0.7,0.8-2,1.6-2.8,1.9c-1.1,0.4-1.2,0.7-0.6,1.4c0.5,0.5,0.9,1.2,0.9,1.7c0,0.7-5.1,3.1-9.3,4.5c-0.9,0.3-1.3,1.2-1.3,2.6
		c0,2.3-3.7,7-5.5,7.1c-0.5,0-2.3,1-4,2.3c-2.9,2.2-7.3,3.1-7.3,1.5c0-0.4-2-0.7-4.8-0.6c-4.3,0.2-5,0.4-7.2,2.9
		c-1.4,1.5-2.5,2.9-2.5,3.2c0,0.3-0.5,0.6-1.2,0.6s-1.1,0.3-1.1,0.6c0,0.4-2.5,1.6-5.5,2.8c-3,1.2-6.8,3-8.3,4c-2.2,1.5-4,2-8.7,2.2
		c-3.2,0.2-6.4,0.6-7.1,1c-1,0.5-0.7,0.7,1,0.6c1.7-0.1,2.3,0.2,2.5,1.3c0.2,0.8-0.2,1.7-0.7,2.1c-1.5,0.9-4.5,0.8-4.5-0.2
		c0-0.6-1.1-0.7-3.5-0.4c-5.5,0.7-9.4,2.1-9.4,3.3c0,0.9-2.3,1-14.1,0.8c-9.3-0.2-14.2,0-14.3,0.5
		C5550,1707.6,5531.5,1708.5,5530.7,1707.7L5530.7,1707.7z M5545.2,1701.1c0-1.3-0.3-2.1-0.7-1.9c-0.6,0.4-0.3,4.2,0.4,4.2
		C5545.1,1703.4,5545.2,1702.4,5545.2,1701.1z M5543.1,1701.4c-0.5-0.2-1.4-0.2-1.9,0s-0.1,0.4,1,0.4S5543.6,1701.6,5543.1,1701.4
		L5543.1,1701.4z M5556.4,1701.4c-0.3-0.3-0.9-0.3-1.5-0.1c-0.6,0.2-0.4,0.4,0.5,0.5C5556.2,1701.9,5556.7,1701.7,5556.4,1701.4
		L5556.4,1701.4z M5583.2,1699.6c2.3-0.3,3.4-0.6,2.4-0.7c-1.5-0.1-1.6-0.3-0.9-1.6c0.6-1.2,0.6-1.5-0.4-1.5c-0.6,0-1.2,0.3-1.2,0.6
		c0,1.1-4.5,3.2-4.8,2.2c-0.2-0.6-0.9-0.5-2.2,0.4c-1,0.7-2.5,1.4-3.4,1.7C5571.5,1701.1,5575.2,1700.7,5583.2,1699.6z
		 M5537.3,1698.7c-0.2-0.6-0.4-0.4-0.5,0.5c0,0.8,0.1,1.3,0.4,1S5537.6,1699.3,5537.3,1698.7z M5573.4,1698.8c2.8-1.5,1.4-2-5.8-2.1
		c-4-0.1-7.5-0.1-7.8-0.2c-1.5-0.2-2.5,0.2-2.1,0.8c0.2,0.4,0.9,0.6,1.4,0.3s1.8,0.3,2.8,1.2c1.5,1.3,2.5,1.5,5.9,1.2
		C5570.2,1699.8,5572.6,1699.2,5573.4,1698.8L5573.4,1698.8z M5276.5,1696.8c0.2-0.2-0.6-0.3-1.7-0.3c-1.3,0-2-0.4-2-1.1
		c0-0.6-0.2-1.1-0.4-1.1c-1,0-5.7,2.6-5.7,3.2C5266.6,1698,5275.8,1697.4,5276.5,1696.8L5276.5,1696.8z M5488,1697.4
		c0.8-0.5,0.8-0.7-0.2-1.1c-1.6-0.6-5.8,0.3-5.3,1.1C5483,1698.3,5486.6,1698.3,5488,1697.4L5488,1697.4z M5531.1,1697.4
		c0.2-0.4-0.3-0.5-1.1-0.3c-1.8,0.5-2,1-0.4,1C5530.1,1698.1,5530.8,1697.8,5531.1,1697.4L5531.1,1697.4z M5555.4,1697.6
		c0.7-0.3,1.2-0.9,1.2-1.5c0-0.6,0.3-1.1,0.7-1.1s0.9-0.5,1.1-1.1c0.3-0.8-0.2-1-2-0.8c-3.4,0.3-3.3,0.3-2.1,1.1
		c0.9,0.6,0.9,0.9,0.2,1.7C5552.8,1697.6,5553.3,1698.4,5555.4,1697.6z M5590.1,1696.9c0-0.7-0.3-1-0.8-0.7
		c-0.4,0.3-0.6,0.8-0.3,1.2C5589.6,1698.4,5590.1,1698.2,5590.1,1696.9z M5550.5,1695.7c0-0.4-0.3-0.5-0.8-0.3
		c-0.4,0.3-0.8,0.8-0.8,1.2s0.3,0.5,0.8,0.3C5550.2,1696.7,5550.5,1696.1,5550.5,1695.7z M5598.4,1695c-1.5-0.4-6,1-6,1.8
		c0,0.1,1.8-0.1,3.9-0.6C5599.5,1695.6,5599.9,1695.4,5598.4,1695L5598.4,1695z M5505.8,1696.1c-0.5-0.2-1.5-0.2-2.3,0
		c-0.7,0.2-0.3,0.4,0.9,0.4C5505.7,1696.4,5506.3,1696.3,5505.8,1696.1L5505.8,1696.1z M5289.7,1694.9c-2.6-0.5-4.7-0.5-6.1,0
		c-1.7,0.6-0.9,0.8,4,0.7l6.1,0L5289.7,1694.9L5289.7,1694.9z M5567.2,1694.7c1.5,0,2.8-0.4,2.9-0.9c0.2-0.6-1.3-0.8-4.8-0.7
		c-3.6,0.1-5.2,0.4-5.5,1.2c-0.2,0.7,0.1,0.9,0.9,0.6c0.7-0.3,1.4-0.1,1.7,0.3c0.3,0.4,0.8,0.5,1.3,0.2
		C5564.1,1695,5565.7,1694.8,5567.2,1694.7L5567.2,1694.7z M5576.3,1694.9c2.1,0,4.5-0.5,5.2-1.1c1.6-1.2,0.1-1.4-2.1-0.3
		c-1,0.5-1.5,0.5-1.5,0c0-0.4-0.9-0.8-2-0.8c-2.3,0-4.9,1.2-4.9,2.4c0,0.4,0.3,0.6,0.7,0.3C5572.2,1695.2,5574.2,1695,5576.3,1694.9
		L5576.3,1694.9z M5353.6,1694.5c-0.5-0.2-1.4-0.2-1.9,0c-0.5,0.2-0.1,0.4,1,0.4S5354.1,1694.8,5353.6,1694.5L5353.6,1694.5z
		 M5371.4,1694.4c-0.2-0.4-1.9-0.9-3.7-1.1c-1.8-0.2-4.6-0.7-6.3-1c-1.7-0.3-2.8-0.2-2.4,0.1c0.3,0.4,3.2,1.1,6.5,1.5s6,0.9,6.1,1
		C5371.7,1695,5371.6,1694.7,5371.4,1694.4L5371.4,1694.4z M5410,1692.6c3.6-1.3,4.2-1.7,3-2.2c-0.8-0.3-4-0.1-7,0.5
		c-4,0.8-7.1,0.9-11.3,0.4c-3.2-0.4-8.2-0.9-11.1-1.2c-2.9-0.3-6-0.8-7-1.1c-0.9-0.4-3.9-1.1-6.6-1.5c-2.7-0.5-5.7-1.3-6.7-1.9
		c-1-0.6-4.4-1.8-7.4-2.7c-4.1-1.2-5.6-2.1-6-3.3c-0.3-0.9-1.2-2.4-2.1-3.4c-1.2-1.3-1.3-1.6-0.4-1.3c0.8,0.3,1.5-0.1,2.1-1.1
		c0.8-1.4,1.3-1.5,4.5-0.9c0.2,0-0.1,0.5-0.5,1c-0.4,0.5-0.9,2.2-1,3.6c-0.2,2.4-0.1,2.7,1.8,2.9c2,0.2,2.1,0.1,1.8-2.5
		c-0.3-2.1-0.1-2.7,0.8-2.7c0.9,0,1.1,0.7,0.9,3c-0.3,2.9-0.2,3,1.8,3c1.9,0,2.1-0.2,1.6-1.9c-0.3-1.1-0.2-1.9,0.3-1.9
		c0.4,0,0.9,0.9,1,2.1c0.2,1.5,0.7,2.2,2,2.3c1.7,0.2,1.8,0.1,1.2-2.9c-0.4-2.5-0.3-3.1,0.5-2.9c0.6,0.2,1.1,1.7,1.3,3.3
		c0.2,2.7,1.1,4.1,2.6,4.1c0.3,0,0.6-1.2,0.6-2.7c0-3.6,1.4-3.4,1.7,0.2c0.2,2.5,0.5,2.9,2.4,3.1c2.1,0.2,2.1,0.2,1.6-3.2
		c-0.3-2.2-0.2-3.5,0.2-3.5c0.9,0,1.9,4.7,1.3,6.3c-0.3,0.7,0.1,1.3,1.1,1.6c1.4,0.4,1.6,0.1,1.6-3.8c0-3,0.3-4.1,0.9-3.9
		c1.1,0.4,1.5,4.2,0.5,4.8c-1.3,0.8,0.8,3.4,2.7,3.4c1.6,0,1.9-0.4,1.9-2.2c0-1.2-0.3-3.1-0.7-4.2c-0.4-1.1-0.4-2.1-0.1-2.3
		c1.1-0.7,1.8,1.1,1.8,5.4c0.1,3.7,0.2,4.1,1.7,4.1c1.6,0,1.7-0.3,1.5-5.3c-0.1-3.3,0.2-5.2,0.6-5.1c0.4,0.2,0.7,2.5,0.6,5.3
		c-0.2,4.9-0.1,5.1,1.7,5.1c1.9,0,1.9-0.1,1.7-6.1c-0.2-4.8,0-6.1,0.8-6.1c0.8,0,1,1.2,0.7,6l-0.3,6l2.2,0.4
		c3.8,0.8,5.9,0.5,5.9-0.6c0-0.6-0.3-1.3-0.8-1.6s-0.8,0.1-0.8,0.7c0,0.7-0.5,1.2-1.1,1.2s-1.1-0.7-1.1-1.5c0-0.8-0.4-1.6-1-1.8
		c-0.8-0.3-0.8-0.7,0-2c0.5-0.9,1-2.3,1-3.2c0-1.2-0.3-1.5-1.5-1.1c-1.4,0.4-1.5,0.1-1.5-2.6c0-2.8-0.2-3.2-3-4.6
		c-2.9-1.5-4-3.1-2.1-3c0.5,0,1.8,0.5,2.9,1.1c2.2,1.3,4.9,1.5,4.2,0.4c-0.3-0.4-1.2-0.8-2.1-0.8c-1.5,0-1.4-0.1,0.5-2
		c1.5-1.4,2.6-1.8,3.9-1.5c2.4,0.6,2.3-0.6-0.1-1.7c-1.1-0.5-1.7-1.2-1.5-1.6c0.8-1.3,2.6-0.9,3.4,0.8c0.6,1.1,1.6,1.5,3.5,1.5
		c2.6,0,3.5,0.9,1.8,1.9c-1.7,1-2.3,4.3-1.3,6.9c1,2.7,2.6,3.6,1.9,1c-0.2-0.8-0.1-1.5,0.3-1.5c0.4,0,0.7,0.3,0.8,0.8
		c0.1,0.4,0.2,1.1,0.3,1.5s0.2,1.3,0.3,1.9c0.2,2.2,1.2,1.1,1.4-1.5c0.1-1.5,0.2-3.3,0.3-4s-0.1-3-0.4-4.9c-0.4-2.3-0.3-3.6,0.2-3.6
		c0.4,0,1,1.4,1.2,3c0.3,1.9,0.9,3,1.6,3c0.6,0,1.3,0.4,1.5,1c0.5,1.1,0-2.8-0.8-5.8c-0.3-1.2-0.2-2,0.3-2c0.9,0,1.4,1.4,2.1,6.3
		c0.4,3.2,0.7,3.5,1.9,2.9c1.1-0.6,1.3-1.2,0.7-3.6c-0.9-3.9-0.9-7.8,0.1-7.8c0.6,0,1,1.3,0.9,3c0,0.2,0.4,2.3,0.9,4.6
		c0.7,2.9,1.3,4.3,2.3,4.4c1.2,0.2,1.3-0.2,0.8-3.8c-0.3-2.2-0.9-5.4-1.3-6.9c-0.5-1.6-0.6-3.1-0.3-3.4c0.8-0.8,1.1-0.1,2.2,6.4
		c0.6,3.5,1.3,6.5,1.6,6.8c1.4,1.4,1.6-1.8,0.5-9.2c-1.1-7.3-1.4-8.4-2.9-9.1c-1.8-0.8-6.4-6.9-5.7-7.6c0.9-0.9,2.6,0.6,3.6,3
		c0.6,1.4,2.1,3.1,3.3,3.7s2.4,1.6,2.7,2.1c0.2,0.6,0.4,0.5,0.4-0.3c0.1-2.6-1.6-5.5-5.4-9c-2.1-2-3.6-3.8-3.2-4c1-0.6,6.8,5,8.4,8
		c0.7,1.4,1.4,2,1.6,1.5c0.3-1-5.6-10.6-7.7-12.3c-0.9-0.8-1-1.3-0.4-2.1c0.6-0.8,0.5-1.3-0.4-2.2c-1.4-1.4-1.5-2.3-0.4-3
		c1-0.6,8.6,7,8,8c-0.5,0.8-4.2-0.6-4.2-1.6c0-0.4-0.3-0.6-0.8-0.6s0.8,2.4,2.8,5.3s3.8,5.3,4,5.3s1.3-1.8,2.3-4s1.9-3.6,2.1-3.2
		c0.2,0.4-0.9,3.4-2.3,6.5c-2.5,5.5-3,7-3.9,13.3l-0.4,3l1.9-3.4c1-1.9,1.9-4.6,1.9-5.9c0-1.4,0.4-2.3,0.8-2.1
		c1,0.6,2.7-2.2,4.3-7.3l1.4-4.3l7.6-2.4c4.2-1.3,8.2-2.4,8.9-2.4c0.7,0,1.5-0.4,1.8-0.8c0.3-0.5,1.3-0.6,2.3-0.4c1.3,0.3,2,0,2.6-1
		c1.2-2.2,1-2.3-1.3-1.6c-7.8,2.5-19.5,5.4-20.6,5.1c-1.7-0.4-1.1-0.6,10.1-3.7c5-1.4,9.8-3.1,10.6-3.9c2-1.9,1-1.8-8.3,0.5
		c-8.8,2.2-8,2.1-8,1.3c0-0.8,4.4-2.1,11-3.2c2.9-0.5,6-1.3,6.9-1.9c0.9-0.5,3.3-3.6,5.3-6.8c2-3.2,4.1-5.8,4.6-5.8s1.5-1.4,2.2-3
		c0.8-1.7,1.7-3,2-3s0.6-0.7,0.6-1.6c0-1.5-0.1-1.6-1.4-0.4c-0.8,0.7-2.1,2.6-2.9,4.3c-0.9,2-2.1,3.2-3.4,3.5c-1,0.3-2.4,0.9-3,1.4
		c-2.2,1.8-14.9,6.7-17.1,6.7c-5.6-0.2-9.5-0.6-9.5-1.1c0-0.7,2.1-1.4,4.4-1.4c1.1,0,2.7-0.5,3.5-1.1c1.9-1.5,4-1.4,4.8,0.1
		c0.6,1.1,1.1,1,4.6-0.4c9.8-3.9,15.2-7.6,15.3-10.7c0-0.6,0.9-1.9,1.9-2.9s1.7-2.1,1.5-2.5c-0.2-0.4,0-0.7,0.6-0.7
		c0.5,0,2-1.4,3.2-3.2c1.2-1.7,1.9-2.9,1.4-2.6c-0.5,0.3-1.1,0.2-1.3-0.2c-0.7-1.1-3.7-0.7-5.7,0.9c-1,0.8-3.7,3.1-5.8,5.2
		c-2.2,2.1-4.4,3.7-4.9,3.7s0.9-1.7,3.2-3.9c9.8-9.2,15.4-14,16.1-13.8c1.4,0.4,3.6-1.4,3.2-2.5c-0.6-1.6-1.8-1.4-4.2,0.6
		c-1.1,0.9-3.2,2.6-4.6,3.6s-3.2,2.6-4.1,3.5c-3.7,3.6-8.9,7.5-8.5,6.3c0.6-1.5-1.1-2.4-2.3-1.3c-0.5,0.5-1.1,0.3-1.6-0.8
		c-0.5-0.9-0.6-1.6-0.1-1.6c0.4,0,0.9,0.4,1.1,1c0.2,0.5,0.6,0.7,0.9,0.4c0.3-0.3-0.2-1.5-1-2.8c-1.8-2.5-2-3.2-0.9-3.2
		c0.4,0,1.3,1.2,2,2.7c2.1,4.4,3.1,4.3,9.1-0.8c2.1-1.7,2.2-2,1-2.9c-1.5-1.2-2.1-4.5-0.8-4.9c0.5-0.2,1,0.6,1.1,1.8
		c0.4,3.1,2.5,3.2,4.1,0.2c1.2-2.3,1.2-2.4-0.2-2.1c-1.2,0.3-1.4,0-1.1-1.9c0.2-1.5,1.9-3.8,5.1-6.9c4.8-4.7,7-8.1,4.4-6.6
		c-0.7,0.4-3.5,3-6.2,5.8c-2.7,2.8-5.2,4.9-5.7,4.7s0.4-1.5,1.9-3.1c2.7-2.7,2.6-3.1-0.2-2.8c-2.1,0.2-2.5-2.9-0.7-4.8
		c0.9-1,1.4-2.2,1.1-2.9c-0.3-0.8,0.4-2.1,1.9-3.6c2.2-2.1,2.3-2.4,1.2-3.5c-0.6-0.7-1.2-1.7-1.2-2.3c0-0.6-0.5-1.1-1.2-1.1
		c-0.9,0-1.1-0.5-0.7-2.3c0.5-2.4-0.5-3.2-1.7-1.3c-0.9,1.5-3.9,2.9-4.4,2.1c-0.2-0.4,1.5-1.7,3.9-2.9c6.7-3.4,12.7-10.1,11.2-12.5
		c-0.2-0.4,0.3-1.8,1.3-3.1c1.9-2.6,2.9-10,1.6-10.8c-0.4-0.3-1.8,0.4-2.9,1.5l-2.1,2l2.1-0.4l2.1-0.4l-2,3
		c-1.1,1.7-2.4,3.1-2.8,3.1c-1.2,0-4.2,2.7-4.2,3.7c0,0.5-0.5,0.8-1.1,0.8c-1.8,0-1.3-2.2,0.7-3.2c1.2-0.5,1.7-1.2,1.4-2
		c-0.3-0.7,0.2-1.6,1-2.2c0.8-0.6,1.2-1.3,0.9-1.5s0.1-1,0.8-1.6c1.2-1,1.1-1-1-0.6c-1.3,0.3-2.9,0.6-3.6,0.9s-1.3,0.1-1.3-0.3
		c0-1.5,2.1-2.4,4.4-2c2.7,0.5,7.1-1.4,7.1-3.1c0-1.4-1.1-1.4-2.3,0c-0.5,0.6-1.8,1.1-2.8,1.1s-1.8,0.4-1.8,1c0,0.7-0.1,0.7-0.6,0
		c-0.4-0.6-1-0.7-1.7-0.2c-0.6,0.4-1.8,0.7-2.6,0.7c-1.5,0-1.5,0,0-1.2c1.2-1,1.2-1.1,0.2-0.8c-2.2,0.8-2.4-1-0.2-2.9
		c1.1-1,1.7-1.9,1.2-1.9c-1.4,0-0.9-1.5,0.5-1.6c0.8,0,0.9-0.2,0.4-0.4c-0.5-0.2-1-0.7-1-1c0-0.9,4.3-2.5,5.5-2.1
		c0.6,0.3,0.5,0.4-0.3,0.5c-1.9,0.1-1.7,1.1,0.4,2c1.4,0.6,2.3,0.4,5.2-1.5c3.4-2.2,3.6-2.5,6.5-11.6c2.6-8,2.9-9.4,1.8-9.4
		c-0.7,0-2.8-1-4.7-2.2s-6.1-3.1-9.5-4.1c-5.2-1.6-7.6-1.9-17.1-1.9c-6.1,0-12.9-0.4-15.1-0.8c-5.6-1.1-6.4-0.4-6,5.6
		c0.2,3.2-0.2,7.1-1.5,12.6c-2.1,9.4-2.1,16.9,0.1,17.2c2.2,0.3,2.4,1.1,0.5,1.6c-1.6,0.4-1.7,0.8-1.3,3.9c0.3,1.9,0.2,3.8-0.2,4.3
		s-1.2,3.2-1.8,6.2s-1.7,6.6-2.3,8.2c-1,2.4-1.1,4.9-0.8,14.5c0.4,11.7,0.4,11.7-1.4,13.5c-1,1-2.6,2.9-3.5,4.2l-1.6,2.4l1.9,1.2
		c1,0.7,2.2,1.2,2.5,1.2c1.4,0,4.9,4.5,4.5,5.7c-0.6,1.5-3,0.7-7.8-2.6c-4.8-3.2-18.3-5.1-19.1-2.7c-0.1,0.5,2,0.8,5.3,0.9
		c6.5,0.1,15.6,3.4,18,6.5c1.3,1.7,1.4,2.1,0.5,3.4c-1,1.4-1.1,1.4-2.6-0.4c-0.9-1-1.6-2-1.6-2.3c0-0.6-7.2-4.6-8.3-4.6
		c-0.5,0-0.8,0.5-0.8,1c0,0.6-0.7,1.7-1.6,2.5c-1.9,1.7-3.8,5.3-3.2,5.9c0.2,0.2,1.1,0.1,1.8-0.3c2-1.1,6.7,1.4,6.8,3.6
		c0,0.9-0.6,1.8-1.3,2c-1,0.3-1,0.4,0.3,0.4c1.6,0.1,4.8-3.3,4.8-5.2c0-1.3,1.3-1,1.8,0.4c0.9,2.4-3.4,6.3-6.9,6.4
		c-1.7,0-2.6-0.4-2.9-1.3c-0.2-0.7-1.5-1.7-2.7-2.2c-2.1-0.8-2.5-0.7-4.8,1.5c-1.4,1.3-3.5,3.1-4.6,3.9l-2.1,1.5l2.1,0.6
		c1.2,0.3,3.3,0.1,5.1-0.5c2.7-0.9,3.1-0.9,4.4,0.3c1,1,1.7,1.2,2.7,0.6c2.1-1.2,2.2-0.1,0.1,1.3c-1.1,0.7-2,1.7-2,2.1
		c0,1.7-2.6,3.6-5.1,3.6c-1.4,0-2.5-0.3-2.5-0.8c0-1.2-5-0.9-8.4,0.6c-3.3,1.4-4.1,3.2-1.3,3.3c3,0,7,4.4,4.2,4.6
		c-0.8,0-0.8,0.1,0,0.4c1.3,0.5,3.5-1.8,3-3.2c-0.2-0.6-1.1-1.1-2-1.1c-1.8,0-2.1-1.4-0.5-2c1.7-0.6,4.2,1.1,4.7,3.2
		c0.4,1.6,0,2.5-2.2,4.6c-2.6,2.6-2.7,2.7-4.7,1.4c-1.1-0.7-2-1.8-2-2.4c0-1.5-3-1.3-6.4,0.5c-3.2,1.7-4.3,1.4-2.9-0.8
		c0.5-0.8,0.8-1.5,0.5-1.5c-1,0-3.3,3-3.7,4.9l-0.5,2.1l2.7-1.6c3.1-1.8,3.4-1.9,3.4-0.9c0,0.4-2.3,1.9-5.1,3.4
		c-2.8,1.5-4.9,2.7-4.5,2.7c0.3,0,2-0.7,3.6-1.5c1.7-0.8,3-1.2,3-0.7c0,0.4-0.9,1.1-1.9,1.5c-2.5,1-2.4,1.7,0.2,1.1
		c2-0.4,2-0.4,0.6,0.7c-0.8,0.7-1.8,1.2-2.1,1.2s-0.6,0.3-0.6,0.6c0,0.7,1,0.8,4.9,0.9c1.3,0,2.8,0.7,3.4,1.5c1.5,2,3.9,0.8,2.6-1.3
		c-0.6-0.9-1.8-1.4-4-1.4c-1.7,0-3.1-0.2-3.1-0.5c0-1.2,8.9-2.1,10.6-1.1c1.3,0.8-0.6,4.8-3,6.6c-1.9,1.3-2.9,1.5-7.1,1
		c-2.7-0.3-5.7-0.3-6.8,0c-2.2,0.6-2.5,2.8-0.3,2.8c1.5,0,1.5,0,0.1,1c-1.3,1-1.2,1.1,1.3,1.5c4.4,0.8,19.8,5.8,21.7,7
		c1,0.6,1.5,1.4,1.3,1.8s-0.7,0.6-1.1,0.3s-0.5,0.3-0.2,1.1s0.7,1.7,1.1,1.9c1.2,0.7,0.7,1.8-0.9,1.8c-0.8,0-1.5-0.4-1.5-1
		c0-1-2-1.9-8.4-4.1c-6-2-14-4.9-16.7-6c-2.3-0.9-3.2-0.9-6.5,0l-3.8,1.1l4.7-0.1c2.6,0,5,0.2,5.3,0.5c0.3,0.3-1.7,0.6-4.4,0.6
		c-5,0.1-5.1,0.2-1.1,1.1c2,0.5,2.1,0.6,0.8,1.1c-1.2,0.4-0.6,0.8,2.8,1.8c2.4,0.7,5.2,1.3,6.2,1.3c2.7,0,4.3,0.7,4.3,2
		c0,0.8-0.3,0.9-1.5,0.3c-0.8-0.4-2.3-0.8-3.2-0.8c-1.4,0-1.5,0.2-0.6,0.7c0.6,0.4,1.8,0.7,2.5,0.7c1.5,0,5.9,3,5.9,4
		c0,1.1-1.5,0.7-3.2-0.9c-0.9-0.8-2.3-1.5-3.2-1.5c-1.5,0-1.5,0.1-0.2,1.1c2.5,1.9,0.1,1.9-3.7,0.1c-5.3-2.5-11.5-3.5-28-4.2
		c-7.9-0.4-14.5-0.8-14.7-1c-0.6-0.6-8.9,2.4-9.8,3.5c-0.4,0.5-2.6,1.7-4.9,2.6c-3.2,1.2-3.7,1.7-2.3,1.7c1,0.1,2.4,0.2,3,0.4
		c0.6,0.1,3.6,0.7,6.6,1.3c5.6,1.1,9.8,3.1,9,4.4c-0.6,1-2.6,0.9-2.6-0.1c0-1.1-3.1-2.2-10.3-3.5c-6.7-1.3-11-1.4-12.2-0.2
		c-0.4,0.4-1.3,0.7-2.1,0.7s-1.4,0.3-1.4,0.6c0,0.4-0.9,1-2,1.6c-3.4,1.5-1.5,1.7,2.1,0.2c2.5-1.1,3.8-1.3,5.2-0.7
		c1,0.4,5,1.4,8.9,2.1c7.3,1.5,10.4,2.6,9.8,3.7c-0.2,0.4-3.4-0.2-7.1-1.2c-7.2-2-11.3-2.4-5.3-0.6c2,0.6,3.6,1.5,3.6,1.9
		c0,0.5-0.6,0.6-1.3,0.3c-0.7-0.3-2.4-0.9-3.8-1.3s-2.8-1.4-3.3-2.3c-0.6-1.2-1.3-1.4-2.9-1c-3.6,0.9-3.5,2.3,0.3,2.7
		c4,0.4,4.6,2,0.6,1.7c-1.7-0.2-2.5,0.1-2.2,0.6c0.3,0.4,1.1,0.8,1.9,0.8s1.5,0.4,1.7,0.9c0.2,0.5,1.8,0.8,4.1,0.8
		c3.9-0.1,7.1,1,4.9,1.7c-0.6,0.2-2.7,0.7-4.5,1.1l-3.4,0.7l4.7,0.6c5.7,0.7,7,1.4,5.7,2.9c-0.8,0.9,0,1.4,4.8,3.2
		c3.1,1.1,5.7,2.4,5.7,2.8c0,0.4-0.6,0.5-1.3,0.2c-2.6-1.1-9.6-3.4-10-3.4c-1,0,2.5,1.7,6.6,3.1c6.2,2.2,15.4,3.7,19.2,3.2
		c1.8-0.2,3.5-0.1,3.7,0.3c0.6,0.8,15.1,3.4,18.9,3.3c1.3,0,2.7,0.4,3,0.8C5385.2,1695.9,5404.7,1694.5,5410,1692.6L5410,1692.6z
		 M5406.7,1692.1c0-0.4,0.7-0.8,1.5-0.8s2.1-0.2,2.9-0.4c1.1-0.3,1.2-0.3,0.3,0.3C5409.2,1692.4,5406.7,1692.9,5406.7,1692.1
		L5406.7,1692.1z M5342.5,1676.8c-0.4-1.5-2.1-2.2-2.1-0.8c0,0.4-0.3,0.8-0.8,0.8c-1,0-1-2.8-0.1-3.4c1.4-0.9,4.4,1,4.8,2.9
		C5344.9,1678.7,5343.1,1679.1,5342.5,1676.8L5342.5,1676.8z M5349.2,1664.3c-3.3-1.3-7.8-2.9-9.9-3.5c-4.9-1.3-6.4-2.6-2.3-1.9
		c4.4,0.7,21.7,6.6,21.7,7.3C5358.7,1667.4,5355.4,1666.8,5349.2,1664.3z M5355.6,1661.9c-1.1-0.6-4.1-1.6-6.5-2.2
		c-5-1.2-7.8-2.4-7.8-3.6c0-1,0.5-0.9,2.5,0.3c0.9,0.6,3.1,1.3,4.7,1.5c3,0.5,3,0.4,1.1-0.6c-2.4-1.4-2.2-1.4,3.8-0.1
		c14.9,3.2,18.5,4.3,17.3,5.5c-0.3,0.3-4.3-0.6-9-1.9c-4.7-1.3-8.9-2.3-9.4-2.1s0.8,0.8,2.9,1.4s3.9,1.5,4.1,2
		C5359.7,1663.4,5358.1,1663.3,5355.6,1661.9L5355.6,1661.9z M5378.9,1660.7c-1.3-0.3-6.1-1.5-10.7-2.6c-4.6-1.1-8.9-2.5-9.5-3.1
		c-1-1-0.9-1.1,0.8-0.4c1,0.4,5.3,1.3,9.5,2c9.6,1.6,13.3,2.5,13.3,3.4C5382.3,1661.1,5381.3,1661.4,5378.9,1660.7L5378.9,1660.7z
		 M5428.6,1630.6c-2-1.5-3.4-3.1-3.2-3.4c0.5-0.8,2.2,0.2,6,3.5C5435.5,1634.3,5433.2,1634.2,5428.6,1630.6L5428.6,1630.6z
		 M5432.4,1628.3c-1.9-1.2-3.3-3.1-2.6-3.7c0.1-0.1,0.9,0.3,1.7,1.1c0.8,0.7,2.1,1.6,2.8,1.9s1.3,0.9,1.3,1.3
		C5435.6,1629.9,5434.8,1629.8,5432.4,1628.3L5432.4,1628.3z M5432.7,1623.8c-3.1-1.4-2.6-2.2,0.9-1.5c3,0.6,5.5,2.8,3.1,2.7
		C5435.9,1624.9,5434.1,1624.4,5432.7,1623.8z M5439.5,1620.1c-1.7-0.6-2.3-1.1-1.6-1.5c1.1-0.7,6.9,1,6.9,2
		C5444.7,1621.4,5442.7,1621.2,5439.5,1620.1z M5427.2,1614c-0.8-0.9-0.8-1.4-0.1-2.1c0.5-0.5,0.9-2.2,0.9-3.8s0.3-2.9,0.7-2.9
		c0.6,0,1.3,2.9,1.8,7.6C5430.7,1615.1,5428.7,1615.8,5427.2,1614L5427.2,1614z M5438,1610.8c-1.4-1.5-1.8-3.9-1.2-8.5
		c0.7-6,2.3-5.2,2.8,1.5C5440.1,1610.3,5439.6,1612.5,5438,1610.8z M5438.4,1605.1c-0.2-0.5-0.4-0.1-0.4,1c0,1,0.2,1.5,0.4,1
		S5438.6,1605.6,5438.4,1605.1z M5444,1607.6c-1-1.9-1-6.7,0-7.3c0.5-0.3,0.8,0.8,0.8,2.8c0,1.8,0.4,3.7,0.8,4.1
		c0.6,0.6,0.6,1,0,1.3C5445.2,1608.9,5444.5,1608.4,5444,1607.6z M5432.6,1606.6c0-2.9,0.9-5.2,2-5.2c1.2,0,1.4,1.2,0.3,1.9
		c-0.4,0.3-0.8,1.3-0.8,2.3c0,1-0.3,2-0.8,2.3C5432.9,1608.2,5432.6,1607.6,5432.6,1606.6z M5441.9,1607.4c-1.3-1.6-1.9-5.8-1-7.2
		c0.6-1.1,0.8-0.8,0.8,1.5c0,1.6,0.4,3.6,0.8,4.4C5443.5,1607.9,5443,1608.8,5441.9,1607.4L5441.9,1607.4z M5466.8,1606
		c0-0.6,2.4-3,5.3-5.3c2.9-2.3,5.4-4.7,5.6-5.4c0.3-1.2,4.4-2.5,4.4-1.4c0,0.3-1.2,1.3-2.7,2.2c-1.5,0.9-2.5,1.9-2.2,2.4
		c0.3,0.4,0,0.8-0.6,0.8c-1,0-2.3,1-7.2,5.6C5467.7,1606.2,5466.8,1606.7,5466.8,1606L5466.8,1606z M5447.8,1604.1
		c-1.6-4.1-1.8-5.9-0.7-5.5c0.6,0.2,1.2,1.3,1.3,2.6c0.1,1.2,0.6,2.5,1,2.9c0.9,1,0.9,1.9-0.1,1.9
		C5448.9,1606,5448.2,1605.1,5447.8,1604.1z M5450.5,1600.7c-1.6-3.1-1.4-4.6,0.3-2.4l1.4,1.9l-0.4-2c-0.2-1.2-0.1-2,0.5-2
		c0.5,0,0.8,0.7,0.8,1.5c0,0.8,0.3,1.7,0.8,1.9c0.4,0.3,0.8,1.1,0.8,1.9C5454.6,1603.8,5451.8,1603.3,5450.5,1600.7L5450.5,1600.7z
		 M5454.7,1597.9c-1.6-2-1.8-4.4-0.5-4.4c0.4,0,1,1,1.3,2.2c0.3,1.2,1,2.5,1.5,2.8c0.6,0.4,0.6,0.7,0.1,1
		C5456.6,1599.7,5455.6,1599,5454.7,1597.9L5454.7,1597.9z M5457.5,1596.6c-0.7-1-0.9-2.2-0.6-2.7c0.4-0.7,1-0.2,1.8,1.5
		c1.4,2.9,1.5,3,0.6,3C5458.9,1598.4,5458.1,1597.6,5457.5,1596.6z M5468.7,1589.1c-1.9-1.7-2-1.9-1-3.7l1-1.9l0.2,2.3
		c0.1,1.3,0.8,2.7,1.5,3.2c0.7,0.5,1,1.1,0.8,1.4S5469.9,1590,5468.7,1589.1L5468.7,1589.1z M5485.1,1583.6c0-0.2,0.5-0.7,1.2-1.2
		c1-0.8,1.1-0.8,0.7,0.3C5486.5,1583.7,5485.1,1584.5,5485.1,1583.6L5485.1,1583.6z M5444.4,1572c-1.3-0.7-2.6-1.8-3-2.4
		c-1.2-1.9-0.5-5.7,1.3-7.2c1.5-1.3,1.7-1.3,2.5-0.2c0.5,0.7,1.2,1.2,1.7,1.2c1,0,1.9,2.6,2.1,6.7
		C5449.1,1573.7,5448.3,1574.1,5444.4,1572z M5443.7,1566.3c-0.2-0.6-0.4-0.4-0.5,0.5c0,0.8,0.1,1.3,0.4,1
		S5444,1566.8,5443.7,1566.3z M5472.9,1547.9c0-0.6,1.8-2.3,4.1-3.8c5.5-3.7,7.4-5.9,3.1-3.7c-1.7,0.9-3.5,2.1-4.1,2.8
		c-1.3,1.5-2.5,0.8-1.6-0.9c0.4-0.7,0.9-1.9,1.1-2.6s2.1-2.1,4.1-3.2c2-1,5-3.3,6.6-5c3.2-3.6,4.5-3.8,1.5-0.3
		c-4.6,5.5-5.5,6.4-5.8,6c-0.6-0.6-4.4,1.3-4.4,2.2c0,0.4,0.5,0.5,1.2,0.3c0.7-0.3,2.1-0.7,3.2-0.9c1.1-0.3,2.7-1,3.5-1.7
		c1.4-1.2,1.4-1.1,0.6,0.3c-1.4,2.6-4.6,5.6-8.2,7.7c-1.9,1.1-3.4,2.5-3.4,3.1s-0.3,1.1-0.8,1.1S5472.9,1548.4,5472.9,1547.9
		L5472.9,1547.9z M5444.4,1545c-1-1.5-1-1.9,0.3-4.5c0.8-1.6,2.2-3.3,3-3.7c1.3-0.7,1.7-0.5,2.4,1.1c0.7,1.5,0.6,2.3-0.4,3.8
		c-1.4,2.2-1.5,2.7-0.5,2.7c0.4,0,0.8-0.5,0.8-1.1c0-1.7,1.5-2.2,2.8-1c0.9,0.9,1,1.5,0.3,2.8
		C5451.9,1547.4,5446.1,1547.3,5444.4,1545L5444.4,1545z M5447.8,1517.4c-2.4-2.5-2.5-2.8-1.5-4.7c1.9-3.5,4.5-3.3,4.7,0.4
		c0.1,0.9,0.8,2.1,1.6,2.5c1.3,0.7,1.4,0.6,1-1.6c-0.4-2.2-0.3-2.3,1-1.6c2,1.1,2.4,1.9,1.9,4c-0.4,1.6-3.4,3.7-5.3,3.7
		C5450.8,1520,5449.2,1518.8,5447.8,1517.4z M5483.7,1509.5c-2.6-0.1-4.8-0.5-4.8-0.9c0-0.3,2.1-0.5,4.8-0.3
		c3.9,0.2,4.5,0.1,3.3-0.6c-0.8-0.5-3.2-1.2-5.3-1.5l-3.9-0.6l4.8,0.2c3.7,0.2,5.1,0.6,6.2,1.8c1.3,1.4,1.4,2.8,0.1,2.4
		C5488.7,1509.9,5486.4,1509.7,5483.7,1509.5L5483.7,1509.5z M5482.4,1503.6l-3-1.1l3.3,0.3c1.8,0.2,3.7,0.7,4.1,1.1
		C5488,1505.1,5486.3,1504.9,5482.4,1503.6L5482.4,1503.6z M5487.2,1502.5c-0.1-0.4-2.1-0.8-4.2-1c-2.2-0.1-4-0.5-4-0.9
		c0-0.4,1.7-0.4,3.8-0.2c4.1,0.5,5.5-0.7,1.7-1.5c-3.7-0.8-3.7-1-0.2-1.1l3.4-0.1l-2.7-1c-2.8-1.1-1.2-1.6,2.1-0.7
		c1.8,0.5,2.3,2.2,0.8,2.8c-0.7,0.2-0.6,0.7,0.4,1.8c0.7,0.8,1.1,1.7,0.8,2C5488.4,1503.5,5487.5,1503.4,5487.2,1502.5
		L5487.2,1502.5z M5451.2,1495.2c-1.5-2.3-1.5-3.1,0.3-5l1.5-1.6l0.9,2c0.7,1.6,1.3,1.9,2.8,1.5c1.7-0.4,1.8-0.3,1.6,2.1
		c-0.2,2.4-0.4,2.5-3.1,2.6C5453,1496.9,5452.1,1496.5,5451.2,1495.2z M5486.6,1494.8c-1.5-0.4-4.5-0.6-6.6-0.5
		c-2.2,0.1-4.2-0.1-4.5-0.4c-0.3-0.3,1.2-0.5,3.2-0.5c5.5,0,11.7,0.9,11.7,1.6C5490.4,1495.7,5490.2,1495.7,5486.6,1494.8
		L5486.6,1494.8z M5487,1491.8c-1.6-1-3.7-1.5-7.1-1.5c-3.1,0-4.6-0.3-4.3-0.8c1.2-2,14.1,0.6,14.1,2.9
		C5489.6,1493.6,5489.8,1493.6,5487,1491.8L5487,1491.8z M5487.4,1488.4c-1-0.6-3.9-1.3-6.3-1.6c-2.5-0.3-4.1-0.8-3.8-1.2
		c1.3-1.3,13.9,2,13.9,3.6C5491.2,1489.8,5489.3,1489.4,5487.4,1488.4L5487.4,1488.4z M5542,1691.3c1.4-1.2,1.6-1.8,1-2.9
		c-0.5-0.8-0.8-1-0.8-0.4c0,0.6-1.1,1.9-2.3,2.9c-2.5,2.1-3.1,3.9-1,2.6C5539.7,1693.1,5541,1692.1,5542,1691.3L5542,1691.3z
		 M5587.7,1693.6c1.6-1-0.3-1.7-2.5-0.9c-1.1,0.4-2,0.9-2,1.1C5583.3,1694.5,5586.6,1694.3,5587.7,1693.6L5587.7,1693.6z
		 M5592.9,1692.5c0.3-0.5,0-0.6-0.8-0.3c-0.7,0.3-1.6,0.5-2,0.5s-0.7,0.3-0.7,0.7C5589.3,1694.3,5592.3,1693.6,5592.9,1692.5
		L5592.9,1692.5z M5608,1692.8c1-0.4,1.1-0.7,0.4-0.7c-0.6,0-1.7,0.3-2.3,0.7C5604.7,1693.7,5605.9,1693.7,5608,1692.8z
		 M5273,1690.9c2.6-1.1,2.4-1.2-3.7-1.4c-4.2-0.1-9.5,1.6-7.9,2.5C5262.8,1692.9,5270.1,1692.2,5273,1690.9L5273,1690.9z
		 M5598.1,1691.4c-0.2-0.2-0.8,0-1.4,0.5c-0.7,0.8-0.7,0.8,0.4,0.4C5597.9,1692,5598.4,1691.6,5598.1,1691.4L5598.1,1691.4z
		 M5613.3,1688.5c5.1-2.3,8.2-4.5,7.5-5.2c-0.3-0.3-1.4,0.2-2.4,0.9c-1.1,0.7-3.4,1.8-5.2,2.4s-3.4,1.5-3.6,2c-0.2,0.6-1.6,1-3.4,1
		c-1.7,0-3.2,0.3-3.5,0.8c-0.3,0.5,0.1,0.5,0.9,0.2c1.2-0.5,1.2-0.4,0.3,0.8c-1,1.2-0.8,1.2,1.9,0.2
		C5607.4,1691.1,5610.8,1689.7,5613.3,1688.5L5613.3,1688.5z M5280.4,1691.2c1.4-0.9,0.2-0.9-1.9,0c-1,0.4-1.1,0.7-0.4,0.7
		C5278.7,1692,5279.7,1691.6,5280.4,1691.2z M5550.9,1691.2c0.6-1-0.4-1-1.9,0c-1,0.6-1,0.7,0.1,0.7
		C5549.9,1692,5550.6,1691.7,5550.9,1691.2z M5555.5,1690.4c0.2-0.4-0.3-0.7-1.1-0.7s-1.7,0.5-1.9,1.1c-0.3,0.7,0,0.9,1.1,0.7
		C5554.5,1691.2,5555.3,1690.8,5555.5,1690.4z M5559.7,1691.1c0-0.3-0.5-0.6-1.1-0.6s-1.3,0.3-1.5,0.6c-0.2,0.3,0.3,0.6,1.1,0.6
		S5559.7,1691.4,5559.7,1691.1z M5573,1691.2c0.4-0.6-0.2-0.7-1.9-0.3c-1.3,0.3-2.4,0.2-2.4-0.1c0-0.8-4.8-0.6-6.4,0.3
		c-0.9,0.5,0.5,0.8,4.4,0.9C5570.3,1692,5572.7,1691.7,5573,1691.2L5573,1691.2z M5580.2,1690.5c1.9-0.6,1.8-0.6-0.4-0.6
		c-1.3,0-3,0.3-3.8,0.6c-1.4,0.6-1.3,0.7,0.4,0.6C5577.5,1691.1,5579.2,1690.8,5580.2,1690.5z M5595.3,1690.3c4-0.1,4.4-0.2,1.6-0.4
		c-1.9-0.2-3.8-0.6-4.1-1s-1.7-0.7-2.8-0.7s-2.2-0.4-2.4-0.9c-0.4-1.1-19.6-0.1-19.6,1c0,0.5,1,0.6,2.5,0.3
		c5.9-1.1,16.6-1.4,16.6-0.6c0,0.5,1.1,0.9,2.5,0.9c1.9,0.1,1.5,0.3-2.1,1.1c-4.5,1-4.5,1-0.8,0.7
		C5588.6,1690.6,5592.6,1690.4,5595.3,1690.3L5595.3,1690.3z M5344.3,1690.2c0-0.2-0.8-0.5-1.9-0.7s-1.7-0.1-1.5,0.3
		C5341.3,1690.5,5344.3,1690.8,5344.3,1690.2L5344.3,1690.2z M5339.4,1689.2c-1.1-1.1-12.4-3.7-14.2-3.2c-1.6,0.4-1.5,0.5,1.2,1
		c1.7,0.3,5.1,1,7.6,1.6C5339.6,1689.8,5340.1,1689.9,5339.4,1689.2L5339.4,1689.2z M5585,1689.2c-0.5-0.2-1.4-0.2-1.9,0
		s-0.1,0.4,1,0.4S5585.5,1689.4,5585,1689.2L5585,1689.2z M5257.9,1687c1.7-0.5,4.2-1.2,5.6-1.5c4.6-0.9,2.1-1.1-7-0.4
		c-5.2,0.4-9.4,1.1-9.9,1.6c-0.6,0.7-0.5,0.8,0.6,0.4c1.8-0.6,3.3,0.2,1.9,1.1C5247.7,1689.2,5253.9,1688.3,5257.9,1687L5257.9,1687
		z M5301.1,1688.5c-0.5-0.2-1.5-0.2-2.3,0c-0.7,0.2-0.3,0.4,0.9,0.4C5301,1688.8,5301.6,1688.7,5301.1,1688.5L5301.1,1688.5z
		 M5396.7,1688.1c-0.9-0.6-12.1-0.1-12.7,0.5c-0.2,0.2,2.7,0.3,6.6,0.2S5397.1,1688.4,5396.7,1688.1L5396.7,1688.1z M5424.9,1681.8
		c5.2-6.3,8.1-8.1,13.1-8.2c1.8,0,2.7-0.2,2-0.4c-2.4-0.6-1.1-2.7,2.1-3.5c1.1-0.3,1-0.4-0.6-0.5c-2.4-0.1-13.9,7.1-16.4,10.2
		c-0.8,1-1.8,1.9-2.2,1.9c-1.4,0-5.9,5.1-5.6,6.4C5417.6,1689.7,5419.5,1688.2,5424.9,1681.8z M5547.3,1687.4
		c1.5-1.2,1.6-1.5,0.7-1.5c-0.7,0-2,0.7-2.9,1.5c-1,0.9-1.2,1.5-0.7,1.5C5544.9,1689,5546.2,1688.3,5547.3,1687.4z M5561.4,1688.1
		c1.2-0.7,1.7-0.7,1.9,0c0.4,1.1,2.9,1.2,3.6,0.1c0.3-0.4-0.4-0.8-1.4-0.8c-1,0-2.4-0.5-3.1-1.2c-0.8-0.8-1.9-1.1-3.2-0.7
		c-1.1,0.3-1.8,0.7-1.5,1c0.3,0.3,0.1,0.9-0.4,1.5c-0.7,0.8-0.5,1,0.8,1C5559,1689,5560.5,1688.6,5561.4,1688.1z M5540.6,1687.9
		c0-0.2-0.3-0.5-0.8-0.8s-0.8-0.1-0.8,0.3s0.3,0.8,0.8,0.8S5540.6,1688,5540.6,1687.9z M5285.6,1686l4.1-1.3h-4.7
		c-2.6,0-4.1,0.2-3.4,0.5c1.8,0.6-5.3,1.5-7.9,1c-1.2-0.2-2.9-0.1-3.8,0.2C5266.3,1687.8,5281.3,1687.4,5285.6,1686z M5381,1686.9
		c-0.5-0.2-1.5-0.2-2.3,0c-0.7,0.2-0.3,0.4,0.9,0.4C5380.9,1687.3,5381.5,1687.1,5381,1686.9L5381,1686.9z M5603.3,1685.2
		c3.4,0.3,6.8-0.1,6.2-0.6c-0.3-0.3-3.6-0.6-7.2-0.7c-3.7-0.1-8.5-0.7-10.8-1.3c-4.2-1.2-7.5-1.7-12-1.9c-1.7-0.1-2.3-0.4-2-1
		c0.4-0.6,2.4-0.7,6.5-0.4c3.3,0.3,6.1,0.2,6.2-0.1c0.2-0.3,0.2-0.1,0.1,0.3c-0.1,0.5,1.1,1.1,3,1.4c1.8,0.3,4.1,0.7,5.3,0.9
		c1.6,0.3,2.1,0.1,2.1-0.8c0-0.7-0.3-1-0.8-0.8c-0.6,0.4-2.3-2.4-2.3-3.9c0-1.1,2.5,0,2.8,1.3c0.3,1.2,0.6,1.4,1.1,0.6
		c0.5-0.7,0.6-0.2,0.4,1.5l-0.3,2.5h3.6c3,0,3.7-0.3,4.1-1.6c0.7-2.1-0.1-2.8-2-1.6c-1.1,0.7-1.5,0.7-1.5,0.1c0-0.5-0.7-0.7-1.6-0.4
		c-1,0.3-1.5,0.1-1.3-0.5c0.2-0.5,1.6-0.9,3.1-0.9c3.2-0.1,4.9-1.1,1.8-1.1c-1.1,0-2.2-0.4-2.5-0.9c-0.7-1.1,4.9-0.2,6.3,1
		c0.6,0.5,1.4,0.5,2.3,0c1.1-0.6,0.3-1.3-5.3-3.9c-3.7-1.7-7.3-3.1-8.2-3.1c-0.9,0-1.5-0.5-1.5-1.2c0-1.5,1.6-1.1,9.5,2.8
		c4.1,2,6.3,2.7,6.8,2.2c1.2-1.2-0.4-3.2-4.6-5.3l-3.7-1.9l2.3-0.5c1.2-0.2,4.7-0.3,7.6-0.2c5.1,0.3,5.2,0.2,3-0.8
		c-3.7-1.8-8.7-1.5-27.4,1.6c-4.8,0.8-2.7-0.3,3.5-1.9c3.1-0.8,9.5-1.7,14.2-2c4.7-0.3,8.6-0.9,8.6-1.2c0-0.4-0.5-0.7-1.1-0.7
		c-0.6,0-1.7-0.6-2.3-1.3c-2.3-2.3-17.3,0.3-40.5,7c-0.9,0.3-1.7,0.2-1.7-0.2c0-1.7,27.4-8.7,33.9-8.7c5.2,0,5.9-0.5,3.2-2.2
		c-1.8-1.1-13.6-1.8-16.1-0.9c-2.7,1-0.1,1.4,4.9,0.9c2.7-0.3,5.8-0.3,6.8,0c2.1,0.6,1.7,0.7-4.9,1c-2.5,0.1-6.6,0.4-9.1,0.7
		c-3,0.3-3.8,0.2-2.3-0.2c1.3-0.3,1.9-0.7,1.5-0.7c-0.4-0.1-0.3-0.4,0.2-0.7c0.6-0.4-0.2-0.6-1.9-0.6c-8.8-0.1-11.6-0.5-12.2-1.5
		c-0.9-1.6-16.1-0.1-17.4,1.7c-0.5,0.7-3.2,2-6,3c-5.9,2.1-7.9,3.6-6.5,5c0.7,0.7,0.2,1.4-2.3,3.1c-2.3,1.6-2.7,2.1-1.3,1.7
		c1-0.3,2.4-1,3.1-1.6c1.7-1.5,2.9-1.3,2.4,0.5c-0.4,1.5-0.4,1.5,2.3,0.2c1.6-0.8,2.3-1.6,1.8-1.9c-0.6-0.4-0.6-0.8-0.1-1.3
		c1.3-1.3,13.1-5.3,17.1-5.9c3.3-0.4,3.8-0.3,3.8,0.8c0,1,0.4,1.2,1.7,0.9c0.9-0.2,2.9-0.6,4.4-0.8c2.5-0.4,2.6-0.4,0.6,0.4
		c-1.2,0.4-2.1,1.1-2.1,1.5c0,0.4-0.9,0.6-2.1,0.6c-3.3-0.2-12.1,2.5-13.8,4.2c-2.5,2.7-1,3.6,3.4,2.3c5.7-1.7,6.7-0.9,1.3,1
		c-2.8,1-5.5,1.5-6.6,1.3c-2-0.5-9,2.6-10.1,4.4c-0.4,0.6,0.1,0.5,1.3-0.2c2.8-1.8,8.3-3.8,8.3-3.1c0,0.4-1.9,1.5-4.1,2.6
		c-6.1,2.9-6,3.6,0.6,3.3c3.4-0.2,6.3,0.1,7.4,0.7c2,1.1,1.5,1.5-2.7,2.2c-2.9,0.5-10.1,5-8.1,5c0.5,0,0.7,0.3,0.5,0.8
		c-0.7,1.2,0.5,0.9,3.3-0.8c1.4-0.9,3.6-1.6,4.9-1.7c1.3-0.1,3.1-0.6,4-1.1c1.9-1.1,5.1-1.2,4.5-0.2c-0.2,0.4,0,0.8,0.5,1
		c0.5,0.2,0.6,0.7,0.3,1.2c-0.3,0.5-2.3,0.9-4.8,0.9c-2.3,0-4.1,0.2-3.8,0.5c0.7,0.7,17.3,0.4,21.4-0.4c2.3-0.4,4.5-0.5,5.6,0
		c1,0.4,3,0.7,4.4,0.7c1.4,0,2.6,0.3,2.6,0.7c0,1.2,2.6,1.3,3.7,0.2C5601.2,1685.5,5602.4,1685.1,5603.3,1685.2L5603.3,1685.2z
		 M5570.3,1679.2c0-0.4-0.9-0.5-2-0.3c-1.2,0.2-1.8,0.1-1.5-0.4c0.4-0.7,1.9-0.8,4.5-0.3c0.9,0.1,0.7,1.6-0.2,1.6
		C5570.7,1679.8,5570.3,1679.5,5570.3,1679.2L5570.3,1679.2z M5594.8,1677.3c0.3-2.7,1.8-3.1,1.7-0.4c-0.2,2.7-0.2,2.8-1.1,2.8
		C5594.9,1679.8,5594.7,1678.7,5594.8,1677.3L5594.8,1677.3z M5602.4,1673.3c-0.9-0.6-1.5-1.5-1.2-1.9c0.2-0.4,1.2,0,2.1,0.8
		C5605.2,1674.1,5604.7,1674.9,5602.4,1673.3L5602.4,1673.3z M5566.4,1671.8c1.4-0.6,2.8-0.9,3-0.7c0.7,0.7-1.6,1.9-3.7,1.8
		C5564,1672.9,5564.1,1672.8,5566.4,1671.8z M5571.5,1670.8c1.1-1.1,5.7-2.4,5.7-1.6c0,0.9-0.7,1.2-3.8,1.9
		C5571.4,1671.5,5570.9,1671.4,5571.5,1670.8z M5585.1,1667.5c0.1-0.5,1-1.1,1.9-1.2c1.2-0.2,1.6,0,1.2,0.6c-0.3,0.5-1,0.7-1.6,0.5
		s-1.2-0.1-1.4,0.3C5585.1,1668.1,5585,1668,5585.1,1667.5L5585.1,1667.5z M5584.2,1657.2c0.7-0.2,1.8-0.2,2.3,0
		c0.5,0.2-0.1,0.4-1.3,0.4C5583.9,1657.6,5583.5,1657.4,5584.2,1657.2L5584.2,1657.2z M5576.8,1656.2c-5.7-0.6-0.7-1.2,5.7-0.7
		c4.8,0.4,4.8,0.4,1.5,0.8C5582.1,1656.4,5578.9,1656.4,5576.8,1656.2L5576.8,1656.2z M5602.8,1687c-0.3-0.3-0.9-0.3-1.5-0.1
		c-0.6,0.2-0.4,0.4,0.5,0.5C5602.6,1687.4,5603.1,1687.2,5602.8,1687L5602.8,1687z M5303.4,1686.2c-0.5-0.2-1.4-0.2-1.9,0
		c-0.5,0.2-0.1,0.4,1,0.4S5303.9,1686.4,5303.4,1686.2L5303.4,1686.2z M5414.3,1685.2c0.9-1.7,0.3-3.9-1.2-3.9
		c-0.6,0-0.9-0.5-0.6-1.1c0.2-0.6,0-1.1-0.5-1.1c-0.5,0-0.8,0.6-0.6,1.4c0.2,0.8,0,2-0.4,2.7c-0.7,1.2-0.5,1.2,0.9,0.4
		c0.9-0.5,1.8-0.7,2-0.5c0.2,0.2-0.3,0.8-1.2,1.2c-1.8,1-2.1,2.3-0.5,2.3C5413,1686.7,5413.9,1686,5414.3,1685.2L5414.3,1685.2z
		 M5479,1685.9c-1.4-0.9-4.3-0.9-4.9-0.1c-0.2,0.4,1,0.7,2.8,0.7C5479.1,1686.6,5479.8,1686.4,5479,1685.9L5479,1685.9z
		 M5535.8,1685c-0.2-0.6-0.4-0.4-0.5,0.5c0,0.8,0.1,1.3,0.4,1S5536.1,1685.6,5535.8,1685z M5409.4,1685.2c0.3-0.4,0-0.6-0.7-0.3
		c-1.3,0.5-1.6,1.1-0.5,1.1C5408.6,1685.9,5409.1,1685.6,5409.4,1685.2z M5406.5,1683.5c-0.2-0.6-0.4-0.4-0.5,0.5
		c0,0.8,0.1,1.3,0.4,1S5406.7,1684,5406.5,1683.5z M5271.6,1683.6c1-0.4-0.6-0.6-4.6-0.6c-5.9,0.1-5.9,0.1-1.9,0.6
		c2.3,0.3,4.4,0.5,4.6,0.6C5269.9,1684.2,5270.8,1684,5271.6,1683.6z M5327.4,1683.9c-0.7-0.2-1.9-0.2-2.7,0s-0.1,0.3,1.3,0.3
		S5328.1,1684.1,5327.4,1683.9L5327.4,1683.9z M5410.3,1680.9c-0.7-0.7-2.8,1.2-2.8,2.6c0,1,0.3,0.9,1.7-0.5
		C5410.1,1682.1,5410.6,1681.2,5410.3,1680.9z M5418.1,1682.7c0-1-1.7-0.4-2.1,0.8c-0.2,0.6,0.2,0.7,0.9,0.4
		C5417.6,1683.7,5418.1,1683.1,5418.1,1682.7z M5613,1683.7c0-0.4-0.5-0.5-1.1-0.3s-1.1,0.6-1.1,0.7c0,0.2,0.5,0.3,1.1,0.3
		S5613,1684.1,5613,1683.7z M5364.6,1683.2c-0.3-0.3-0.9-0.3-1.5-0.1c-0.6,0.2-0.4,0.4,0.5,0.5
		C5364.4,1683.6,5364.9,1683.4,5364.6,1683.2L5364.6,1683.2z M5404.4,1682.5c0-0.6-0.3-1.1-0.7-1.1c-1,0-1.6,1.2-1,1.8
		C5403.5,1684,5404.4,1683.7,5404.4,1682.5L5404.4,1682.5z M5503.1,1681.2c-0.2-0.5-0.4-0.1-0.4,1c0,1,0.2,1.5,0.4,1
		C5503.3,1682.5,5503.3,1681.7,5503.1,1681.2z M5533.4,1682.2c-0.3-0.4-0.8-0.8-1.2-0.8c-0.4,0-0.3,0.5,0.2,1.1
		C5533.5,1683.6,5534.2,1683.4,5533.4,1682.2z M5254.5,1681.4c0.8-0.5,0.4-0.7-1.7-0.6c-1.6,0.1-2.9,0.4-2.9,0.7
		C5249.9,1682.3,5253.1,1682.3,5254.5,1681.4z M5276.2,1681.3c0.3-0.4-0.2-0.8-1.1-0.8s-1.6,0.3-1.6,0.8c0,0.4,0.5,0.8,1.1,0.8
		S5275.9,1681.8,5276.2,1681.3z M5281.5,1681.3c1.5-0.7,1.5-0.7,0-0.7c-0.8,0-2,0.3-2.7,0.7c-1,0.7-1,0.7,0,0.7
		C5279.5,1682,5280.7,1681.7,5281.5,1681.3z M5407.3,1678.7c-0.3-2.2-1.6-1.3-1.7,1.2c0,1.6,0.2,1.8,0.9,1.2
		C5407.1,1680.7,5407.4,1679.6,5407.3,1678.7z M5529.6,1681.4c0.2-0.4,0.1-0.9-0.3-1.2c-0.4-0.3-0.8,0.1-0.8,0.7
		C5528.5,1682.3,5528.9,1682.5,5529.6,1681.4z M5613.3,1680.9c1.7-1.7,1.5-2.4-0.7-2.4c-1.5,0-1.9,0.4-1.9,1.8
		C5610.7,1682.4,5611.6,1682.6,5613.3,1680.9z M5269.7,1679.9c1.5-0.6,0.8-0.7-3.4-0.5c-2.9,0.2-5.8,0.5-6.5,0.7
		c-3.3,1.1-3,1.3,2.3,1C5265.2,1680.8,5268.7,1680.3,5269.7,1679.9z M5422.6,1679.5c1.6-1.2,2.2-2,1.6-2.4c-0.5-0.3-1.3-0.2-1.7,0.3
		c-1.7,1.7-2.3,0.8-0.7-0.9c2.3-2.5,2.2-3.9-0.3-2.4c-1.3,0.9-1.9,1.8-1.8,3.3c0.1,1.1-0.1,2.4-0.4,3
		C5418.5,1681.9,5419.9,1681.5,5422.6,1679.5z M5403.6,1677.8c-0.5-0.6-0.5-1.8,0-3.6c0.8-2.8,0.1-4.3-2-4.3c-0.8,0-0.9,0.5-0.6,2
		c0.3,1.1,0.7,3.1,0.9,4.4c0.7,4.2,1,4.8,1.8,3.5C5404.1,1679.2,5404,1678.4,5403.6,1677.8L5403.6,1677.8z M5418,1679.2
		c0.2-0.7-0.1-0.9-1-0.8c-0.7,0.1-1.5,0.7-1.7,1.3c-0.2,0.7,0.1,0.9,1,0.8C5417,1680.3,5417.8,1679.7,5418,1679.2z M5482.5,1678.7
		c-0.1-1.1-0.4-1.6-0.8-1.2c-0.4,0.4-0.5,1.2-0.2,1.9C5482.2,1681.1,5482.7,1680.8,5482.5,1678.7L5482.5,1678.7z M5627.9,1679.4
		c0.2-0.6,1-1.2,1.7-1.2c0.7,0,0.9-0.2,0.3-0.4c-1.1-0.5-4,1-4,2C5625.9,1681,5627.4,1680.7,5627.9,1679.4L5627.9,1679.4z
		 M5616.8,1679.1c0-0.4-0.3-0.8-0.8-0.8c-0.4,0-0.8,0.3-0.8,0.8s0.3,0.8,0.8,0.8C5616.4,1679.8,5616.8,1679.5,5616.8,1679.1z
		 M5524.4,1677.4c-0.2-0.6-0.4-0.4-0.5,0.5c0,0.8,0.1,1.3,0.4,1S5524.7,1677.9,5524.4,1677.4z M5416.3,1677.7c1.2-0.8,1.9-3.2,1-3.2
		c-0.4,0-0.5-0.4-0.2-0.9c0.3-0.5,0.2-0.7-0.3-0.4c-0.5,0.3-0.7,1-0.4,1.6c0.2,0.6,0.1,1.1-0.3,1.1s-1,0.5-1.2,1.1
		C5414.3,1678.4,5415,1678.6,5416.3,1677.7L5416.3,1677.7z M5428.6,1673.5c-0.6-1.5-3.6-2.2-3.6-0.9c0,0.6,0.4,1.1,0.8,1.1
		c0.5,0,0.5,0.5,0,1.4c-0.4,0.8-0.5,1.6-0.3,1.9C5426.3,1677.9,5429,1674.7,5428.6,1673.5L5428.6,1673.5z M5618.5,1674.8
		c-0.5-1.3-1.5-1.4-2.2-0.3c-0.3,0.4-0.1,0.8,0.3,0.8s0.6,0.6,0.3,1.3c-0.4,1.1-0.3,1.2,0.7,0.3
		C5618.4,1676.4,5618.8,1675.4,5618.5,1674.8z M5646.5,1675.5c1-2.6,0.5-2.9-2.3-2.1c-2.2,0.7-2.3,0.7-1.1,2.4
		C5644.6,1678.1,5645.5,1678,5646.5,1675.5L5646.5,1675.5z M5464.1,1675.3c0.5-0.8-1.7-1.4-3.6-1c-0.7,0.2-1.3,0.6-1.3,1
		C5459.2,1676.2,5463.6,1676.2,5464.1,1675.3L5464.1,1675.3z M5471.7,1675.2c-1.5-0.4-3.1-0.4-4.2,0c-1.4,0.6-1,0.7,2.4,0.7
		C5473.7,1675.9,5473.8,1675.8,5471.7,1675.2L5471.7,1675.2z M5495.9,1675.5c-0.5-0.2-1.4-0.2-1.9,0s-0.1,0.4,1,0.4
		S5496.5,1675.7,5495.9,1675.5L5495.9,1675.5z M5502.2,1675.2c1.2-0.5,0.9-0.6-1.4-0.5c-1.6,0.1-3.1,0.4-3.3,0.7
		C5497.1,1676.2,5500.3,1676.1,5502.2,1675.2z M5622.1,1675c0-0.6-0.5-1.3-1.1-1.5c-1.1-0.4-1.6,1.1-0.6,2.1
		C5621.2,1676.4,5622.1,1676.1,5622.1,1675z M5482.6,1674.7c-0.7-0.2-2.1-0.2-3,0c-0.9,0.2-0.4,0.3,1.3,0.3
		C5482.6,1675.1,5483.4,1674.9,5482.6,1674.7L5482.6,1674.7z M5652.1,1674.5c0.3-0.4,0.1-0.8-0.3-0.8s-1,0.3-1.2,0.8
		c-0.3,0.4-0.1,0.8,0.3,0.8C5651.3,1675.3,5651.9,1674.9,5652.1,1674.5L5652.1,1674.5z M5421.5,1673c1.4-1.5,1.2-2.9-0.3-1.9
		c-1.2,0.7-2.5,3.5-1.7,3.5C5419.9,1674.5,5420.8,1673.8,5421.5,1673z M5456.6,1673.7c0.3-0.4-0.4-0.8-1.7-0.7c-1.7,0-1.9,0.2-1,0.7
		C5455.4,1674.7,5456,1674.7,5456.6,1673.7z M5315,1672.9c-2.1-0.8-7.4-0.8-8.7,0c-0.7,0.5,0.8,0.7,4.6,0.6
		C5314.5,1673.5,5316,1673.3,5315,1672.9L5315,1672.9z M5431.7,1672.4c0.2-0.5-0.4-0.9-1.3-0.9c-1.1,0-1.4,0.4-1.1,1.2
		C5429.8,1673.9,5431.2,1673.8,5431.7,1672.4z M5535.9,1671.8c-0.2-0.2-0.7,0.2-0.9,0.9c-0.4,1.1-0.3,1.2,0.4,0.4
		C5535.9,1672.7,5536.2,1672,5535.9,1671.8z M5554,1669.4c2.2-1.5,0.8-1.2-2.7,0.5c-1.7,0.8-3,1.9-3,2.4
		C5548.3,1673.1,5549.6,1672.4,5554,1669.4L5554,1669.4z M5624.4,1671.9c0-0.5-4.8-3.1-8.2-4.5c-1.8-0.7-3.2-1-3.2-0.7
		c0,0.9,3.3,2.8,4.6,2.6c0.6-0.1,2,0.5,3,1.3C5622.3,1672,5624.4,1672.7,5624.4,1671.9L5624.4,1671.9z M5633.1,1669.9
		c-1.4-2.8-1.9-2.7-1.3,0.3c0.2,1.2,0.9,2.1,1.5,2.1C5634.1,1672.2,5634.1,1671.8,5633.1,1669.9z M5435.3,1670.7c0.6-1-0.4-1-1.9,0
		c-1,0.6-1,0.7,0.1,0.7C5434.2,1671.4,5435,1671.1,5435.3,1670.7z M5648.4,1668.4c1.7-1.8,2.9-3.7,2.8-4.5c-0.2-1.1,0.4-1.5,2.5-1.9
		c1.5-0.3,3.9-1,5.5-1.7c2.1-0.9,2.6-1.4,1.9-2.1c-0.7-0.7-1-0.6-1.5,0.1c-0.4,0.6-1,0.8-1.7,0.4c-1.5-1-9-1.2-9-0.3
		c0,1.4-2.6,0.8-4.7-1c-1.1-1-2.2-2.9-2.5-4.4s-0.7-3.2-0.9-4c-0.3-1.1-0.1-1.3,0.9-1c0.8,0.3,1.2,0.2,1-0.5
		c-0.2-0.5-0.9-1.1-1.7-1.2s-3-1.2-5.1-2.5c-2-1.2-3.7-2-3.7-1.8c0,1.1,7.1,13.9,8.8,15.7c1.3,1.5,1.9,3,1.9,5.1
		c0,1.6,0.4,3.2,0.8,3.5s0.6,1.1,0.3,1.9c-0.5,1.5,0.1,3,1.1,3C5645.1,1671.4,5646.7,1670.1,5648.4,1668.4L5648.4,1668.4z
		 M5541.5,1669.4c0.9-1.2,0.9-1.2-0.3-0.3c-0.7,0.6-1.3,1.2-1.3,1.3C5539.9,1671,5540.5,1670.6,5541.5,1669.4L5541.5,1669.4z
		 M5635.8,1668.4c0-1.6-0.4-2.3-1.2-2.3c-0.9,0-1.1-0.5-0.8-1.8c0.4-1.5,0.2-1.8-1-1.4c-1.4,0.4-1.4,0.5,0.5,4.1
		c1.1,2,2.1,3.7,2.2,3.7S5635.8,1669.7,5635.8,1668.4z M5651.7,1669.1c0.9-0.9,1.5-1.8,1.3-2.1s-1.4,0.5-2.5,1.6
		C5648,1671,5649.1,1671.4,5651.7,1669.1L5651.7,1669.1z M5625.1,1669c0-1.6-1.3-3.1-2.2-2.5c-0.7,0.4-0.5,0.9,0.4,2
		C5624.8,1670.2,5625.1,1670.3,5625.1,1669L5625.1,1669z M5309.7,1666.3c-0.3-0.3-5,2-5,2.5c0,0.2,1.2-0.2,2.7-0.9
		C5308.8,1667.2,5309.9,1666.5,5309.7,1666.3L5309.7,1666.3z M5433.1,1666.7c0.1-0.9,0.5-3.2,0.9-5.1l0.7-3.4l-1.4,1.9
		c-0.9,1.1-1.4,3.1-1.4,5.1C5431.8,1668.5,5432.9,1669.8,5433.1,1666.7z M5438.5,1667.9c-0.3-0.3-0.9-0.3-1.5-0.1
		c-0.6,0.2-0.4,0.4,0.5,0.5C5438.3,1668.4,5438.7,1668.2,5438.5,1667.9L5438.5,1667.9z M5448.2,1666.8c2.5-1.2,2.7-1.4,0.8-1
		c-3.3,0.6-7.3,2.5-5.4,2.5C5444.5,1668.3,5446.5,1667.6,5448.2,1666.8L5448.2,1666.8z M5460,1666.8c0-0.9-0.3-1.4-0.7-1.1
		s-0.5,1-0.3,1.6C5459.6,1668.9,5460,1668.7,5460,1666.8L5460,1666.8z M5620.9,1667.6c-0.3-0.4-0.9-0.8-1.4-0.7
		c-0.5,0-0.5,0.3,0.2,0.7C5621.3,1668.6,5621.5,1668.6,5620.9,1667.6L5620.9,1667.6z M5436.7,1665.2c1-1.9,1-2.5,0.2-3
		c-1-0.6-1.9,1.2-2,4.1C5434.8,1668.3,5435.4,1667.9,5436.7,1665.2L5436.7,1665.2z M5441.3,1666.9c0.3-0.4,0.1-0.8-0.3-0.8
		s-0.8,0.3-0.8,0.8s0.2,0.8,0.3,0.8S5441.1,1667.3,5441.3,1666.9z M5469.1,1666.9c0.9-0.6,0.9-0.7-0.4-0.7c-0.8,0-2,0.3-2.7,0.7
		c-0.9,0.6-0.9,0.7,0.4,0.7C5467.3,1667.6,5468.5,1667.3,5469.1,1666.9z M5558.3,1665.5c-1.4-0.5-3.4,0.4-2.8,1.3
		c0.3,0.5,1,0.5,2.1-0.1C5558.7,1666.2,5558.9,1665.8,5558.3,1665.5L5558.3,1665.5z M5541,1666.1c0.3-0.4,0-0.6-0.7-0.3
		c-1.3,0.5-1.6,1.1-0.5,1.1C5540.2,1666.9,5540.8,1666.5,5541,1666.1z M5446.7,1665.4c1-0.4,1.1-0.7,0.4-0.7c-0.6,0-1.8,0.3-2.7,0.7
		c-1,0.4-1.1,0.7-0.4,0.7C5444.6,1666,5445.8,1665.7,5446.7,1665.4z M5454.4,1664.9c-0.3-0.3-0.9-0.3-1.5-0.1
		c-0.6,0.2-0.4,0.4,0.5,0.5C5454.2,1665.3,5454.7,1665.2,5454.4,1664.9L5454.4,1664.9z M5640.2,1662.1c0.3-1.8-0.8-1.7-3,0.2
		l-1.8,1.5l2.3-0.2C5639.1,1663.5,5640,1663,5640.2,1662.1z M5471.7,1661.9c-0.2-0.6-0.8-0.9-1.2-0.7c-0.5,0.3-0.4,0.7,0.3,1.1
		C5472.1,1663.3,5472.2,1663.3,5471.7,1661.9z M5533.9,1662.4c0.1-0.3,2.1-1.9,4.4-3.4c2.3-1.5,5-3.4,6-4.1
		c2.6-1.8,12.4-5.3,17.8-6.3c3.7-0.7,5.1-0.6,7.3,0.3c5.2,2.1,17.1,4.4,21,4c2.1-0.2,6.3-0.4,9.5-0.5c6.3-0.1,4.9-1.2-1.9-1.5
		c-4.1-0.1-8.4-1.4-5.1-1.5c3.1-0.1,1.8-1.6-1.3-1.6c-1.7,0-3-0.3-3-0.6c0-0.9,3.5-2.4,5.6-2.5c2.1-0.1-5.2-2.2-7.7-2.2
		c-1,0-1.6-0.4-1.3-0.7c0.2-0.4,0.1-0.9-0.3-1.2c-0.4-0.3-0.8-0.1-0.8,0.3s-0.3,0.8-0.8,0.8s-0.7-0.4-0.6-1c0.1-0.7-1.2-1-4.4-1.1
		l-4.6-0.2l2.6,1.2c1.5,0.6,3.5,1.3,4.6,1.5s3.8,0.8,6.1,1.4l4.2,1l-3.8,0.6c-2.9,0.4-3.9,0.3-4.6-0.5c-0.5-0.7-1.7-1-3.4-0.7
		c-1.7,0.2-2.4,0.1-2.1-0.4c0.9-1.5-5.7-3.4-11.2-3.3c-2.9,0.1-6.4-0.3-7.7-0.8c-2-0.7-3.4-0.7-6.7,0c-4.7,1.1-12.1,4.6-12.5,5.9
		c-0.2,0.5,1.5-0.1,3.8-1.3c5.2-2.9,10.8-4.7,13-4.4c1.6,0.3,1.5,0.4-0.6,0.9c-1.3,0.3-3.1,1.3-4.1,2c-1,0.8-2.4,1.4-3.1,1.4
		s-3,1.5-5,3.4l-3.7,3.4l7.9-3.9c9.9-4.8,13.3-6,16.7-5.9c2.4,0.1,2.2,0.2-1.7,1.1c-4.7,1-23.4,9.9-27.7,13.1
		c-1.4,1-2.5,1.7-2.5,1.5s2.1-2.5,4.8-5.1s4.1-4.4,3.2-4c-2.3,1.2-8.6,8-8.6,9.3c0,0.6-0.3,1.8-0.6,2.7c-0.6,1.5-0.6,1.5,1.1,0.1
		c2.2-1.9,3-1,1.4,1.4c-0.7,1.1-0.9,1.9-0.5,1.9S5533.8,1662.8,5533.9,1662.4L5533.9,1662.4z M5577.6,1648.5
		c-9-1.7-10.1-2.1-6.3-2.1c3.4-0.1,13.5,2.1,14.6,3.1C5586.8,1650.3,5587.2,1650.3,5577.6,1648.5z M5565.2,1646.6
		c0.7-0.2,1.8-0.2,2.3,0c0.5,0.2-0.1,0.4-1.3,0.4C5564.9,1646.9,5564.5,1646.8,5565.2,1646.6L5565.2,1646.6z M5568,1643.3
		c-0.9-0.6-0.6-0.7,1.1-0.7c1.3,0,2.8,0.3,3.4,0.7c0.9,0.6,0.6,0.7-1.1,0.7C5570.2,1644,5568.7,1643.7,5568,1643.3z M5542.2,1661.5
		c1.3-1,1.4-1.3,0.4-0.8c-2.5,1.3-3.9,2.3-3,2.3C5539.9,1663,5541.1,1662.3,5542.2,1661.5L5542.2,1661.5z M5442.5,1659.6
		c0.4-0.9,0.5-2.4,0.2-3.3c-0.3-1.2-0.1-1.6,0.9-1.6c0.9,0,1.2-0.4,0.9-1.5c-0.3-1.1,0.1-1.8,1.2-2.4c2-1.1,3.6-3,3.3-4
		c-0.1-0.4,0.4-1.4,1.2-2.2c1.7-1.8,1.4-2.2-1.1-1.6c-1.2,0.3-2.3,1.4-2.9,2.9c-0.5,1.3-1.7,3.4-2.6,4.7c-1.8,2.4-3.2,7.7-1.9,6.8
		c1.4-0.8,0.8,0.9-0.8,2.3c-1.8,1.6-2,2.8-0.3,2.2C5441.3,1661.6,5442.1,1660.6,5442.5,1659.6z M5568.8,1660.8
		c1.5-0.7,1.2-0.7-1.6-0.3c-1.9,0.3-3.7,0.7-4.1,1.1C5562.4,1662.3,5566.5,1661.8,5568.8,1660.8z M5463.2,1661.1
		c-0.5-0.2-1.5-0.2-2.3,0c-0.7,0.2-0.3,0.4,0.9,0.4C5463.1,1661.4,5463.7,1661.3,5463.2,1661.1L5463.2,1661.1z M5631.2,1660.8
		c0-0.4-0.3-0.8-0.8-0.8s-0.8,0.3-0.8,0.8c0,0.4,0.3,0.8,0.8,0.8S5631.2,1661.2,5631.2,1660.8z M5633.8,1658.5
		c-1.9-2.1-3.3-2.4-3.3-0.8c0,0.6,3.5,2.8,4.8,3C5635.5,1660.8,5634.9,1659.8,5633.8,1658.5L5633.8,1658.5z M5523.7,1658.4
		c-0.2-0.6-0.4-0.4-0.5,0.5c0,0.8,0.1,1.3,0.4,1S5523.9,1658.9,5523.7,1658.4z M5468,1658.5c0.3-0.4-0.1-0.8-0.7-0.8
		c-0.7,0-1.2,0.3-1.2,0.8s0.3,0.8,0.7,0.8S5467.7,1658.9,5468,1658.5z M5571.7,1658.7c-0.7-0.2-2.1-0.2-3,0
		c-0.9,0.2-0.4,0.3,1.3,0.3C5571.6,1659.1,5572.4,1658.9,5571.7,1658.7L5571.7,1658.7z M5439.8,1651.9c1.6-3,3.3-5.5,3.8-5.5
		s1.1-0.5,1.4-1.1c0.3-0.8-0.1-1.2-1.3-1.2c-1.4-0.1-1.3-0.2,0.7-1.1c2.1-0.9,3.9-3.9,3-4.8c-0.9-0.9-4.3,0.9-5.1,2.7
		c-0.5,1.1-2.2,5-3.8,8.6c-2.7,6.1-3.8,10.3-2.2,8.6C5436.7,1657.7,5438.3,1654.9,5439.8,1651.9L5439.8,1651.9z M5480.4,1657.6
		c1.5-1.5,1.1-2.2-0.6-1.2c-1.5,1-2,2.1-0.9,2.1C5479.2,1658.5,5479.9,1658.1,5480.4,1657.6L5480.4,1657.6z M5636.5,1657.4
		c0-0.2-0.3-0.5-0.8-0.8s-0.8-0.1-0.8,0.3s0.3,0.8,0.8,0.8S5636.5,1657.6,5636.5,1657.4z M5453.7,1656.5c-0.7-0.2-1.9-0.2-2.7,0
		c-0.7,0.2-0.1,0.3,1.3,0.3S5454.4,1656.7,5453.7,1656.5L5453.7,1656.5z M5649.1,1656.3c-0.4-0.4-1.8-1-3-1.3
		c-2.1-0.5-2.2-0.4-1.2,0.7c0.6,0.7,1.9,1.3,3,1.3C5649,1657,5649.5,1656.7,5649.1,1656.3z M5448.8,1655.3c-0.2-0.3-0.9-0.6-1.5-0.6
		s-1.1,0.3-1.1,0.6s0.7,0.6,1.5,0.6S5449,1655.6,5448.8,1655.3z M5385.2,1655c-0.3-0.3-0.9-0.3-1.5-0.1c-0.6,0.2-0.4,0.4,0.5,0.5
		C5385,1655.4,5385.4,1655.3,5385.2,1655L5385.2,1655z M5459.2,1654.8c0-0.4-0.9-0.5-1.9-0.3c-1,0.2-1.9,0.5-1.9,0.7
		s0.9,0.3,1.9,0.3C5458.4,1655.5,5459.2,1655.2,5459.2,1654.8L5459.2,1654.8z M5470.6,1654.2c0-0.2-0.5-0.3-1.1-0.3
		s-1.1,0.3-1.1,0.7c0,0.4,0.5,0.5,1.1,0.3C5470.1,1654.7,5470.6,1654.4,5470.6,1654.2z M5554.1,1655c-0.3-0.3-0.9-0.3-1.5-0.1
		c-0.6,0.2-0.4,0.4,0.5,0.5C5553.9,1655.4,5554.4,1655.3,5554.1,1655L5554.1,1655z M5615.8,1655c-0.3-0.3-0.9-0.3-1.5-0.1
		c-0.6,0.2-0.4,0.4,0.5,0.5C5615.6,1655.4,5616,1655.3,5615.8,1655L5615.8,1655z M5452.7,1654c0.3-0.4,0-0.6-0.7-0.3
		c-1.3,0.5-1.6,1.1-0.5,1.1C5452,1654.7,5452.5,1654.4,5452.7,1654z M5464.4,1653.2c0.2-0.6-0.1-0.9-0.7-0.7
		c-0.5,0.2-1.1,0.8-1.3,1.3c-0.2,0.6,0.1,0.9,0.7,0.7C5463.6,1654.4,5464.2,1653.8,5464.4,1653.2z M5474.8,1654
		c0.3-0.4,0-0.6-0.7-0.3c-1.3,0.5-1.6,1.1-0.5,1.1C5474,1654.7,5474.6,1654.4,5474.8,1654z M5479.7,1653.5c0.2-0.2,0.2-0.4,0-0.6
		c-0.6-0.6-3.7,0.5-3.7,1.3C5476,1654.7,5478.8,1654.2,5479.7,1653.5L5479.7,1653.5z M5531.5,1653.6c0.5-0.7,0.6-1.1,0.2-1.1
		c-0.4,0-1,0.5-1.2,1.1c-0.2,0.6-0.3,1.1-0.2,1.1S5531,1654.2,5531.5,1653.6z M5473.5,1651.4c0.3-0.3-0.3-0.4-1.5-0.2
		s-2.9,0.6-4,0.8c-1,0.2-1.9,0.7-1.9,1C5466.1,1653.8,5472.5,1652.3,5473.5,1651.4L5473.5,1651.4z M5483.6,1653.2
		c0-0.4-0.5-0.5-1.1-0.3s-1.1,0.6-1.1,0.7c0,0.2,0.5,0.3,1.1,0.3S5483.6,1653.6,5483.6,1653.2z M5560,1651.6c3-1,5.4-1.4,7.2-1.1
		c2,0.3,2.4,0.3,1.6-0.3c-1.6-1.1-4.2-1-10,0.4c-2.9,0.7-5.3,1.7-5.5,2.4c-0.3,0.8-0.1,1,0.9,0.6
		C5554.9,1653.3,5557.5,1652.4,5560,1651.6L5560,1651.6z M5622.8,1653.2c0-0.4-0.6-0.8-1.3-0.7c-1.1,0-1.2,0.1-0.2,0.7
		C5622.8,1654.1,5622.8,1654.1,5622.8,1653.2L5622.8,1653.2z M5493.8,1652.4c0.3-0.4,0.1-0.8-0.3-0.8s-0.8,0.3-0.8,0.8
		c0,0.4,0.2,0.8,0.3,0.8S5493.6,1652.8,5493.8,1652.4z M5456.9,1651.7c1.9-1.2,0.5-1.5-1.5-0.4c-1.1,0.6-1.4,1.1-0.8,1.1
		C5455.3,1652.4,5456.3,1652.1,5456.9,1651.7L5456.9,1651.7z M5633.5,1649.9c-0.9-1.4-2.6-4.4-3.8-6.7c-1.2-2.3-3.4-5.4-5-6.8
		c-1.5-1.5-3.3-3.9-3.9-5.3c-1.1-2.6-5.9-7.2-12.3-11.7c-1.7-1.2-3.8-3.6-4.7-5.3c-1.9-3.6-6.8-9.7-6.9-8.3c0,0.5,0.8,1.9,1.9,3.2
		s1.9,2.6,1.9,3c0,0.4,0.6,1,1.3,1.2c0.7,0.3,1,0.7,0.8,0.9c-0.6,0.6-4.3-1.8-4.3-2.9c0-1.8-6.7-7.5-10.3-8.7
		c-2.1-0.7-5.9-2.3-8.5-3.5c-2.6-1.2-5.9-2.2-7.2-2.1c-1.8,0.1-2,0.2-0.8,0.4c0.9,0.2,1.7,0.6,1.7,0.8c0,0.3,1,0.6,2.2,0.7
		c2.2,0.2,8.1,3.7,10,5.9c0.5,0.6,2.2,1.2,3.7,1.2c2.2,0,3.2,0.6,5.4,3.1c3.8,4.4,16.6,17.9,20.1,21.1c1.6,1.5,4.9,5.3,7.2,8.4
		c5,6.6,11.5,13.7,12.5,13.7C5634.8,1652.4,5634.4,1651.3,5633.5,1649.9L5633.5,1649.9z M5374.4,1650.1c-5.5-1.5-7.3-1.6-3.7-0.1
		c2.7,1.1,4.7,1.5,7.1,1.5C5378.8,1651.6,5377.3,1650.9,5374.4,1650.1z M5450.5,1650.9c0.3-0.4,0.1-0.8-0.3-0.8
		c-0.4,0-1,0.3-1.2,0.8s-0.1,0.8,0.3,0.8S5450.2,1651.3,5450.5,1650.9L5450.5,1650.9z M5462.6,1650.9c0.3-0.4,0.1-0.8-0.3-0.8
		c-0.4,0-0.8,0.3-0.8,0.8s0.2,0.8,0.3,0.8S5462.4,1651.3,5462.6,1650.9z M5611.2,1651.1c-0.7-0.2-2.1-0.2-3,0
		c-0.9,0.2-0.4,0.3,1.3,0.3C5611.2,1651.5,5612,1651.3,5611.2,1651.1L5611.2,1651.1z M5457.7,1648.6c1.9-0.6,2.9-1.1,2.3-1.3
		c-1.7-0.4-7.1,1.7-7.5,2.9c-0.3,0.8-0.1,0.9,0.7,0.3C5453.8,1650,5455.8,1649.2,5457.7,1648.6L5457.7,1648.6z M5521.6,1649.8
		c0-0.6-0.3-1.1-0.7-1.1c-0.4,0-0.5,0.5-0.3,1.1c0.2,0.6,0.6,1.1,0.7,1.1S5521.6,1650.4,5521.6,1649.8L5521.6,1649.8z
		 M5484.7,1649.5c0.2-0.4-0.4-0.6-1.4-0.6c-1,0.1-1.7,0.4-1.5,0.7C5482.3,1650.4,5484.2,1650.3,5484.7,1649.5z M5514.8,1649.4
		c0-0.4-0.2-0.8-0.3-0.8c-0.2,0-0.5,0.3-0.8,0.8s-0.1,0.8,0.3,0.8S5514.8,1649.8,5514.8,1649.4z M5604.2,1649.4
		c-0.3-0.4-1.1-0.8-1.9-0.8c-1.8,0-3.8-0.8-3.8-1.5c0-0.3,0.9-0.5,2.1-0.3c2.1,0.3,2.1,0.3,0.2-0.4c-2.7-0.9-8.4-1-8.4-0.1
		c0,0.4,1,0.8,2.2,0.8s2.5,0.5,2.9,1.1c0.3,0.6,1.8,1.2,3.3,1.4s2.9,0.4,3.3,0.4C5604.4,1650.1,5604.5,1649.8,5604.2,1649.4
		L5604.2,1649.4z M5607.4,1649.7c-0.3-0.3-0.9-0.3-1.5-0.1c-0.6,0.2-0.4,0.4,0.5,0.5C5607.2,1650.1,5607.7,1649.9,5607.4,1649.7
		L5607.4,1649.7z M5465.7,1648.6c0.6-0.9-0.2-0.9-2.3,0c-1.5,0.6-1.5,0.7,0.1,0.7C5464.5,1649.4,5465.4,1649,5465.7,1648.6z
		 M5469.8,1647.2c-0.9-0.1-2,0.2-2.5,0.7c-0.7,0.7-0.6,0.8,0.4,0.5c0.7-0.3,1.5-0.1,1.8,0.3c0.3,0.5,0.7,0.5,1.1-0.2
		C5471.2,1647.8,5470.9,1647.4,5469.8,1647.2L5469.8,1647.2z M5616.4,1648.6c-0.3-0.4-1.2-0.7-2.1-0.7c-1.6,0.1-1.6,0.1-0.1,0.7
		C5616.2,1649.5,5616.9,1649.5,5616.4,1648.6z M5399.5,1646.7c-4.7-2-14-4.5-14.6-3.9c-0.3,0.3,7.8,3.1,14.2,4.9
		C5403.9,1649.1,5404.1,1648.6,5399.5,1646.7L5399.5,1646.7z M5452.8,1645.7c-0.6-0.6-2.7,1.5-2.2,2.3c0.3,0.5,0.9,0.3,1.5-0.6
		C5452.7,1646.7,5453,1645.9,5452.8,1645.7z M5477.8,1647.4c0.7-0.3,1.2-0.8,1.2-1.1c0-1.1-2.6-0.8-4.2,0.4
		c-1.4,1.1-1.4,1.1,0.2,1.1C5475.9,1647.8,5477.1,1647.6,5477.8,1647.4z M5493,1646.7c0.7-1.9,0.6-2.1-0.7-1.1
		c-1.3,1.1-1.5,2.3-0.5,2.3C5492.2,1647.9,5492.7,1647.3,5493,1646.7L5493,1646.7z M5457.5,1646.2c1.4-0.5,2.5-1.2,2.5-1.5
		c0-1.1-3.7-0.6-4.9,0.6C5453,1647.4,5453.6,1647.6,5457.5,1646.2z M5468.2,1645.6c1.4-0.8,2.5-1.7,2.5-1.9c0-0.5-5.5,1.8-6.4,2.7
		C5462.9,1647.7,5465.6,1647.1,5468.2,1645.6L5468.2,1645.6z M5537.4,1646.6c-0.3-0.3-0.9-0.3-1.5-0.1c-0.6,0.2-0.4,0.4,0.5,0.5
		C5537.2,1647.1,5537.7,1646.9,5537.4,1646.6L5537.4,1646.6z M5520.5,1645c-0.2-0.5,0.4-1.1,1.3-1.3c1.6-0.4-12.9,0.2-15.7,0.6
		c-0.7,0.1-1.7,0.5-2.1,0.9c-0.5,0.5,2.2,0.7,8,0.7C5518.5,1646,5520.8,1645.7,5520.5,1645L5520.5,1645z M5374.9,1644.1
		c1-0.4,3.8-1.1,6.3-1.7c2.5-0.5,3.9-1.1,3.2-1.2c-1.2-0.3-5.5,0.5-9.9,1.8c-0.8,0.2-1.2,0.1-1-0.3c0.3-0.4,1.5-1,2.9-1.2
		c1.3-0.3,2.3-0.6,2.1-0.8c-0.7-0.7-5.1,1-6.7,2.6c-1.5,1.5-1.5,1.6-0.1,1.6C5372.5,1644.8,5373.9,1644.5,5374.9,1644.1
		L5374.9,1644.1z M5463.5,1642.7c-0.5-0.5-2,0.5-2,1.5c0,0.5,0.4,0.4,1.2-0.2C5463.3,1643.5,5463.7,1642.9,5463.5,1642.7z
		 M5475.5,1643.6c1.4-1.1,1.4-1.1-0.5-1.1c-1.1,0-2.4,0.5-2.9,1.1c-0.8,0.9-0.7,1.1,0.5,1.1
		C5473.4,1644.8,5474.7,1644.3,5475.5,1643.6z M5369.2,1643.6c-0.3-0.3-0.9-0.3-1.5-0.1c-0.6,0.2-0.4,0.4,0.5,0.5
		C5369,1644,5369.5,1643.8,5369.2,1643.6L5369.2,1643.6z M5454.6,1642.9c0.8-0.9,0.7-1.1-0.2-1.1c-0.6,0-1.4,0.5-1.6,1.1
		c-0.2,0.6-0.1,1.1,0.2,1.1S5454.1,1643.5,5454.6,1642.9z M5479.8,1642.8c0-1-0.2-1.1-1.1-0.3c-0.6,0.5-1.1,1.1-1.1,1.2
		s0.5,0.3,1.1,0.3S5479.8,1643.5,5479.8,1642.8z M5483.9,1641.9c-0.5-0.5-2.7,0.6-2.7,1.4c0,0.5,0.5,0.5,1.5-0.1
		C5483.6,1642.6,5484.1,1642.1,5483.9,1641.9L5483.9,1641.9z M5602.5,1641.9c-1.4-1.2-2.5-2.5-2.5-3s-0.5-0.9-1.1-0.9
		s-1.1-0.5-1.1-1.1c0-1.3-3.3-4-6.7-5.4c-2.9-1.2-3.3-2.6-0.6-2.1c2.2,0.4,3.8-1.9,3.1-4.7c-0.6-2.5,0.2-3.9,1.6-2.7
		c1.1,1,0.9,5.8-0.4,7c-0.4,0.4,0.3,1.7,1.9,3.3l2.6,2.6l2.3-1.6c1.2-0.9,2.9-1.5,3.6-1.3c1,0.2,0.7,0.6-1.3,1.7
		c-2,1.1-2.3,1.5-1.3,1.7c0.7,0.2,1.1,0.6,0.9,1c-0.6,1,0.5,0.9,2.9-0.2c1.6-0.8,1.9-1.3,1.5-2.9c-1.4-5.5-7.7-13.4-12.3-15.4
		c-3.8-1.6-8.6-5.7-11.4-9.5c-2-2.7-3.1-3.2-3.1-1.4c0,0.6-0.3,1.1-0.8,1.1s-0.8,0.5-0.8,1.1c0,0.6,0.3,1.1,0.8,1.1
		c1.7,0,0.6,1.4-1.6,2.2c-3.8,1.3-5.3,0.1-6.2-5.4c-0.2-1.2-0.5-1.2-4,0.5c-2.1,1-4.5,2.6-5.3,3.5l-1.5,1.7l1.7-0.4
		c0.9-0.2,1.8-0.1,1.9,0.3c0.1,0.4,3.1,1.2,6.7,1.9c12.2,2.1,16.5,3.9,19,8c1.5,2.4,1.3,5.2-0.3,5.2c-1.9,0-6.2-1.8-8.3-3.6
		c-1.5-1.2-2.9-1.7-4.5-1.6c-2,0.2-2.4,0.6-3.3,4c-0.5,2.1-1,3.9-1,4c0,0.1,0.5,0.2,1.1,0.2s1.1-0.3,1.1-0.7c0-0.4,1.3,0,2.8,0.8
		c1.5,0.8,4.5,1.7,6.5,1.9c2,0.3,4,1,4.5,1.5c0.5,0.6,1.6,0.9,2.6,0.6c1.4-0.4,1.9-0.1,2.3,1.5c0.3,1.1,0.4,2.5,0.2,3.3
		c-0.2,1.1,0.6,1.6,4.3,2.7C5605.1,1644.4,5605.3,1644.3,5602.5,1641.9L5602.5,1641.9z M5612.5,1642.9c-0.2-0.6-0.9-1.1-1.5-1.1
		c-1.5,0-1.3,1.3,0.3,1.8c0.7,0.2,1.4,0.4,1.5,0.4C5612.8,1644,5612.7,1643.5,5612.5,1642.9z M5461.8,1640.9c1-0.9-2.4-0.8-4.2,0.1
		c-2.4,1.3-1.7,2.3,1,1.4C5460,1641.9,5461.4,1641.3,5461.8,1640.9z M5490.1,1640.4c2.3-4.4,2.2-4.6-0.3-1.7
		c-1.3,1.5-2.4,3.1-2.4,3.6C5487.4,1644.2,5488.6,1643.3,5490.1,1640.4z M5497.1,1641.2c1.5-2.3,0.8-2.1-1.4,0.3
		c-1,1.1-1.4,1.9-0.8,1.7S5496.5,1642.1,5497.1,1641.2L5497.1,1641.2z M5471.8,1641.8c1.4-0.6,1.4-0.7-0.4-0.7c-1,0-2.4,0.3-3,0.7
		c-0.9,0.6-0.9,0.7,0.4,0.7C5469.6,1642.4,5470.9,1642.1,5471.8,1641.8z M5514.8,1641.8c0.8-0.5-0.4-0.7-4-0.7
		c-2.8,0-5.3,0.3-5.6,0.7C5504.6,1642.8,5513.2,1642.8,5514.8,1641.8z M5541.1,1640.9c0.2-0.4,1.1-0.7,2-0.7c1.2,0,1.4-0.2,0.8-0.8
		s-1.7-0.4-4,0.8c-1.7,0.9-3.1,1.7-3.1,1.9C5536.8,1642.6,5540.7,1641.6,5541.1,1640.9L5541.1,1640.9z M5452.7,1639.3
		c1.4-2,0.7-3-1.4-2.4c-2.1,0.6-1.8,0.4-2.4,2.7c-0.5,1.8-0.3,2,1.1,1.6C5450.9,1641,5452.1,1640.1,5452.7,1639.3L5452.7,1639.3z
		 M5521.8,1641.2c-0.9-0.2-2.5-0.2-3.4,0s-0.2,0.3,1.7,0.3C5522,1641.6,5522.7,1641.4,5521.8,1641.2z M5382,1640.2
		c1.3-0.6,1.3-0.7-0.6-0.7c-1.2,0-2.1,0.3-2.1,0.7C5379.3,1641.1,5379.9,1641.1,5382,1640.2z M5465.7,1640.2c0.4-0.6,0.7-0.6,1.1,0
		c0.4,0.6,0.8,0.5,1.5-0.3c0.9-1,0.7-1.1-0.8-0.9c-1,0.2-2.2,0.4-2.8,0.4c-1.1,0.1-1.3,1.6-0.2,1.6
		C5464.9,1641,5465.4,1640.6,5465.7,1640.2L5465.7,1640.2z M5478.2,1640.2c1-0.7,1-0.7,0-0.7c-0.6,0-1.8,0.3-2.7,0.7
		c-1.5,0.7-1.5,0.7,0,0.7C5476.4,1641,5477.6,1640.7,5478.2,1640.2z M5592.9,1639.8c0.3-0.7,0.1-1.6-0.4-2.1
		c-0.6-0.6-0.9-0.4-0.9,0.8c0,0.9-0.3,1.7-0.6,1.7c-1,0-3.2-2-3.2-2.8c0-0.4-0.9-1-2.1-1.2c-1.2-0.3-2.9-0.7-4-0.9
		c-1.8-0.4-1.9-0.4-0.4,0.7c0.8,0.7,2.3,1.2,3.3,1.2c1.3,0,1.7,0.4,1.6,1.3C5585.8,1640.6,5592.1,1641.9,5592.9,1639.8z
		 M5611,1640.2c0.6-0.9-0.9-0.9-3,0c-1.4,0.6-1.3,0.7,0.5,0.7C5609.6,1641,5610.8,1640.7,5611,1640.2L5611,1640.2z M5455.9,1639.7
		c0.8-0.5,2.6-3.5,2.6-4.2c0-0.2-0.7-0.2-1.5,0c-0.8,0.2-1.8,1.4-2.2,2.6C5454,1640.2,5454.3,1640.7,5455.9,1639.7L5455.9,1639.7z
		 M5485.8,1636.5c-0.5-0.2-1.4,0.3-1.9,1.1c-1.7,2.3-1.1,3,0.9,1.1C5486,1637.5,5486.4,1636.7,5485.8,1636.5z M5497,1635.2
		c-1-1-3.6,1.4-3.6,3.2v1.9l2-2.4C5496.5,1636.7,5497.3,1635.4,5497,1635.2z M5539.5,1638.1c-0.3-0.3-1.1,0.2-1.8,0.9
		c-1.3,1.3-1.2,1.3,0.5,0.5C5539.2,1639,5539.8,1638.4,5539.5,1638.1z M5460.7,1637.4c1-1.3,1.3-2.2,0.8-2.4
		c-1.1-0.4-2.8,1.1-3.3,2.9C5457.7,1640.1,5458.8,1639.8,5460.7,1637.4L5460.7,1637.4z M5473.7,1638.3c1.3-1.6-0.7-1.6-2.7,0
		c-1.4,1.1-1.4,1.1,0.1,1.1C5472,1639.5,5473.1,1639,5473.7,1638.3L5473.7,1638.3z M5363.5,1638.2c-0.5-0.2-1.4-0.2-1.9,0
		s-0.1,0.4,1,0.4S5364,1638.4,5363.5,1638.2L5363.5,1638.2z M5488.4,1637.5c0.3-0.7,0.1-1-0.3-0.7c-0.4,0.3-0.8,0.8-0.8,1.2
		C5487.4,1639.1,5487.9,1638.9,5488.4,1637.5L5488.4,1637.5z M5609,1638c1.6-1-0.4-1.8-2.2-0.9c-0.8,0.5-1.5,1-1.5,1.2
		C5605.3,1639,5607.9,1638.7,5609,1638L5609,1638z M5465.3,1636.3c1.8-2,2-2.9,0.5-2.9c-0.6,0-1.8,1-2.7,2.3
		c-1.3,1.8-1.4,2.3-0.5,2.3C5463.2,1638,5464.4,1637.2,5465.3,1636.3L5465.3,1636.3z M5552.7,1635.9c1.4-0.6,2.4-1.3,2.2-1.4
		c-0.4-0.4-7.2,2.3-7.9,3.1C5546.2,1638.3,5549.3,1637.4,5552.7,1635.9L5552.7,1635.9z M5470.6,1634.8c1.3-1.3,2.2-2.5,2-2.7
		c-0.7-0.7-4.2,1.3-5.3,3.1C5465.4,1638.2,5467.7,1637.9,5470.6,1634.8L5470.6,1634.8z M5482,1636c0.8-0.7-2.7-0.2-3.7,0.5
		c-0.8,0.6-0.5,0.6,1.1,0.3C5480.6,1636.5,5481.8,1636.1,5482,1636L5482,1636z M5573.9,1636.7c-0.3-0.3-0.9-0.3-1.5-0.1
		c-0.6,0.2-0.4,0.4,0.5,0.5C5573.7,1637.2,5574.2,1637,5573.9,1636.7L5573.9,1636.7z M5371.1,1633.6c1.5-3.3,3.1-12,2.7-15.1
		c-0.2-2-0.6-1.8-6.5,4.9c-7.1,8.1-7.8,10.1-3.8,11.8C5367.8,1637.2,5369.6,1636.8,5371.1,1633.6L5371.1,1633.6z M5561.7,1636
		c-0.3-0.3-0.9-0.3-1.5-0.1c-0.6,0.2-0.4,0.4,0.5,0.5C5561.5,1636.4,5562,1636.2,5561.7,1636L5561.7,1636z M5476.3,1634.8
		c1.1-0.5,2.4-1.7,3.1-2.6c1.1-1.7,1.1-1.7-1-1.1c-2.7,0.8-5.3,2.4-5.8,3.6C5472.1,1635.9,5473.7,1636,5476.3,1634.8L5476.3,1634.8z
		 M5490.6,1633.1c1.4-1.5,1.4-1.5,1-0.1c-0.4,1.5-0.4,1.5,0.7,0c1.4-1.8,1.5-4.2,0.2-4.2c-0.5,0-2.2,1.5-3.8,3.3
		c-2.4,2.9-2.6,3.3-1.1,2.9C5488.5,1634.8,5489.9,1633.9,5490.6,1633.1L5490.6,1633.1z M5502.6,1634c0-0.4-0.5-0.4-1.1,0.2
		c-0.6,0.5-1.1,1.1-1.1,1.2c0,0.1,0.5,0.1,1.1-0.2C5502.1,1635,5502.6,1634.4,5502.6,1634z M5557.2,1631.8l4.6-1l-1.5-2.9
		c-0.8-1.6-1.5-3.7-1.5-4.8c0-2.3-1-3.1-2.2-1.7c-0.7,0.8-0.6,1.1,0.1,1.4c0.6,0.2,0,0.9-1.5,1.6c-3.3,1.7-4.1,1.6-1.8-0.3
		c1.5-1.2,1.6-1.4,0.4-1c-0.8,0.3-2,0.9-2.5,1.3c-1.4,1.1,0.4,2.1,2.9,1.6c1.3-0.3,0.9,0.2-1.4,1.6c-3.9,2.3-4,2.3-3.4,0.7
		c0.4-1,0.2-1.1-1.1-0.4c-2.2,1.2-2.7,2.2-1.1,2.1c1-0.1,1.4,0.6,1.6,2.4c0.2,2.4,0.3,2.5,2,1.4
		C5551.8,1633.3,5554.7,1632.3,5557.2,1631.8L5557.2,1631.8z M5483.5,1632.7c1.4-2.6,0.8-3.2-1.1-1.1c-2.2,2.4-2.3,2.6-0.8,2.6
		C5482.2,1634.2,5483.1,1633.5,5483.5,1632.7L5483.5,1632.7z M5496.8,1633.7c0.7-0.3,1.2-1.3,1.2-2.5l0-2l-1.5,1.8
		C5494.3,1633.6,5494.4,1634.6,5496.8,1633.7L5496.8,1633.7z M5542.5,1631.3c-0.5-1.9-0.6-2-1.1-0.6c-0.3,0.8-0.2,2,0.2,2.5
		C5542.7,1634.7,5543.2,1633.8,5542.5,1631.3L5542.5,1631.3z M5563.3,1633.7c2.2-0.3,4-0.7,4-1c0-0.6-6.1-0.1-9.5,0.8
		c-2.1,0.6-2.1,0.6-0.4,0.7C5558.4,1634.1,5561.1,1633.9,5563.3,1633.7L5563.3,1633.7z M5574.3,1632.9c-0.5-0.2-1.4-0.2-1.9,0
		s-0.1,0.4,1,0.4S5574.8,1633.1,5574.3,1632.9L5574.3,1632.9z M5577.9,1632.6c-1.5-1-2.3-1-2.3,0c0,0.4,0.8,0.8,1.7,0.7
		C5578.7,1633.4,5578.9,1633.2,5577.9,1632.6z M5488.5,1628.9c-0.8-0.8-2.6,0.8-2.6,2.2c0,1.6,0,1.6,1.5-0.2
		C5488.1,1630,5488.6,1629.1,5488.5,1628.9z M5382.7,1631.1c0.3-0.4-0.1-0.8-0.7-0.8c-0.7,0-1.2,0.3-1.2,0.8s0.3,0.8,0.7,0.8
		S5382.5,1631.5,5382.7,1631.1z M5470.2,1629.6c0.8-0.8,1.2-1.7,0.9-2c-0.8-0.8-3.6,0.5-4.4,2c-0.6,1.2-0.5,1.5,0.6,1.5
		C5468.2,1631.1,5469.5,1630.4,5470.2,1629.6z M5568,1625.8c0.5-2.5,0.8-4.8,0.6-5c-0.2-0.2-1.8-0.6-3.6-0.8
		c-3.1-0.4-3.2-0.3-2.6,1.4c0.3,1,0.6,3.4,0.6,5.4c0,3.4,0.1,3.6,2,3.6C5566.9,1630.4,5567.2,1630,5568,1625.8z M5476.2,1628.5
		c0.7-1.8-1.4-3-2.8-1.5c-0.7,0.7-1.2,1.5-1.2,1.9C5472.1,1630,5475.7,1629.7,5476.2,1628.5L5476.2,1628.5z M5484.4,1626.9
		c0.7-0.9,0.6-1.1-0.8-1.1c-1.8,0-5.6,2.5-4.9,3.3C5479.3,1629.7,5483.3,1628.1,5484.4,1626.9z M5502.3,1623.5
		c-0.7-2.2-1.3-4.6-1.3-5.4c0-0.8-0.4-1.4-0.8-1.4c-0.9,0-0.4,4.7,0.9,7c0.4,0.8,0.6,2.6,0.3,3.9c-0.5,2.3-0.4,2.4,0.8,1.1
		C5503.5,1627.5,5503.5,1627.2,5502.3,1623.5z M5467.1,1626.7c0.3-0.3,1.1-0.6,1.8-0.6c3.5-0.2,3.9-0.4,3.9-1.4c0-1.4-1.1-1.5-2.5,0
		c-0.6,0.6-1.3,0.9-1.5,0.7c-0.6-0.6-3.6,0.5-3.6,1.3C5465.3,1627.5,5466.3,1627.5,5467.1,1626.7L5467.1,1626.7z M5491.2,1626.1
		c0.5-0.6,0.8-1.4,0.5-1.6c-0.7-0.7-3.4,0.4-3.9,1.6C5487.3,1627.7,5489.9,1627.7,5491.2,1626.1L5491.2,1626.1z M5496.2,1623.9
		c-0.6-1.6-2-1.5-1.6,0.1c0.1,0.7,0.3,1.7,0.3,2.1c0,0.4,0.4,0.3,0.9-0.1C5496.3,1625.5,5496.5,1624.6,5496.2,1623.9L5496.2,1623.9z
		 M5546.7,1625.7c0-0.3-0.3-0.6-0.7-0.6s-0.9,0.3-1.1,0.6c-0.2,0.3,0.1,0.6,0.7,0.6S5546.7,1626,5546.7,1625.7z M5589,1625
		c0.5-0.8-7.4-4.8-11.2-5.7c-4-1-2.1,0.8,2.3,2.1c2.4,0.7,5.1,2,5.9,2.8C5587.7,1625.9,5588.3,1626.1,5589,1625L5589,1625z
		 M5377.7,1622.9c0-1.8-0.1-1.9-0.7-0.6c-0.3,0.8-0.5,1.8-0.3,2.1C5377.4,1625.6,5377.8,1625,5377.7,1622.9z M5384.6,1621.1
		c-1.1-0.4-2.1-0.3-2.6,0.2c-0.6,0.6-0.4,0.7,0.5,0.3c0.7-0.3,1.3-0.2,1.3,0.3s-0.5,1-1.1,1.2c-0.6,0.2-1.1,0.8-1.1,1.3
		s1.1,0.1,2.4-0.9l2.4-1.7L5384.6,1621.1L5384.6,1621.1z M5481.7,1622.6l1.4-1.6l-2.3,0.5c-1.3,0.3-2.8,1-3.4,1.6
		c-1,1-0.9,1.1,0.8,1.1C5479.4,1624.3,5480.9,1623.5,5481.7,1622.6z M5487.7,1622.4c0.7-1,1.2-2.6,1.2-3.4c0-1.3-0.4-1.1-2.7,1.4
		c-3.1,3.4-3.2,3.9-1.2,3.9C5485.8,1624.3,5487,1623.4,5487.7,1622.4z M5471.6,1619.7c1.2-2.1,2.5-3.8,2.9-3.8
		c1.1,0,0.9,0.7-0.9,3.6c-0.9,1.4-1.4,2.8-1.2,3.1c0.7,0.7,2.6-1.2,3.2-3c0.3-0.9,1.7-3.4,3.1-5.6s2.6-4.4,2.6-4.8
		c0-0.4,0.7-1.2,1.5-1.7c1.8-1.1,2-2.3,0.3-1.6c-0.9,0.3-1.1,0.1-0.9-1c0.2-0.8,0.9-1.6,1.7-1.7c1-0.2,1.2,0,0.8,0.7
		c-0.4,0.6-0.3,0.8,0.2,0.5c0.4-0.3,0.6-1.3,0.4-2.4c-0.3-1.6-0.1-1.9,1.6-1.9c1.1,0,2.2-0.3,2.4-0.8c0.6-1-0.5-1-3,0
		c-1.1,0.4-2,1.2-2,1.8s-0.7,1.3-1.5,1.5c-0.9,0.2-1.5,1-1.5,2c0,0.9-0.3,1.6-0.6,1.6s-1.3,1.3-2.1,2.8s-2.7,4.1-4.2,5.6
		c-2.8,3-6.6,9.1-5.6,9.1C5469.2,1623.5,5470.4,1621.8,5471.6,1619.7L5471.6,1619.7z M5492.3,1622.8c1.5-0.6,2-1.3,2-3.1v-2.4
		l-1.7,2.2c-0.9,1.2-2,2.3-2.3,2.4c-0.6,0.3-0.8,1.6-0.3,1.6C5490.2,1623.5,5491.2,1623.2,5492.3,1622.8L5492.3,1622.8z
		 M5497.5,1621.6c0.2-0.6,0.1-1.1-0.3-1.1s-0.7,0.5-0.7,1.1c0,0.6,0.1,1.1,0.3,1.1S5497.3,1622.2,5497.5,1621.6L5497.5,1621.6z
		 M5544.6,1621.7c1.9-1.5,1.6-2.1-0.6-1.1c-1,0.5-1.9,1.2-1.9,1.5C5542.2,1623,5543.1,1622.9,5544.6,1621.7z M5480.1,1617.5
		c-0.2-0.2,0.2-0.8,1-1.4c1.5-1.1,0.4-1.4-1.3-0.3c-0.6,0.4-0.9,0.9-0.6,1.2s-0.3,1.2-1.4,2c-1,0.8-1.9,1.9-1.9,2.3s1-0.1,2.3-1.3
		C5479.5,1618.9,5480.3,1617.7,5480.1,1617.5L5480.1,1617.5z M5487.2,1616.1c3.1-3.9,5.3-8.3,4.4-9.1c-0.2-0.2-0.6,0.4-0.9,1.4
		c-0.3,1-2.7,4.1-5.4,6.7c-4.1,4-4.7,4.9-3.6,5.4c0.7,0.3,1.5,0.3,1.8,0C5483.8,1620.3,5485.5,1618.3,5487.2,1616.1L5487.2,1616.1z
		 M5585.5,1620.1c-0.5-0.6-1.5-1.1-2.2-1.1c-0.8,0-0.6,0.4,0.7,1.1C5586.5,1621.4,5586.7,1621.4,5585.5,1620.1L5585.5,1620.1z
		 M5558,1618.5c4.5-1.1,6.1-1.2,8.5-0.5c3.5,1.1,4.6,1.1,4.6,0.2c0-0.4-2-1-4.4-1.3c-4.5-0.6-15,1.4-16,3c-0.3,0.4,0,0.6,0.6,0.3
		C5552,1620.1,5554.9,1619.3,5558,1618.5L5558,1618.5z M5616.5,1619.1c-0.2-0.4-2.9-2.4-6-4.4c-3.1-2-5.8-4.1-6.2-4.5
		c-0.4-0.5-0.5-0.5-0.4,0.1c0.1,0.5,3,3,6.3,5.5C5615.9,1620,5617.6,1620.9,5616.5,1619.1L5616.5,1619.1z M5390.7,1617.8
		c0.8-1,0.6-1.1-1.8-1.1c-1.9,0-2.8,0.3-2.8,1.1c0,0.7,0.7,1.1,1.8,1.1C5389,1618.9,5390.2,1618.4,5390.7,1617.8z M5453.7,1617.7
		c1.3-0.4,1.3-0.5,0-1.2c-1-0.5-1.7-0.5-2.5,0.1c-1.4,1.2-1.4,2.3,0,1.8C5451.8,1618.3,5453,1618,5453.7,1617.7z M5494.2,1612.6
		c-0.1-2.4-0.1-2.4-1.9,1.4c-2.3,4.9-2.3,5.3,0,3C5493.6,1615.7,5494.2,1614.3,5494.2,1612.6L5494.2,1612.6z M5497.2,1615.7
		c0-0.8-0.3-1.2-0.7-0.9c-0.4,0.3-0.8,1.4-0.7,2.5c0,1.6,0.2,1.8,0.7,0.9C5496.9,1617.5,5497.2,1616.4,5497.2,1615.7L5497.2,1615.7z
		 M5579.6,1617.7c-0.5-0.2-1.4-0.2-1.9,0s-0.1,0.4,1,0.4S5580.2,1617.9,5579.6,1617.7L5579.6,1617.7z M5385.4,1617.1
		c0-0.2-0.3-0.5-0.8-0.8c-0.4-0.3-0.8-0.1-0.8,0.3s0.3,0.8,0.8,0.8S5385.4,1617.3,5385.4,1617.1z M5377,1615.1
		c0-0.4-0.3-0.7-0.8-0.7s-0.8,0.5-0.8,1.2c0,0.7,0.3,1,0.8,0.7C5376.7,1616,5377,1615.5,5377,1615.1z M5552.5,1615
		c0.3-0.5-0.2-0.5-1.3-0.2c-2.6,0.8-3.4,1.8-1.1,1.3C5551.2,1615.9,5552.3,1615.4,5552.5,1615z M5573.2,1616.1
		c-0.7-0.2-1.9-0.2-2.7,0s-0.1,0.3,1.3,0.3S5573.9,1616.3,5573.2,1616.1L5573.2,1616.1z M5384.3,1614.5c-0.2-0.2-0.8,0-1.4,0.5
		c-0.7,0.8-0.7,0.8,0.4,0.4C5384.1,1615.2,5384.5,1614.8,5384.3,1614.5L5384.3,1614.5z M5567.9,1615.5c-0.6-0.6-5.9-0.7-6.5-0.2
		c-0.3,0.3,1.1,0.5,3.1,0.5S5568.1,1615.7,5567.9,1615.5z M5556.8,1612.4c0.2-1,0.1-1.8-0.3-1.8c-0.4,0-0.7,0.5-0.7,1.1
		s-0.5,1.1-1.1,1.1s-1.1,0.5-1.1,1.1C5553.6,1615.7,5556.4,1614.4,5556.8,1612.4z M5387.9,1613.2c-0.2-0.6-0.8-0.9-1.2-0.7
		c-0.5,0.3-0.4,0.7,0.3,1.1C5388.4,1614.6,5388.5,1614.5,5387.9,1613.2z M5403.3,1607.6c0.8-1.1,2.2-2.5,3-3.3
		c0.8-0.7,1.2-1.3,0.9-1.3c-0.7,0-11.2,10.5-11.2,11.1C5396,1614.8,5401.6,1609.7,5403.3,1607.6L5403.3,1607.6z M5486,1611.8
		l2.1-2.6l-2.3,0.1c-1.8,0.1-2.5,0.6-3.3,2.6c-0.9,2.2-0.9,2.5,0.3,2.5C5483.4,1614.4,5484.9,1613.2,5486,1611.8z M5498.9,1611.9
		c-0.5-0.5-0.9-0.6-0.9-0.1c0,1,0.9,1.9,1.4,1.4C5499.6,1613,5499.4,1612.4,5498.9,1611.9L5498.9,1611.9z M5396.5,1611
		c0.8-0.6,1.1-1.1,0.6-1.1c-1.4,0-3.3,0.8-3.3,1.6C5393.8,1612.4,5394.8,1612.2,5396.5,1611z M5497.7,1609.8c1.2,0,1.5-3.4,0.4-4.1
		c-0.9-0.5-1.8,1.6-2,4.5c-0.1,1.3,0,1.7,0.2,1C5496.4,1610.4,5497.1,1609.8,5497.7,1609.8L5497.7,1609.8z M5384.3,1608
		c0-1,0.3-2.1,0.6-2.6c0.3-0.5,0.2-1.1-0.3-1.4c-1.1-0.7-3,1-2.5,2.4c0.3,0.7-0.1,1.1-0.8,1.1c-1.6,0-1.5,0.4,0.1,2.2
		C5382.9,1611.3,5384.2,1610.6,5384.3,1608L5384.3,1608z M5565,1608.7c2.2-1.5,3.7-2.7,3.3-2.7c-0.4,0-0.1-0.3,0.5-0.7
		c1-0.7,1-0.7,0-0.7c-1.7,0-9.2,5.3-8.7,6.1C5560.7,1611.6,5560.6,1611.6,5565,1608.7L5565,1608.7z M5373.7,1607
		c-0.7-0.7-2,0.5-2,1.7c0,1,0.2,1,1.2-0.1C5373.6,1608,5374,1607.3,5373.7,1607L5373.7,1607z M5549.7,1607.1
		c1.4-1.5,3.4-2.9,4.4-3.1s1.8-1,1.8-1.6c0-1-0.2-1-1.7,0.1c-0.9,0.7-3.3,2.2-5.3,3.3c-2,1.2-3.6,2.5-3.6,3.1
		C5545.2,1610.6,5547.1,1609.8,5549.7,1607.1L5549.7,1607.1z M5604.8,1605.6l-1.2-3.5l-1.2,1.8c-0.7,1-1.5,2-1.9,2.2s0.3,1,1.5,1.7
		C5605.7,1609.8,5606.1,1609.4,5604.8,1605.6L5604.8,1605.6z M5490.8,1605.5c0.6-0.7,0.7-1.5,0.3-1.6c-1-0.3-5.4,2.3-5.8,3.5
		C5484.8,1608.7,5489.6,1607.1,5490.8,1605.5z M5553.1,1607.5c0.5,0,1-0.5,1-1.1c0-1.1-0.9-0.8-3.6,1.1c-1,0.7-0.9,0.8,0.3,0.4
		C5551.6,1607.7,5552.6,1607.5,5553.1,1607.5L5553.1,1607.5z M5419.6,1604.8c0-0.5-0.8-0.7-2.1-0.4c-1.4,0.3-1.7,0.5-0.8,0.7
		c0.7,0.2,1.3,0.9,1.3,1.6c0,1.1,0.1,1.1,0.7,0.1C5419.3,1606.1,5419.6,1605.2,5419.6,1604.8L5419.6,1604.8z M5497.4,1600.7
		c-0.2-1.2-0.5-1.5-0.7-0.8c-0.2,0.6-0.8,1.7-1.3,2.3c-0.5,0.6-1.2,2.2-1.5,3.4l-0.5,2.3l2.2-2.6
		C5497.1,1603.4,5497.7,1602.2,5497.4,1600.7z M5562.1,1605.6c2.9-1.7,3.1-1.9,1.4-1.9c-2,0-5.3,1.9-5.3,3.1
		C5558.1,1607.8,5558.3,1607.8,5562.1,1605.6z M5376.7,1604.8c0.6,0.2,2-0.4,3.2-1.5c2.5-2.3,1.8-2.4-2.2-0.4c-1.9,1-3,2-2.9,2.9
		c0.1,1.2,0.1,1.2,0.4-0.1C5375.5,1604.9,5376.1,1604.5,5376.7,1604.8L5376.7,1604.8z M5551.3,1602.5c0-0.7-2.8,1.1-3.9,2.5
		c-0.8,1-0.4,0.8,1.4-0.4C5550.2,1603.6,5551.3,1602.7,5551.3,1602.5L5551.3,1602.5z M5553.4,1598.5c2.2-1.4,3.9-2.7,3.7-2.9
		c-0.2-0.2-1.4,0.4-2.6,1.2s-2.6,1.6-3,1.6s-1.2,0.5-1.7,1.1c-1.1,1.3-2.3,1.5-2.3,0.4c0-0.4,1.7-1.6,3.8-2.7c4-2,5.3-3.2,1.7-1.7
		c-5.9,2.6-6.9,3.4-6.5,5.4c0.2,1.1,0,1.9-0.4,1.9s-1,0.6-1.2,1.2c-0.3,0.7,0.5,0.3,2-1C5548.3,1602,5551.2,1599.9,5553.4,1598.5
		L5553.4,1598.5z M5601.1,1603.3c0.7-1.1,1.1-2.2,0.9-2.4c-0.6-0.6-3.5,2.1-3.5,3.4C5598.5,1605.8,5599.7,1605.4,5601.1,1603.3
		L5601.1,1603.3z M5391.8,1602.9c0.4-0.4,0.1-0.7-0.9-0.7c-2.1,0-4,0.8-4,1.6C5386.9,1604.6,5390.7,1603.9,5391.8,1602.9z
		 M5577.2,1603.7c-0.6-0.4-2.3-0.7-3.8-0.6l-2.7,0.1l3,0.5C5578.2,1604.5,5578.4,1604.5,5577.2,1603.7L5577.2,1603.7z M5403,1602.4
		c0.9-1.1,0.9-1.2-0.3-0.8c-0.8,0.3-1.7,0.5-2.1,0.5s-0.5,0.3-0.3,0.8C5400.9,1604.1,5401.8,1603.9,5403,1602.4L5403,1602.4z
		 M5599.8,1598.5c-0.7-0.1-2.5,0.5-4,1.4l-2.7,1.7l1.8,1c1.6,0.9,2,0.8,4-1.4C5600.7,1599.2,5600.9,1598.7,5599.8,1598.5z
		 M5394.8,1602.3c0.2-0.3-0.1-0.6-0.7-0.6s-1.1,0.3-1.1,0.6s0.3,0.6,0.7,0.6S5394.6,1602.7,5394.8,1602.3z M5556.6,1598.6
		c0-0.7-3.8,1.6-4.1,2.5c-0.2,0.6,0.5,0.4,1.9-0.6C5555.6,1599.6,5556.6,1598.8,5556.6,1598.6L5556.6,1598.6z M5482,1601.1
		c0-0.8-1.5-1.1-1.9-0.4c-0.3,0.4,0.1,0.8,0.7,0.8S5482,1601.3,5482,1601.1L5482,1601.1z M5493.8,1600.7c0.3-0.4-0.2-0.8-1.1-0.8
		c-0.8,0-1.7,0.3-2,0.8c-0.3,0.4,0.2,0.8,1.1,0.8C5492.7,1601.4,5493.6,1601.1,5493.8,1600.7L5493.8,1600.7z M5591.6,1601.2
		c-0.2-0.2-1.3-0.5-2.6-0.8c-1.7-0.4-2-0.3-1.1,0.3C5588.8,1601.3,5592.3,1601.8,5591.6,1601.2L5591.6,1601.2z M5407.7,1599.6
		c0.3-0.7-0.6-1.9-2.2-3.1c-2.1-1.6-2.5-1.7-2.1-0.6c0.4,1.2,3.2,4.8,3.7,4.8C5407.2,1600.7,5407.5,1600.2,5407.7,1599.6z
		 M5391.3,1595.6l2.8-2.5l-5.5,3.1c-3,1.7-5.5,3.2-5.5,3.4C5383.1,1600.5,5389,1597.6,5391.3,1595.6L5391.3,1595.6z M5485.8,1594.9
		c0-0.3-0.7,0.1-1.5,0.8c-0.8,0.8-1.5,1.9-1.5,2.5c0,0.7,0.5,0.4,1.5-0.8C5485.1,1596.4,5485.8,1595.2,5485.8,1594.9z
		 M5591.6,1598.5c0-0.4-2.1-0.9-4.8-1.1c-2.6-0.2-5.8-0.6-7-0.9c-1.9-0.4-2-0.3-0.9,0.4c0.7,0.5,3.5,1.1,6.1,1.5
		C5591.7,1599.2,5591.6,1599.2,5591.6,1598.5z M5605.3,1598c0-0.6-0.5-1.1-1.1-1.1c-1.2,0-1.5,0.9-0.6,1.8
		S5605.3,1599.2,5605.3,1598z M5496.4,1595.5c0.3-2.1-0.4-2.1-2.2,0.1c-1.9,2.3-1.8,2.9,0.2,2.2
		C5495.3,1597.4,5496.2,1596.3,5496.4,1595.5L5496.4,1595.5z M5566.7,1597.9c-0.9-0.2-2.6-0.2-3.8,0c-1.2,0.2-0.4,0.3,1.7,0.3
		C5566.7,1598.2,5567.6,1598,5566.7,1597.9L5566.7,1597.9z M5490,1595.9c1-0.3,0.7-0.4-0.7-0.3c-1.2,0.1-2.4,0.7-2.6,1.3
		c-0.3,0.9-0.1,1,0.7,0.3C5488,1596.7,5489.2,1596.1,5490,1595.9L5490,1595.9z M5390.6,1591.7c1.8-1,3.1-2,2.9-2.2
		c-0.5-0.5-10.9,5.6-11.6,6.8c-0.3,0.5,0.8,0.1,2.4-0.9C5385.9,1594.4,5388.8,1592.7,5390.6,1591.7z M5401.6,1595.7
		c-0.2-0.6-0.6-1.1-0.7-1.1s-0.3,0.5-0.3,1.1c0,0.6,0.3,1.1,0.7,1.1C5401.7,1596.9,5401.9,1596.4,5401.6,1595.7L5401.6,1595.7z
		 M5567.6,1596l3.8-0.1l-3-0.5c-1.7-0.3-3.4-0.7-3.9-1c-0.5-0.3-1.9-0.3-3.2-0.1c-1.9,0.4-2.1,0.7-1.4,1.5c0.5,0.6,1.6,0.9,2.4,0.7
		C5563.2,1596.3,5565.5,1596.1,5567.6,1596L5567.6,1596z M5596.2,1595.4c4.7-1.6,3.7-2-2.4-0.7c-2.3,0.5-5.8,0.8-7.9,0.8
		c-2.8,0-3.4,0.2-2.3,0.6C5586.2,1597.2,5591.8,1596.9,5596.2,1595.4L5596.2,1595.4z M5602.3,1595c0-0.2-0.7-0.1-1.5,0.1
		c-0.8,0.2-1.5,0.7-1.5,1.1c0,0.4,0.7,0.3,1.5-0.1C5601.6,1595.7,5602.3,1595.2,5602.3,1595L5602.3,1595z M5382.4,1593
		c1.4-1.3,3.6-2.9,4.9-3.5c4.3-2.3,4.4-2.5,1.9-5.3c-1.3-1.4-2.3-3.3-2.3-4.1s-0.3-1.5-0.6-1.5c-0.6,0-3.9,5-5.7,8.8
		c-1.3,2.7-2.3,8-1.4,8C5379.6,1595.3,5381,1594.3,5382.4,1593L5382.4,1593z M5416.2,1593.8c0.8-0.8,1.2-1.5,1-1.5s-1,0.7-1.8,1.5
		c-0.8,0.8-1.2,1.5-1,1.5S5415.4,1594.7,5416.2,1593.8z M5492.6,1593.9c0.7-0.5,0.4-0.7-1-0.7c-1.1,0-2,0.3-2,0.7
		C5489.6,1594.8,5491.2,1594.8,5492.6,1593.9L5492.6,1593.9z M5594.6,1592.9c2.3-0.4,5.5-0.6,7.2-0.3l3.1,0.5l-3.4-3.1
		c-3.1-2.8-3.6-3.1-6.3-2.6c-3.3,0.6-3.6,1.4-1.2,2.7l1.7,0.9l-2.2,0.6c-1.2,0.3-3,0.3-4-0.1c-1.3-0.5-2.6-0.4-4.3,0.4
		c-1.9,0.8-2.1,1.1-0.9,1.2c1.1,0.1,0.9,0.3-0.8,0.8C5580.5,1594.8,5589.1,1594,5594.6,1592.9z M5400.6,1593.1
		c0-0.8-1.9-1.6-3.7-1.6c-0.9,0-0.7,0.3,0.6,1.1C5399.9,1593.9,5400.6,1594,5400.6,1593.1z M5573.7,1593.1c0.6-1-1.2-1-2.7,0
		c-0.9,0.6-0.8,0.7,0.5,0.7C5572.5,1593.8,5573.5,1593.5,5573.7,1593.1z M5541.6,1589.8c-1.6-1.8-1.9-1.3-0.8,1.1
		c0.6,1.3,1.1,1.7,1.5,1.1C5542.6,1591.6,5542.3,1590.6,5541.6,1589.8L5541.6,1589.8z M5488.9,1591.7c0-0.3,0.7-1.3,1.5-2.2
		c1.3-1.4,1.3-1.7,0.3-2.1c-0.7-0.3-1.4-0.3-1.6-0.1c-0.2,0.2,0.1,0.4,0.6,0.4c0.8,0,0.8,0.3-0.1,1.3c-1.8,2.1-2.3,3.2-1.4,3.2
		C5488.5,1592.3,5488.9,1592,5488.9,1591.7L5488.9,1591.7z M5495,1591.5c0-0.5-0.7-0.6-1.7-0.3c-1.5,0.5-1.6,0.4-0.7-0.7
		c0.9-1.1,0.9-1.2-0.2-0.8c-2.1,0.8-1.3,2.6,1.2,2.6C5494.3,1592.3,5495,1591.9,5495,1591.5L5495,1591.5z M5552.5,1590.9
		c-0.2-0.2-0.8,0-1.4,0.5c-0.7,0.8-0.7,0.8,0.4,0.4C5552.3,1591.6,5552.7,1591.2,5552.5,1590.9L5552.5,1590.9z M5556.4,1591.8
		c-0.3-0.3-0.9-0.3-1.5-0.1c-0.6,0.2-0.4,0.4,0.5,0.5C5556.2,1592.3,5556.7,1592.1,5556.4,1591.8L5556.4,1591.8z M5612,1591.1
		c3.5,0.9,6.3-3.5,3.7-5.7c-1.8-1.5-15.6-0.2-15.6,1.5c0,0.3,1.3,1.2,3,1.9c1.6,0.7,3.2,1.8,3.4,2.4c0.3,0.9,0.8,0.9,2,0.2
		C5609.3,1591,5610.9,1590.9,5612,1591.1L5612,1591.1z M5397.4,1589.6c1.1-0.6,1.6-1.1,0.9-1.1c-0.6,0-2,0.7-3,1.6s-1.5,1.3-0.9,1.1
		C5394.9,1590.9,5396.2,1590.2,5397.4,1589.6z M5486.4,1590.2c0.3-0.8-0.5-0.9-3-0.6c-4.4,0.5-4.5,0.6-1.8,1.3
		C5484.7,1591.6,5486,1591.4,5486.4,1590.2z M5561.6,1590c-0.2-0.3-1.6-0.8-3.2-1.1c-1.6-0.3-3.7-0.7-4.8-1c-3-0.8-0.8,1.2,2.7,2.3
		C5559.1,1591.3,5562.3,1591.1,5561.6,1590L5561.6,1590z M5568.8,1590.5c0-0.6,0.7-1.9,1.5-3c2.1-2.7,1.3-4.4-1.7-3.5
		c-1.3,0.4-2.5,0.9-2.8,1.2c-0.3,0.3,0.3,0.2,1.3-0.1c2.5-0.8,1.4,0.9-1.3,2l-2,0.8l2.1,0.8c1.2,0.5,2,1.2,1.7,1.8
		c-0.2,0.5,0,1,0.4,1S5568.8,1591.1,5568.8,1590.5L5568.8,1590.5z M5575.9,1589.7c0.5-0.6,2.1-1.3,3.6-1.6c1.5-0.3,3.2-1,3.7-1.6
		c0.7-0.9,0.3-1.2-2.4-1.7c-3.6-0.7-6.9,0.6-6.2,2.5c0.2,0.6-0.3,1.5-1.2,2c-0.9,0.5-1.6,1.2-1.6,1.5
		C5571.8,1591.8,5575,1590.9,5575.9,1589.7L5575.9,1589.7z M5591.2,1590c-0.3-0.4-0.9-0.8-1.4-0.7c-0.5,0-0.5,0.3,0.2,0.7
		C5591.6,1591,5591.8,1591,5591.2,1590L5591.2,1590z M5404.6,1588.4l2.5-1.6l-2.3,0.5c-1.3,0.3-2.8,1-3.4,1.6
		C5399.7,1590.6,5401.7,1590.3,5404.6,1588.4z M5588.2,1588.4c1.2-1.1-0.5-0.8-2.6,0.5l-1.9,1.1l1.9-0.5
		C5586.6,1589.3,5587.8,1588.8,5588.2,1588.4z M5487.6,1587.4c-0.2-0.6-0.8-0.9-1.2-0.7c-0.5,0.3-0.4,0.7,0.3,1.1
		C5488.1,1588.7,5488.2,1588.7,5487.6,1587.4z M5415.8,1586.6c0-0.8-0.7-1.1-2.5-1.1c-1.6,0.1-1.9,0.2-1,0.5
		c0.8,0.2,1.8,0.7,2.2,1.1C5415.6,1588,5415.8,1587.9,5415.8,1586.6z M5554.4,1585.7c-1-0.7-3-1.3-4.4-1.3c-1.5,0-2.5-0.4-2.5-1
		c0-0.5-0.5-1-1.1-1c-1.6,0-3.5,0.8-3.5,1.6c0,0.4,0.9,0.3,2-0.1c1.5-0.6,1.9-0.5,1.6,0.2c-0.2,0.6,1.1,1.2,3.9,1.8
		C5556.4,1587.1,5556.4,1587.1,5554.4,1585.7L5554.4,1585.7z M5562,1585.4c0-0.4-0.3-0.7-0.8-0.7s-0.8,0.5-0.8,1.2
		c0,0.7,0.3,1,0.8,0.7S5562,1585.8,5562,1585.4z M5564.6,1586.2c0.3-0.4,0-0.6-0.7-0.3c-1.3,0.5-1.6,1.1-0.5,1.1
		C5563.8,1587,5564.4,1586.6,5564.6,1586.2z M5595.1,1584.9c-0.1-0.1-1.2,0-2.4,0.3l-2.2,0.6l1.9,0.5
		C5594,1586.6,5595.9,1585.7,5595.1,1584.9z M5402.5,1584.7c0.3-0.4,0-0.6-0.7-0.3c-1.3,0.5-1.6,1.1-0.5,1.1
		C5401.7,1585.4,5402.3,1585.1,5402.5,1584.7z M5490.2,1585c-0.3-0.3-0.9-0.3-1.5-0.1c-0.6,0.2-0.4,0.4,0.5,0.5
		C5490,1585.4,5490.5,1585.2,5490.2,1585L5490.2,1585z M5494,1583.8c-0.2-0.6-0.4-0.4-0.5,0.5c0,0.8,0.1,1.3,0.4,1
		S5494.2,1584.3,5494,1583.8z M5392.2,1582.8c-1-1-2-1.7-2.2-1.5c-0.2,0.2,0.4,1.1,1.4,1.9C5393.9,1585.3,5394.4,1585,5392.2,1582.8
		L5392.2,1582.8z M5585.9,1583.9c-0.8-0.4-2.2-0.6-3-0.6c-1.2,0-1.1,0.1,0.4,0.6C5585.9,1584.8,5587.9,1584.8,5585.9,1583.9z
		 M5483.6,1582c1-1,2.3-1.9,2.9-1.9c0.9,0,0.9-0.3-0.1-1.9c-1.2-1.8-1-4.2,0.3-4.2c0.3,0,0.8-0.7,1-1.5c0.2-0.8,0.2-1.5-0.1-1.5
		c-0.8,0-6.7,6.3-7.2,7.7c-0.7,2.1,0.4,2.3,2.3,0.5c2.4-2.2,2.2-1.2-0.2,2.1C5480,1584.3,5480.9,1584.8,5483.6,1582L5483.6,1582z
		 M5598.5,1583.1c0-0.5-1.1-0.7-3.2-0.3c-2.4,0.4-2.9,0.3-2.1-0.3c0.6-0.4,1.7-0.8,2.5-0.8c1.6,0,1.6,0.4-0.1-4.1
		c-1.3-3.5-1.5-3.6-2-1.9c-0.3,1-0.6,2.4-0.7,3c-0.3,2.3-1.4,3.8-3,3.9c-1.2,0.1-1.1,0.2,0.7,0.7
		C5594,1584.1,5598.5,1584,5598.5,1583.1L5598.5,1583.1z M5560.3,1578.6c0.5,0,1.8-0.6,2.8-1.2c1.2-0.8,2.6-1.1,4-0.7
		c1.4,0.3,1.7,0.3,1-0.2c-0.8-0.6-0.7-0.8,0.6-1.2c1.5-0.5,2.1-1.9,1.2-2.8c-0.4-0.4-10.5,1.3-13.3,2.4c-1.6,0.6-1.7,0.7-0.4,0.8
		c1.3,0.1,1.3,0.2,0.4,0.9c-0.8,0.6-0.3,0.7,1.9,0.3c3.5-0.6,2.9,0.5-1.1,1.8c-3.2,1.1-5.8,1.1-3.5,0c1.1-0.5,0.7-0.6-1.4-0.3
		c-2,0.3-2.8,0.2-2.4-0.4c0.3-0.4,1.3-0.9,2.2-0.9c1-0.1,0.6-0.3-1-0.6c-1.5-0.3-3.3-0.4-4-0.2c-1.1,0.3-1.1,0.5-0.3,1.3
		c0.6,0.6,1.2,1.3,1.3,1.6s1.6,1.3,3.3,2.2l3,1.6l2.3-2.2C5558.3,1579.6,5559.8,1578.6,5560.3,1578.6L5560.3,1578.6z M5603.2,1582.7
		c-0.5-0.2-1.4-0.2-1.9,0c-0.5,0.2-0.1,0.4,1,0.4S5603.8,1582.9,5603.2,1582.7L5603.2,1582.7z M5607,1582.7c-0.5-0.2-1.4-0.2-1.9,0
		c-0.5,0.2-0.1,0.4,1,0.4S5607.6,1582.9,5607,1582.7L5607,1582.7z M5404.8,1581l3-1.4l-4.9,0c-2.7,0-6.7-0.2-8.8-0.5
		c-4.5-0.7-4,0.3,1.1,2.1C5399.7,1582.7,5401.1,1582.7,5404.8,1581L5404.8,1581z M5491.9,1577.6c0-0.3-0.3-0.4-0.7-0.1
		c-0.4,0.3-0.8,1-0.7,1.8c0,1.1,0.1,1.1,0.7,0.1C5491.6,1578.7,5491.9,1577.9,5491.9,1577.6z M5585,1579.6c-0.5-0.2-1.4-0.2-1.9,0
		s-0.1,0.4,1,0.4S5585.5,1579.8,5585,1579.6L5585,1579.6z M5593.5,1568.7c0.7-1.5,2.1-4.2,2.9-6.1c0.9-1.9,1.9-3.5,2.2-3.7
		c0.3-0.1,0.6-0.8,0.6-1.5s0.6-1.8,1.2-2.6c1.1-1.2,1.1-1.9,0.3-5.4c-0.5-2.2-1.1-5.4-1.3-7.1c-0.6-4.3-1.4-4.8-3.6-2.4
		c-1,1.1-1.6,2-1.2,2c0.4,0,0.7,0.5,0.7,1.1c0,1.3-3.8,1.6-5,0.5c-1.2-1.2-7.8-3.1-9-2.7c-1.8,0.7-3.5,5.2-3.5,9.3
		c0,3.3-0.2,3.9-1.7,4.1c-2.7,0.4-2.3,1.7,1,3.2l3.1,1.4l1.4-1.8c0.8-1,1.4-2.1,1.4-2.4c0-0.3,0.4-0.6,1-0.6c1.3,0,3.2,4.4,3.1,7.4
		c-0.1,2,0.3,2.6,1.8,2.9c1,0.3,1.8,1,1.8,1.6c0,0.8-0.4,1-1.3,0.6c-0.7-0.3-3.8-1.2-6.7-2c-3-0.8-6.1-1.7-6.8-1.9
		c-1.3-0.5-1.3-0.4-0.3,0.7c0.6,0.7,3.5,1.7,6.4,2.3c2.9,0.6,5.4,1.5,5.6,2c0.4,1.1-3,0.6-8.9-1.1c-1.9-0.5-3.6-0.8-4-0.6
		c-0.9,0.6-0.8,4.2,0.2,7.1c1,3,2.7,3.9,6.9,3.9c1.8,0,4.3,0.5,5.6,1l2.3,1l1.2-3.9C5591.6,1573.1,5592.8,1570.2,5593.5,1568.7
		L5593.5,1568.7z M5407.5,1577.1c1.9-1.2-2.5-1.4-5.3-0.2c-1.8,0.8-1.7,0.8,1.1,0.9C5404.9,1577.8,5406.8,1577.5,5407.5,1577.1
		L5407.5,1577.1z M5419.4,1575.8c-1.6-0.2-4.1-0.2-5.7,0s-0.3,0.3,2.9,0.3S5421,1575.9,5419.4,1575.8z M5547.1,1575.3
		c2.3-1.6,11.1-4.2,13.7-4.1c5.2,0.3,8.7-0.2,8.4-1.1c-0.2-0.5-0.5-1.9-0.8-3.1c-0.3-1.4-0.9-2.1-1.8-2c-3.3,0.3-7-0.1-7-0.9
		c0-0.5,1.5-0.8,3.6-0.7c5.1,0.2,5.2,0.1,3.6-1.1c-1.1-0.8-1.2-1.3-0.6-2.1c1.2-1.6,1.9-5.1,1-5.6c-1.7-1-0.7-5.4,2-9.5
		c1.5-2.3,2.9-5.3,3-6.7c0.1-1.4,1.3-3.8,2.5-5.4c1.9-2.4,2.3-3.6,2.3-6.7c0-2.1,0.4-6.4,0.8-9.5c0.7-4.9,0.6-6.5-0.7-11.3
		c-1.1-4.2-1.3-6.1-0.7-7.5c0.4-1,0.7-2.6,0.7-3.5c0-0.9,0.4-1.8,0.9-2c0.6-0.2,0.9-1.1,0.7-2.3c-0.2-1,0.3-3.2,1.2-5
		c0.9-1.7,1.6-3.4,1.6-3.8c0-1.1-7.2-4-10.2-4c-3.4,0-8,1.8-8.5,3.3c-0.2,0.6-1.5,1.3-2.8,1.6c-1.3,0.3-2.8,1.2-3.4,2
		c-1.2,1.8-2.5,2-2.5,0.4c0-1.4-3.6-2.6-7.5-2.5c-1.9,0.1-3.3-0.3-3.5-0.8c-0.2-0.7-2-0.9-5.5-0.8c-3.9,0.1-4.3,0.2-1.7,0.4
		c4.7,0.4,6,0.9,4.6,1.7c-0.6,0.4-1.4,0.5-1.7,0.3c-0.3-0.2-0.4,0.1-0.2,0.7c0.3,0.9-0.6,1.3-4.3,1.8c-2.8,0.4-4.8,1-4.9,1.6
		c-0.1,0.5,0,0.6,0.2,0.2c0.6-1.1,4-1,4.5,0.2c0.2,0.6,1.1,0.9,2.3,0.7c2-0.4,2.6,1.1,0.7,1.8c-2,0.8-1.2,1.5,1.1,1.2
		c1.3-0.2,2.3,0,2.3,0.4c0,0.4,2.1,0.3,5.1-0.3c2.8-0.6,5.6-0.8,6.2-0.6c2.3,0.9-1,2.7-6,3.4c-2.6,0.4-5,1-5.3,1.3s-1.9,1.3-3.7,2.1
		c-2.2,1-3.1,1.8-2.9,2.5c0.2,0.6,0.4,1.5,0.4,2c0,0.5,0.3,1.4,0.7,2c0.6,1,0.9,0.9,2.1-0.2c0.8-0.7,3.9-1.8,7-2.5s5.9-1.4,6.4-1.7
		c0.4-0.3,2.4-0.6,4.3-0.7c1.9-0.1,4-0.3,4.6-0.5c0.7-0.2,1.2,0.4,1.4,1.4c0.3,1.6,0,1.7-5.3,1.7c-6.4,0-19.7,3.4-19.7,5.1
		c0,1.2,0.4,1.2,3.5,0.3c1.4-0.4,2.8-0.4,3.4,0c0.8,0.5,0.7,0.7-0.5,0.7c-2.5,0-7.2,1.6-7.2,2.3c0,0.4,0.9,0.5,2.1,0.3l2.1-0.4
		l-1.9,1.1c-1.9,1.1-1.8,1.1,1.1,0.7c1.7-0.3,3.7-0.7,4.6-1.1c1.2-0.5,1-0.6-1.1-0.6c-1.4,0-2.4-0.2-2.3-0.4
		c0.8-0.8,13.6-3.2,14.4-2.7c1.3,0.8,0.2,2.3-1.6,2.3c-2.4,0-7.6,2.4-7.6,3.5c0,1.4-3.5,3.6-4.9,3.1c-0.6-0.2-1.1-0.1-1.1,0.4
		c0,0.5,1,0.7,3,0.4c3.5-0.6,5.4,0,5.4,1.5c0,0.7-0.6,0.9-1.7,0.7c-0.9-0.2-3.9,0.3-6.7,1.1c-5.2,1.5-4.9,1.9,0.6,0.9
		c3.1-0.6,5.1,0.1,3,1c-0.5,0.2,0.9,0.3,3.2,0c3-0.3,3.8-0.2,3,0.4c-0.6,0.4-1.8,0.8-2.6,0.8c-1.2,0-1.3,0.2-0.6,0.9
		c1.7,1.7,0.9,2.2-1.4,1c-1.3-0.7-2.9-1-3.6-0.9c-0.7,0.2-2.2,0.6-3.4,0.8c-1.6,0.4-2.1,0.9-2.1,2.4c0,1.8,0.2,1.9,2.1,1.4
		c2-0.5,13.7-3.1,17.6-3.9c1.4-0.3,1.7-0.1,1.5,1c-0.2,0.8-0.9,1.3-1.8,1.2c-1.3-0.2-14.8,2-15.4,2.5c-0.1,0.1,0,0.7,0.2,1.3
		c0.4,1,0.9,1,4.4,0.2c6.1-1.5,13-2.2,12.4-1.2c-0.3,0.5-1.3,0.8-2.2,0.8c-2.5,0-13.5,2.6-13.5,3.2c0,0.3,1.8,0,4-0.6
		c4.6-1.2,6.9-1.4,6.3-0.4c-0.2,0.4-2.1,0.9-4.2,1.2c-2.1,0.3-4,0.8-4.2,1.2c-0.2,0.4-1.6,0.6-3.1,0.6c-1.8-0.1-3,0.4-3.7,1.4
		c-1.4,1.9-0.4,2.2,3.9,1.1c1.9-0.5,3.8-0.6,4.2-0.4c1.4,0.8-0.8,2.5-3.9,3c-1.6,0.3-3.2,0.8-3.4,1.2c-0.6,0.9-0.5,0.9,4.2-0.5
		c2.2-0.7,4.2-1,4.4-0.8c0.9,0.9-0.8,1.8-4,2.2c-1.9,0.2-3.9,0.8-4.4,1.4c-0.7,0.8-0.6,0.8,0.6,0.4c2.9-1.1,9.1-1.8,9.8-1.2
		c0.9,0.8-1.3,1.8-6.5,3c-3.9,0.9-4.3,1.1-3.5,2.5c0.5,1,1.3,1.3,2.3,1.1c0.8-0.2,2-0.2,2.6,0c1.6,0.6,0.4,1.9-1.3,1.4
		c-3.2-1-2.6,2.9,1.2,7c1,1.1,1.9,2.4,1.9,3c0,1.8,2.8,3.6,4.3,2.8c2.3-1.2,5.6-1.8,5.6-1c0,0.4-1.4,1.1-3.2,1.6
		c-3,0.8-8.9,5.6-8,6.5c0.2,0.2,2-0.7,4-2c2.1-1.5,4.8-2.6,6.5-2.7c4.1-0.3,3.7,0.8-0.7,1.8l-3.6,0.8l3.3-0.4c4.6-0.6,3.5,0.8-1.6,2
		c-4.9,1.2-7,2.6-6.4,4.2C5544.5,1576.6,5545.2,1576.6,5547.1,1575.3L5547.1,1575.3z M5546,1561.9c3-2.2,17.5-4.8,17.5-3.2
		c0,0.5-0.6,0.9-1.3,0.9c-2.5,0.1-11.2,1.6-15.4,2.6C5545.2,1562.6,5545.1,1562.6,5546,1561.9L5546,1561.9z M5544,1559
		c0.6-1,5.3-2.4,7.9-2.4c2.7,0,1.3,1.3-1.9,1.8c-1.6,0.3-3.7,0.7-4.7,1C5544,1559.7,5543.6,1559.5,5544,1559z M5541.8,1553.6
		c-0.6-1,1.4-1.6,5.3-1.6c3.2,0,4.5,1,2.4,1.7C5547.7,1554.3,5542.3,1554.3,5541.8,1553.6L5541.8,1553.6z M5568,1535.5
		c-0.6-0.6-2-1.8-3-2.5c-2.1-1.6-1.7-2.7,0.6-2c2.3,0.7,5.7,4,5.1,4.9C5570.1,1537,5569.5,1536.9,5568,1535.5L5568,1535.5z
		 M5569.1,1527.9c-0.2-0.9-1.4-2.2-2.6-2.9c-2.1-1.2-3-2.8-1.7-2.7c1.2,0,5.6,3.1,6,4.2c0.3,0.7,0.1,1.6-0.4,2.1
		C5569.7,1529.3,5569.4,1529.1,5569.1,1527.9z M5569.2,1522.4c-1.7-0.8-5.6-1.8-8.8-2.4s-6-1.3-6.5-1.7c-1.1-1,1.2-2.2,3.4-1.8
		c1,0.2,2.5,0,3.3-0.4c1.1-0.6,1.6-0.5,2.1,0.3c0.4,0.6,0.9,1.1,1.2,1.1c0.3,0,1.6,0.5,2.7,1c1.2,0.5,2.5,0.9,3,0.9
		c1.6,0,4.6,2.8,4,3.7C5573.1,1524.1,5572.8,1524,5569.2,1522.4z M5572.2,1517.7c-0.3-0.4,0.1-0.8,0.7-0.8c0.7,0,1.2,0.3,1.2,0.8
		c0,0.4-0.3,0.8-0.7,0.8S5572.5,1518.1,5572.2,1517.7z M5555.1,1487.3c0-0.4,0.3-0.8,0.8-0.8s0.8,0.3,0.8,0.8s-0.3,0.8-0.8,0.8
		S5555.1,1487.7,5555.1,1487.3z M5431,1570.2c0.5-1.5,0.8-3.8,0.8-5.1c0-1.3,0.7-3.2,1.6-4.3c1.5-1.9,1.6-2.6,1.1-8.1
		c-0.3-3.3-0.3-6.5,0.1-7c0.3-0.5,0.7-1.8,0.7-2.9c0.1-1,0.4-3.4,0.7-5.1c0.8-4.6-0.1-5.3-5.7-4.9c-3.1,0.2-4.6,0.1-4.6-0.5
		c0-0.5,1.7-0.9,4.6-0.9c2.5,0,4.6-0.3,4.6-0.8c0-0.8-3.1-1.1-7.8-0.8c-1.6,0.1-3.3-0.1-3.8-0.6c-1.2-1-5.1-0.2-5.1,1.1
		c0,0.7-2,1.3-5.6,2c-4.7,0.8-5.8,1.3-6.5,2.7c-1,2.3,0.1,2.3,6.7,0.2c6-1.9,6.5-1.9,5.5,0c-1.1,2-1,2.2,0.7,1.8
		c2.6-0.7,1.7,1.2-1.3,2.8c-2.8,1.5-2.8,1.6-0.6,1.2c6.8-1.1,10.2-1.3,10.6-0.6c0.3,0.4-2,1.3-5.4,2c-3.2,0.7-6.8,1.6-7.8,1.9
		c-1.9,0.7-1.9,0.7,0.4,0.8c1.3,0.1,4.3,0.1,6.8,0c5.9-0.3,5.1,1.1-1,1.8c-2.5,0.3-4.6,0.8-4.6,1.1c0,0.3-3.1,0.6-6.8,0.7
		c-3.8,0.1-7.6,0.5-8.6,0.9c-1.4,0.6-1,0.7,2.1,0.6c6.1-0.2,8.8,0.1,8.8,0.9c0,0.4-2,0.8-4.5,0.8c-3.6,0-5.4,0.5-9.2,2.5
		c-2.6,1.4-4.3,2.6-3.9,2.7s2.1-0.4,3.8-1.3c4.9-2.5,9.5-3.3,11.9-2c2.5,1.3,2,1.6-3.2,2.3c-4.8,0.7-4.7,1.9,0.2,1.3
		c2.3-0.3,3.4-0.1,3.4,0.5c0,0.5-0.5,0.9-1.1,0.9c-1.7,0-1.4,2,0.3,2.5c1.2,0.3,1.4,0.8,0.9,2.6c-0.6,2.1-0.8,2.2-4.4,1.9
		c-2.7-0.2-4.1,0.1-4.7,0.9c-0.6,0.8-0.7,1.3-0.1,1.6c0.4,0.3,0.8,0.1,0.8-0.3c0-0.5,2.1-0.8,5.2-0.8c2.9,0,8.1-0.5,11.5-1.2
		c6-1.1,9.4-1,7.9,0.3c-0.4,0.3-3.1,1-6,1.6c-2.9,0.5-6.3,1.3-7.5,1.8c-2.1,0.8-2.1,0.9-0.6,1.4c0.9,0.3,1.6,1.1,1.6,1.7
		c0,0.8,0.6,1,2.5,0.8c1.4-0.2,4.5-0.1,7,0.3C5428.5,1574.6,5429.8,1574,5431,1570.2L5431,1570.2z M5529.2,1573.9
		c0-0.5,0.6-1.5,1.3-2.3c0.7-0.8,1-1.6,0.8-1.9c-0.7-0.7-2.8,1.2-2.8,2.5c0,0.6-0.3,1-0.8,1s-0.8,0.3-0.8,0.8c0,0.4,0.5,0.8,1.1,0.8
		S5529.2,1574.4,5529.2,1573.9L5529.2,1573.9z M5402.1,1572.5c0-0.4-0.3-0.8-0.8-0.8c-0.4,0-0.8,0.3-0.8,0.8c0,0.4,0.3,0.8,0.8,0.8
		C5401.8,1573.3,5402.1,1572.9,5402.1,1572.5z M5557.9,1572.8c-0.3-0.3-0.9-0.3-1.5-0.1c-0.6,0.2-0.4,0.4,0.5,0.5
		C5557.7,1573.2,5558.2,1573.1,5557.9,1572.8L5557.9,1572.8z M5536.5,1568.3c0.5-1.5,0.6-2.8,0.3-3c-0.3-0.2-0.7,0.4-0.9,1.3
		c-0.2,1.3-0.7,1.7-2,1.5c-1.7-0.2-1.7-0.2-0.5,1.7C5535,1572.1,5535.3,1571.9,5536.5,1568.3L5536.5,1568.3z M5400.2,1570.2
		c-0.3-0.4-0.8-0.8-1.2-0.8s-0.7,0.3-0.7,0.8c0,0.4,0.5,0.8,1.2,0.8S5400.5,1570.6,5400.2,1570.2z M5542.6,1569.5
		c0.8-0.8,1-1.5,0.5-1.5s-1.2,0.7-1.7,1.5s-0.7,1.5-0.5,1.5S5541.8,1570.3,5542.6,1569.5z M5484.8,1567.4c1.9-1.5,3.8-3.5,4.2-4.3
		c1.2-2.2-0.3-3.1-2.2-1.3c-1.7,1.6-2.9,2-2.1,0.8c0.3-0.4,0.1-0.8-0.4-0.8c-0.5,0-0.7,0.6-0.4,1.4c0.3,0.9-0.1,1.8-0.9,2.5
		c-1.1,0.9-1.2,0.9-0.8-0.3c0.3-0.7,0.2-1.3-0.3-1.3s-0.9,0.5-1.2,1.1s-1.1,1.2-1.9,1.5c-2,0.5-1.9,1.9,0.2,2.8
		c0.9,0.4,1.8,0.7,2,0.7C5481.3,1570.2,5482.9,1569,5484.8,1567.4L5484.8,1567.4z M5396.2,1566.5c-0.7-1.2-1.4-2.1-1.6-1.9
		c-0.3,0.3,2,4.2,2.5,4.2C5397.4,1568.7,5396.9,1567.7,5396.2,1566.5z M5532.7,1565.8c-0.2-0.2-0.8,0-1.4,0.5
		c-0.7,0.8-0.7,0.8,0.4,0.4C5532.5,1566.5,5532.9,1566,5532.7,1565.8z M5543.5,1566.6c0.7-0.4,0.3-1.1-1.3-2.3
		c-1.3-0.9-2.3-2.2-2.3-2.8c0-0.6-0.4-1.1-0.8-1.1c-0.5,0-0.5,0.5,0,1.5c0.4,0.8,1.1,2.4,1.5,3.4
		C5541.4,1567.3,5542,1567.5,5543.5,1566.6z M5531.5,1564.2c0-1.3-1.4-2.4-2.5-2c-1,0.4-1.1,0.8-0.4,1.9
		C5529.4,1565.4,5531.5,1565.5,5531.5,1564.2z M5485.3,1560c3.5-2.3,4.1-3.6,3.2-6.1c-0.6-1.5-2.7-0.7-2.3,0.9
		c0.2,0.8-0.8,2.1-3,3.7c-1.9,1.4-3.4,3-3.4,3.7C5479.8,1563.6,5480,1563.5,5485.3,1560L5485.3,1560z M5398.1,1562.2
		c-0.3-0.3-0.9-0.3-1.5-0.1c-0.6,0.2-0.4,0.4,0.5,0.5C5397.9,1562.6,5398.4,1562.4,5398.1,1562.2L5398.1,1562.2z M5391.6,1560.2
		c-0.5-0.5-0.9-0.6-0.9-0.1c0,0.4,0.2,1,0.5,1.3s0.7,0.3,0.9,0.1C5392.3,1561.2,5392.1,1560.7,5391.6,1560.2z M5579.5,1561.1
		c0-0.9-4.5-3.4-5.1-2.8c-0.2,0.2,0.3,1.1,1.2,2C5577.2,1561.9,5579.5,1562.4,5579.5,1561.1L5579.5,1561.1z M5398.3,1560.3
		c0.6-0.4,0.8-0.7,0.4-0.7s-1.3,0.3-1.9,0.7s-0.8,0.7-0.4,0.7C5396.9,1561.1,5397.7,1560.7,5398.3,1560.3z M5398.7,1558.4
		c2.3-0.9,2.4-1,0.8-0.7c-1.3,0.3-2.9,0.5-3.6,0.6c-0.7,0.1-1.3,0.4-1.3,0.7C5394.5,1559.8,5395.2,1559.7,5398.7,1558.4z
		 M5486.1,1552.8c1.7-1.7,2-2.8,1.9-5l-0.2-2.8l-2.2,2.3l-2.2,2.3l1.8,0.7c1.8,0.7,1.8,0.7-0.4,0.8c-1.6,0-2,0.3-1.3,0.7
		c0.8,0.5,0.8,0.7-0.2,1.1c-0.7,0.3-1.2,0.8-1.2,1.2C5482.1,1555.7,5484,1555,5486.1,1552.8L5486.1,1552.8z M5534.9,1549.7
		c-1.7-3.3-2.3-2.3-0.6,1.1c0.7,1.6,1.5,2.5,1.6,2C5536.1,1552.4,5535.6,1551,5534.9,1549.7z M5528.8,1550.5
		c0.5-2.4-0.8-5.4-2.4-5.4c-0.5,0-1.5,0.8-2.1,1.7c-1.1,1.6-1.1,1.8,0.9,3.8C5527.9,1553.2,5528.2,1553.2,5528.8,1550.5
		L5528.8,1550.5z M5486.5,1543.1c-0.8-0.9-1.1-0.9-2.3,0.2c-0.8,0.7-1.4,1.7-1.4,2.2c0,0.5-0.9,1.5-1.9,2.2
		c-1.8,1.2-2.9,3.4-1.1,2.4c0.4-0.3,0.8,0,0.8,0.5c0,0.5,1.6-0.7,3.4-2.7C5486.7,1544.9,5487.2,1544,5486.5,1543.1L5486.5,1543.1z
		 M5522.7,1546.3c0.2-0.6,0.1-1.3-0.3-1.6s-0.7,0.3-0.7,1.1C5521.6,1547.7,5522,1547.9,5522.7,1546.3L5522.7,1546.3z M5411.3,1545.1
		c0-0.4-0.3-0.8-0.8-0.8s-0.8,0.3-0.8,0.8s0.3,0.8,0.8,0.8S5411.3,1545.5,5411.3,1545.1z M5531.9,1542.3c-0.1-2-0.6-4.5-1-5.5
		c-0.7-1.7-0.8-1.4-0.8,2c0,2.2-0.2,4.4-0.5,5.1c-0.3,0.7,0.1,1.3,1,1.5c0.8,0.2,1.4,0.4,1.5,0.4
		C5532,1545.8,5532,1544.2,5531.9,1542.3L5531.9,1542.3z M5403.5,1542.4c-0.3-0.3-0.9-0.3-1.5-0.1c-0.6,0.2-0.4,0.4,0.5,0.5
		C5403.3,1542.8,5403.7,1542.6,5403.5,1542.4L5403.5,1542.4z M5412.4,1541.4c-1.3-0.5-1.2-0.7,1-1.2c1.4-0.3,2.4-0.7,2.2-0.9
		c-0.2-0.2-1.8,0.1-3.6,0.6c-2.6,0.8-2.9,1.1-1.8,1.5c0.8,0.3,1.9,0.6,2.6,0.6C5413.5,1542,5413.3,1541.7,5412.4,1541.4
		L5412.4,1541.4z M5592.4,1540.9c0-0.7-0.3-1-0.8-0.7c-0.4,0.3-0.8,0.8-0.8,1.2s0.3,0.7,0.8,0.7
		C5592.1,1542.1,5592.4,1541.5,5592.4,1540.9z M5407.7,1540c-0.5-0.2-1.4-0.2-1.9,0s-0.1,0.4,1,0.4S5408.2,1540.3,5407.7,1540
		L5407.7,1540z M5588.6,1539.8c-1.5-1-2.3-1-2.3,0c0,0.4,0.8,0.8,1.7,0.7C5589.4,1540.5,5589.5,1540.4,5588.6,1539.8z
		 M5584.2,1538.6c-1-0.7-2-1-2.2-0.7c-0.6,0.6,1.3,1.9,2.9,1.9C5585.5,1539.8,5585.3,1539.4,5584.2,1538.6L5584.2,1538.6z
		 M5594.7,1538.3c0-0.4-0.3-0.8-0.8-0.8s-0.8,0.3-0.8,0.8s0.3,0.8,0.8,0.8S5594.7,1538.7,5594.7,1538.3z M5416.4,1537.8
		c-0.3-0.3-0.9-0.3-1.5-0.1c-0.6,0.2-0.4,0.4,0.5,0.5C5416.2,1538.2,5416.7,1538.1,5416.4,1537.8L5416.4,1537.8z M5591.7,1535.9
		c1.9-2.3,4-2.8,8.7-2.1c1.1,0.2,1.6-0.3,1.8-1.7c0.3-1.9,3.2-5.3,3.9-4.6c0.8,0.8,2.2-7.1,1.9-10.5c-0.6-6-0.6-10.8,0-20.3
		c0.3-5,0.5-10.1,0.5-11.3c0-2.2,4.3-7.4,6.9-8.3c0.6-0.2,0.9-0.6,0.6-0.9c-0.3-0.3-1.6,0-2.9,0.7c-1.3,0.7-2.7,1-3.1,0.8
		c-0.4-0.3-0.7,0.1-0.7,0.8c0,1.5-2.4,4.9-6.6,9.6c-1.7,1.9-3.4,4.6-3.7,5.9c-0.6,2.7-1.9,4-1.9,1.9c0-1.2-0.1-1.2-0.7-0.2
		c-0.4,0.6-0.6,1.7-0.3,2.4s0,1.5-0.4,1.8c-0.4,0.3-0.8,1.9-0.8,3.5c0,3.2-1.8,8.3-2.9,8.3c-0.9,0-3.2,5-3.2,6.8
		c0,0.8,0.7,2.9,1.5,4.7c2.5,5.6,1.9,9.8-1.4,9.8c-2.6,0-4.3,1.1-4.3,2.8C5584.4,1538.8,5589.2,1538.9,5591.7,1535.9L5591.7,1535.9z
		 M5595.9,1519.3c-0.2-0.4-1.1-0.5-1.9-0.3c-1.1,0.3-1.6-0.1-2-1.5c-0.7-2.8,2.9-6.6,6.1-6.6c3.2,0,5.4,2.3,4.2,4.5
		c-0.8,1.4-4.7,4.7-5.7,4.7C5596.5,1520,5596.1,1519.7,5595.9,1519.3L5595.9,1519.3z M5600.3,1515.1c0.2-0.6-0.1-1.5-0.7-2
		c-1.3-1.1-1.5-1-2.2,1.4c-0.4,1.4-0.2,1.7,1,1.7C5599.2,1516.2,5600,1515.7,5600.3,1515.1z M5599.6,1536.9c0.2-0.4-0.4-1-1.5-1.5
		c-1.5-0.7-1.9-0.6-1.9,0.1C5596.2,1537.3,5598.7,1538.3,5599.6,1536.9z M5538,1531.4c-0.8-1.3-2.6-0.7-2.6,0.8
		c0,1.3,0.2,1.4,1.5,0.7C5537.7,1532.5,5538.2,1531.8,5538,1531.4z M5525.8,1532.5c1.8-0.7,1.5-2.2-0.8-3.7c-1.1-0.7-2.1-1.2-2.2-1
		c-1,1.2-1.9,3.9-1.5,4.5C5521.8,1533,5524,1533.2,5525.8,1532.5z M5530,1531.4c0-0.4-0.3-0.8-0.7-0.8s-0.9,0.3-1.2,0.8
		s0.1,0.8,0.7,0.8C5529.5,1532.2,5530,1531.8,5530,1531.4z M5416.7,1527.9c0.6-0.4,5.2-0.8,10.2-1.1c9.9-0.4,10.3-0.6,9.2-5
		c-0.4-1.8-0.7-1.8-7.7-1.8c-4.3,0-7.2-0.3-7.2-0.8c0-0.8,1.3-0.9,8.7-1.1c2.2,0,3.9-0.5,4.1-1c0.2-0.5,0.8-0.9,1.4-0.9
		c1.1,0,1.6-1.5,2-6.3c0.2-2,0-2.9-0.7-2.9c-1.2,0-1.3,0.4,0.5-4.4c0.8-2.2,1.5-4.7,1.5-5.5c0-0.8,0.6-2.8,1.4-4.4
		c0.8-1.6,1.6-4.9,1.9-7.4c0.4-3.5,1-5,2.4-6.3c1.8-1.7,2-1.7,4.2-0.5c1.3,0.7,3.2,1.1,4.3,1c1.8-0.2,1.6-0.5-2.4-3.2
		c-3.2-2.2-13.4-6.5-15.4-6.5c-0.1,0,0,1,0.3,2.3c0.4,2,0.2,2.4-1.2,2.8c-1,0.3-1.5,0.8-1.3,1.5c0.5,1.3,0.2,1.4-8.1,2.5l-6.6,0.9
		l0.4,2.4c0.2,1.3,0.7,2.7,1,3s3.1,0.3,6.2-0.1c5.6-0.7,8.6-0.5,7.9,0.6c-0.2,0.3-1,0.5-1.7,0.3c-0.7-0.2-3.9,0.2-7,0.8
		c-5.9,1.1-4.6,1.6,1.5,0.6c1.9-0.3,4.3-0.3,5.3,0l1.9,0.5l-1.9,0.1c-1,0.1-2.6,0.3-3.4,0.5s-3,0.6-4.8,0.8
		c-1.8,0.2-3.5,0.8-3.7,1.2c-0.3,0.5,0.5,0.5,2,0.2c5.2-1.2,11.1-1.7,11.3-1.1c0.1,0.4,0.7,0.7,1.3,0.7s1.1,0.3,1.1,0.7
		c0,0.8-6.6,2.3-10.1,2.4c-1.3,0-3.2,0.2-4.1,0.5c-3.4,0.9-1.6,1.7,4.1,2c3.9,0.1,5.9,0.5,6.2,1.2c0.2,0.7-0.6,0.9-3.2,0.7
		c-1.9-0.1-3.7,0-3.9,0.4c-0.2,0.3,0.8,0.6,2.3,0.6s2.7,0.3,2.7,0.8c0,0.5-2.3,0.7-5.9,0.6c-5.9-0.2-10.8,1.3-10.8,3.2
		c0,0.4,0.8,0.3,1.7-0.4c2.5-1.7,4.8-1.5,6.2,0.7c1.2,1.8,1.1,1.9-0.3,2.7c-0.8,0.5-1.4,1.1-1.1,1.5s-1,1.3-2.8,2.1
		c-2.9,1.3-6.2,4-4.8,4c0.8,0,3.7-1.7,4.8-2.8c1-1,3.2-0.6,3.2,0.6c0,0.4-1.1,1.2-2.5,1.8c-2.1,0.9-2.2,1.1-0.8,1.1
		c0.9,0,1.7,0.4,1.7,0.8s-0.6,0.8-1.4,0.8c-2.1,0-6.2,1.6-6.2,2.4c0,0.4,1.1,0.5,2.7,0.2c1.6-0.3,2.7-0.2,2.7,0.3
		c0,0.4-1.2,1-2.6,1.3c-3.2,0.6-4.2,1.8-1.1,1.4c1.3-0.2,2.2,0,2.2,0.5c0,0.8-1.4,1.2-4,1c-0.7-0.1-1.3,0.3-1.3,0.7
		c0,0.5,1.7,0.7,4.7,0.6c5.8-0.3,6.7,1,1.7,2.7c-4.4,1.5-5.8,1.5-3.3,0c1.8-1.1,1.8-1.1-1.1-0.6c-2.6,0.4-5,1.7-5,2.7
		C5406,1529.8,5415.6,1528.6,5416.7,1527.9L5416.7,1527.9z M5420.8,1484.2c-0.3-0.5-0.4-1-0.3-1.1c0.1-0.1,3.4-0.5,7.3-0.7
		c7.7-0.6,9.9,0.6,2.7,1.4c-2.4,0.3-5.4,0.7-6.8,0.9C5422.3,1485,5421.1,1484.8,5420.8,1484.2L5420.8,1484.2z M5420.1,1481.3
		c-0.3-0.5,2.2-1.1,6.2-1.7c3.7-0.5,7-1.2,7.4-1.6c1.2-1.1,1.9-0.7,1.9,0.8c0,1.2-0.8,1.5-5.1,1.9c-2.8,0.3-6.2,0.7-7.5,0.9
		C5421.7,1481.9,5420.4,1481.8,5420.1,1481.3L5420.1,1481.3z M5484.8,1528.8c0.8-0.6,1.2-1.3,1-1.6c-0.6-0.6-3.7,1-3.7,1.9
		C5482.1,1530.2,5483,1530.1,5484.8,1528.8L5484.8,1528.8z M5433.9,1527.9c-0.3-0.3-0.9-0.3-1.5-0.1c-0.6,0.2-0.4,0.4,0.5,0.5
		C5433.7,1528.3,5434.2,1528.2,5433.9,1527.9L5433.9,1527.9z M5533.6,1522.1c-0.2-0.5-0.4-0.1-0.4,1c0,1,0.2,1.5,0.4,1
		C5533.8,1523.5,5533.8,1522.6,5533.6,1522.1z M5540.3,1523c1.3-0.6,1.2-0.7-0.8-0.7c-1.3,0-2.8,0.3-3.4,0.7
		c-0.9,0.6-0.7,0.7,0.8,0.7C5537.9,1523.7,5539.4,1523.4,5540.3,1523z M5486.6,1518.3c1.8-1.6,4.2-5.8,3.6-6.3
		c-0.1-0.1-1.4,0.5-2.8,1.4s-3.4,1.7-4.5,1.8c-2,0.2-4.3,1.8-2.6,1.8c0.5,0,1.6-0.4,2.4-0.8c1.3-0.7,1.4-0.5,1.3,1
		c-0.1,1-0.9,2-1.7,2.2c-1.3,0.4-1.3,0.5,0.4,0.5C5483.9,1519.9,5485.6,1519.2,5486.6,1518.3z M5481.8,1517.9
		c-0.8-0.2-1.7,0-2.2,0.4c-0.5,0.5,0,0.6,1.4,0.3C5482.6,1518.3,5482.8,1518.1,5481.8,1517.9z M5526.1,1515
		c-0.2-0.2-0.7,0.2-0.9,0.9c-0.4,1.1-0.3,1.2,0.4,0.4C5526.1,1515.9,5526.3,1515.3,5526.1,1515L5526.1,1515z M5407.7,1510.7
		c0.8-0.9,2.1-4.8,3.2-10c1-4.7,2-9.3,2.3-10.2c0.6-2,0.2-2.1-7.5-0.9c-4.3,0.6-12,3.8-9.2,3.8c0.5,0,1,0.3,1,0.8
		c0,0.4-0.5,0.8-1.1,0.8s-1.3,0.3-1.5,0.7c-0.2,0.4,0.8,0.4,2.4-0.1c1.9-0.5,2.9-0.5,3.1,0c0.1,0.4,0.8,0.6,1.6,0.4
		c0.9-0.2,1.3,0.1,1.3,1.2c0,0.9-0.4,1.6-0.8,1.6c-0.4,0-0.2,0.5,0.5,1c1.1,0.8,1.1,1.1,0.2,2.4c-0.6,0.8-2,2.1-3.2,2.9
		c-1.8,1.2-1.8,1.4-0.4,1c0.9-0.3,2.3-0.1,3.1,0.3c1.7,0.9,2.7,3.8,1.4,3.9c-0.5,0-0.2,0.3,0.6,0.6c1.4,0.5,1.3,0.7-1,1.9
		c-1.4,0.7-2.5,1.4-2.5,1.7C5401.4,1515,5406.3,1512.2,5407.7,1510.7L5407.7,1510.7z M5534.3,1513c-0.2-0.6-0.4-0.4-0.5,0.5
		c0,0.8,0.1,1.3,0.4,1S5534.5,1513.6,5534.3,1513z M5586.6,1512.6c0.2-0.3-0.1-1.2-0.6-1.9c-0.9-1.2-1-1.2-1,0.6
		C5585,1513.1,5585.8,1513.8,5586.6,1512.6z M5521.6,1511.2c0-0.6-0.3-1.1-0.8-1.1s-0.8,0.5-0.8,1.1c0,0.6,0.3,1.1,0.8,1.1
		S5521.6,1511.9,5521.6,1511.2z M5529,1509c-0.3-0.7-1.2-1.2-2-1.2c-1.8,0-1.8,0.1-0.6,2.7c0.8,1.7,1,1.8,2,0.9
		C5528.9,1510.7,5529.2,1509.7,5529,1509L5529,1509z M5533.4,1510.1c-0.3-0.4-0.8-0.8-1.2-0.8s-0.5,0.3-0.3,0.8
		c0.3,0.4,0.8,0.8,1.2,0.8S5533.7,1510.5,5533.4,1510.1L5533.4,1510.1z M5417.8,1506.5c-0.6-0.6-4.5,1.6-4.9,2.7
		c-0.2,0.6,0.8,0.3,2.4-0.7C5416.9,1507.6,5418,1506.7,5417.8,1506.5L5417.8,1506.5z M5417.1,1504.2c-0.6-0.6-2.8,0.4-2.8,1.3
		c0,0.6,0.5,0.6,1.6,0C5416.8,1505,5417.3,1504.5,5417.1,1504.2L5417.1,1504.2z M5528.3,1504c0-1.3,0.3-3.3,0.6-4.6
		c0.4-1.9,0-2.7-2.6-5.4c-1.7-1.7-3.1-3.6-3.1-4.2c0-0.6-0.3-1-0.6-1c-0.3,0-1-0.7-1.6-1.6c-0.8-1.3-0.8-1.8-0.1-2.2
		c0.5-0.3-0.4-0.7-2.2-0.9l-3.1-0.3l4,4c4.2,4.2,4.2,4.5,1,3.3c-1.7-0.7-2-0.6-1.8,0.5c0.2,0.9,1,1.3,2.9,1.3c2.2,0,2.7,0.4,2.9,1.8
		c0.1,0.9,0.5,1.7,0.8,1.7c1.3,0,2.3,4,1.9,6.9c-0.3,1.8-0.2,3,0.3,3C5527.9,1506.3,5528.3,1505.3,5528.3,1504L5528.3,1504z
		 M5398,1502.2c1.1,0.3,1.2,0.3,0.4-0.3c-0.8-0.6-0.5-0.9,1.1-1.5c1.2-0.4,1.7-0.8,1.2-0.9c-1.5-0.1-6.2,2.3-6.2,3.2
		c0,0.5,0.4,0.4,1-0.1C5396.2,1502.1,5397.3,1501.9,5398,1502.2L5398,1502.2z M5590.5,1499.5c0.6-1-0.4-1-1.9,0
		c-1,0.6-1,0.7,0.1,0.7C5589.5,1500.2,5590.2,1499.9,5590.5,1499.5z M5399.1,1498.7c0.6-0.4,0.8-0.7,0.4-0.7c-0.4,0-1.3,0.3-1.9,0.7
		s-0.8,0.7-0.4,0.7S5398.5,1499.1,5399.1,1498.7z M5422.9,1498.2c-0.5-0.2-1.4-0.2-1.9,0s-0.1,0.4,1,0.4
		S5423.4,1498.4,5422.9,1498.2L5422.9,1498.2z M5399.7,1496.7c-0.3-0.3-0.9-0.3-1.5-0.1c-0.6,0.2-0.4,0.4,0.5,0.5
		C5399.5,1497.1,5399.9,1497,5399.7,1496.7L5399.7,1496.7z M5539.6,1495.1c-0.5-0.5-4.2,0.7-4.2,1.4c0,0.3,1,0.2,2.3-0.2
		S5539.7,1495.2,5539.6,1495.1L5539.6,1495.1z M5589.4,1496.4c1.7-0.5,1.6-0.6-1-0.7c-1.6,0-2.9,0.3-2.9,0.7
		C5585.6,1497.3,5586.6,1497.3,5589.4,1496.4z M5583.8,1495.9c-0.3-0.3-0.9-0.3-1.5-0.1c-0.6,0.2-0.4,0.4,0.5,0.5
		C5583.6,1496.4,5584.1,1496.2,5583.8,1495.9L5583.8,1495.9z M5391.9,1495c-0.2-0.4,0-0.9,0.5-1.1c0.6-0.2,0.4-0.4-0.4-0.4
		c-1.3-0.1-1.8,0.8-0.8,1.7C5392,1495.9,5392.4,1495.8,5391.9,1495L5391.9,1495z M5583.6,1492.6c-0.3-0.4-1-0.7-1.8-0.7
		c-1,0-1,0.2,0.2,0.7C5584.2,1493.5,5584.2,1493.5,5583.6,1492.6L5583.6,1492.6z M5431.5,1490.5c-0.2-0.2-0.8,0-1.4,0.5
		c-0.7,0.8-0.7,0.8,0.4,0.4C5431.3,1491.1,5431.7,1490.7,5431.5,1490.5z M5517.4,1489.7c-0.4-0.5-1.9,0.7-1.9,1.5
		c0,0.4,0.5,0.3,1.1-0.2C5517.2,1490.4,5517.6,1489.8,5517.4,1489.7z M5533.6,1491.3c-0.7-0.2-1.9-0.2-2.7,0
		c-0.7,0.2-0.1,0.3,1.3,0.3S5534.3,1491.5,5533.6,1491.3L5533.6,1491.3z M5593.5,1490.3c0.5-0.9-1.2-0.9-4.6,0
		c-2.2,0.5-2.1,0.6,0.9,0.7C5591.6,1491,5593.3,1490.7,5593.5,1490.3L5593.5,1490.3z M5596.5,1489.9c0.2-0.6,0.1-1.1-0.2-1.1
		s-0.9,0.5-1.1,1.1c-0.2,0.6-0.1,1.1,0.2,1.1S5596.2,1490.6,5596.5,1489.9z M5528.6,1488.6c-0.5-0.5-0.9-0.6-0.9-0.1
		c0,1,0.9,1.9,1.4,1.4C5529.3,1489.7,5529.1,1489.1,5528.6,1488.6z M5516.2,1485.9c-1.1-0.4-1.7,0.4-1.1,1.4
		c0.4,0.7,0.7,0.6,1.2-0.1C5516.7,1486.6,5516.7,1486,5516.2,1485.9L5516.2,1485.9z M5588.5,1487.8c-0.9-0.7-5.3-1.1-5.3-0.5
		c0,0.4,1.3,0.7,2.8,0.7S5588.7,1487.9,5588.5,1487.8L5588.5,1487.8z M5591.1,1485c-2.2-0.3-4.5-0.8-5.1-1s-1.1-0.1-1.1,0.2
		c0,1,2,1.4,6.5,1.4l3.8,0L5591.1,1485L5591.1,1485z M5530.2,1483.7c-0.9-0.2-2.6-0.2-3.8,0c-1.2,0.2-0.4,0.3,1.7,0.3
		C5530.2,1484,5531.1,1483.9,5530.2,1483.7L5530.2,1483.7z M5534.4,1483c-0.3-0.3-0.9-0.3-1.5-0.1c-0.6,0.2-0.4,0.4,0.5,0.5
		C5534.2,1483.4,5534.6,1483.3,5534.4,1483L5534.4,1483z M5427.8,1476.9c2.2-0.3,4-0.8,4-1.1c0-0.8,0.2-0.8-7.6,0.9
		c-3.6,0.8-5.1,1.3-3.4,1.1C5422.5,1477.5,5425.6,1477.2,5427.8,1476.9z M5426,1474.7c3.3-0.6,6.1-1.1,6.2-1.1s0.2-0.6,0.1-1.2
		c-0.3-1.9-13.4-2.2-13.4-0.3c0,0.3,2.6,0.4,5.7,0.2c3.9-0.2,5.7-0.1,5.7,0.5c0,0.5-1.5,0.8-3.7,0.8c-2,0-4.9,0.5-6.3,1.1
		C5417,1476.1,5418.6,1476.1,5426,1474.7L5426,1474.7z M5238.9,1686.9c-1.3-1.9-1-3.1,0.7-2.4c0.6,0.2,1.1,1.2,1.1,2.2
		C5240.7,1689,5240.4,1689,5238.9,1686.9L5238.9,1686.9z M5227,1681c0-0.4-1.1-0.8-2.5-1c-1.9-0.2-2.5-0.6-2.5-1.8
		c0-1.2,0.8-1.7,4.6-2.4c2.5-0.5,7-1.4,9.9-2.1c2.9-0.7,9.3-1.9,14.1-2.8s9.3-1.6,9.9-1.8c0.6-0.1-3.7-0.2-9.7,0
		c-8.4,0.2-11.2,0.5-12.5,1.4c-0.9,0.7-2,1.2-2.3,1.2c-1.5,0,0.1-3.1,1.8-3.3c0.6-0.1,1.4-0.4,1.9-0.7c0.4-0.3,2.9-0.9,5.5-1.3
		s6.8-1.2,9.4-1.6c2.6-0.4,4.9-0.9,5.2-1.1c0.3-0.2,4.1-0.8,8.4-1.5c14.2-2.1,13.4-1.9,11.7-2.9c-1.8-1-16.3-0.8-19.1,0.2
		c-1.1,0.4-4,0.8-6.5,0.9c-3.4,0.1-4.2,0.3-3.2,0.9c1.3,0.7,1.2,0.8-0.1,1.3c-0.8,0.3-2.8,0.6-4.3,0.6c-2.1,0-2.9-0.3-2.9-1.2
		c0-1,0.5-1.1,2.5-0.8c1.8,0.3,2.2,0.3,1.3-0.3c-1-0.7-1-0.8,0-1.5c0.6-0.4,1.9-0.8,2.8-0.8c0.9,0,3-0.5,4.6-1.1
		c1.6-0.6,7.9-2.3,14.1-3.8c6.2-1.5,11.7-2.9,12.4-3.2c0.8-0.3,1.2,0,1.2,1c0,1.3-0.7,1.6-4.8,2c-4.8,0.5-15.6,3-16.4,3.8
		c-0.2,0.2,1.2,0.2,3.3-0.1c6.6-0.9,17.9-0.5,20,0.8c0.6,0.3,3.7,0.2,6.9-0.3c6.1-1,8.8-0.7,8.2,1c-0.4,1.1-3.7,1.8-11.6,2.4
		c-15.5,1.3-42.7,5.9-38.1,6.4c2.2,0.2,15-1.1,18.2-1.9c0.8-0.2,5-0.4,9.3-0.5c4.3-0.1,8-0.3,8.3-0.6c0.8-0.8,2.7,0.2,2.7,1.4
		c0,1.2-0.2,1.2-5.7,1.4c-5.5,0.2-19.5,2-19.1,2.4c0.2,0.2,2.9,0.3,6.1,0.3c3.1,0,5.9,0.3,6.2,0.7c0.3,0.5-1.3,0.8-4,0.8
		c-4.8,0.1-11.3,0.4-11.3,0.6c0,0.1-3.1,0.2-6.8,0.4c-6,0.3-11.7,1.4-20.6,4.1c-3.9,1.2-5.6,2.3-5.1,3.6c0.2,0.6,0.1,1.1-0.4,1.1
		C5227.4,1681.7,5227,1681.4,5227,1681L5227,1681z M5264.5,1668.3c-0.5-0.2-1.4-0.2-1.9,0c-0.5,0.2-0.1,0.4,1,0.4
		S5265,1668.5,5264.5,1668.3L5264.5,1668.3z M5270.2,1667.5c-0.7-0.2-1.9-0.2-2.7,0s-0.1,0.3,1.3,0.3S5270.9,1667.7,5270.2,1667.5
		L5270.2,1667.5z M5274,1666.8c-0.3-0.3-0.9-0.3-1.5-0.1c-0.6,0.2-0.4,0.4,0.5,0.5C5273.8,1667.2,5274.3,1667,5274,1666.8
		L5274,1666.8z M5251.2,1680.4c0.5-0.2,1.2-0.2,1.5,0.1c0.3,0.3-0.2,0.4-1,0.4C5250.8,1680.9,5250.6,1680.7,5251.2,1680.4
		L5251.2,1680.4z M5250.3,1652.9c-0.6-1,0.5-2.2,2.6-2.7c1-0.3,4.1-1,6.8-1.7c10.4-2.5,17.9-2.7,17.9-0.3c0,0.8-1.1,1.1-4.6,1.2
		c-2.5,0.1-8.2,1-12.7,2.1C5251.5,1653.7,5250.9,1653.8,5250.3,1652.9L5250.3,1652.9z M5616.5,1578.5c-0.7-0.7,0.3-2.6,1-2.2
		c0.4,0.2,0.7,0.9,0.7,1.5C5618.2,1579,5617.3,1579.3,5616.5,1578.5z M5378.4,1495.3c0-0.4,0.5-0.8,1.1-0.8s1.1,0.3,1.1,0.8
		c0,0.4-0.5,0.8-1.1,0.8S5378.4,1495.7,5378.4,1495.3z M5217.2,1453.3c-1.6-1.6-1-2.1,2.6-2.1c3.5,0,3.5,0,2.2,1.5
		C5220.4,1454.4,5218.5,1454.7,5217.2,1453.3z"/>
</g>
</svg>
