<svg viewBox="0 0 53.531 53.531" xmlns="http://www.w3.org/2000/svg"><g><path d="m53.531 45.394a8.133 8.133 0 0 1 -8.137 8.137h-37.257a8.133 8.133 0 0 1 -8.137-8.137v-37.257a8.133 8.133 0 0 1 8.137-8.137h37.257a8.133 8.133 0 0 1 8.137 8.137z" fill="#840d16" opacity=".6"/><path d="m41.787 27.8a17.494 17.494 0 0 0 -7.03 33.51 17.163 17.163 0 0 1 .285-4c.321-1.427 2.248-9.528 2.248-9.528a6.5 6.5 0 0 1 -.571-2.748c0-2.605 1.5-4.532 3.39-4.532a2.347 2.347 0 0 1 2.355 2.641c0 1.606-1.035 4-1.535 6.21a2.7 2.7 0 0 0 2.748 3.355c3.319 0 5.532-4.247 5.532-9.279 0-3.819-2.569-6.709-7.28-6.709a8.271 8.271 0 0 0 -8.6 8.386 5.122 5.122 0 0 0 1.142 3.426.857.857 0 0 1 .25.964c-.071.321-.285 1.106-.357 1.392a.6.6 0 0 1 -.892.428c-2.427-1-3.569-3.676-3.569-6.673 0-4.961 4.175-10.92 12.49-10.92 6.673 0 11.063 4.818 11.063 10.028 0 6.852-3.819 11.991-9.421 11.991a5.067 5.067 0 0 1 -4.282-2.177s-1 4.033-1.213 4.818a14.507 14.507 0 0 1 -1.749 3.747 17.519 17.519 0 1 0 5-34.331z" fill="#ffeed7" transform="translate(-15.628 -17.879)"/></g></svg>